<?xml version="1.0" encoding="utf-8"?>
<!-- Generator: Adobe Illustrator 21.1.0, SVG Export Plug-In . SVG Version: 6.00 Build 0)  -->
<svg version="1.1" id="Layer_1" xmlns="http://www.w3.org/2000/svg" xmlns:xlink="http://www.w3.org/1999/xlink" x="0px" y="0px"
	 viewBox="0 0 87 77.2" style="enable-background:new 0 0 87 77.2;" xml:space="preserve">
<style type="text/css">
	.st0{fill:#2A2A2A;}
	.st1{fill:#3C3C3A;}
	.st2{fill:#B32536;}
	.st3{fill:#FFFFFF;}
	.st4{enable-background:new    ;}
</style>
<desc>Created with Sketch.</desc>
<path id="Fill-4" class="st0" d="M74.9,48.5c0-6.7-3.4-14.8-28.3-14.8h-6.2c-24.9,0-28.3,8.1-28.3,14.8c0,3.9,2.2,10.4,10.4,10.4
	c10.3,0,13.4-9.2,15.9-12.9c1.9-2.7,5-2.9,5-2.9s3,0.2,5,2.9c2.6,3.7,5.7,12.9,15.9,12.9C72.6,58.9,74.9,52.3,74.9,48.5"/>
<polygon id="Fill-5" class="st0" points="0.1,52.1 12.9,52.1 12.9,48.7 0.1,48.7 "/>
<polygon id="Fill-6" class="st0" points="74.1,52.1 86.9,52.1 86.9,48.7 74.1,48.7 "/>
<polyline id="Fill-7" class="st1" points="36.1,37.7 50.3,37.7 36.1,37.7 "/>
<polyline id="Fill-8" class="st1" points="36.1,40.7 50.3,40.7 36.1,40.7 "/>
<path id="Fill-9" class="st2" d="M49.2,0.3c-3.6-0.4-8.6-0.4-12,0v31.1c4-0.1,8-0.1,12,0V0.3"/>
<path id="Fill-10" class="st0" d="M83.9,48.2c0.4-3.5,0.5-6.7,0.5-9.6c0-20.2-14.3-34.7-33.3-37.9v31.1c14.3,0.4,25.2,2.7,26.6,16.3
	h6.2"/>
<path id="Fill-11" class="st0" d="M78.4,53.7c0,1.5-0.1,3-0.3,4.6H83c0.3-1.6,0.5-3.1,0.8-4.6H78.4"/>
<path id="Fill-12" class="st0" d="M2.1,38.5c0,2.9,0.2,6.1,0.5,9.6h6.2c1.4-13.6,12.3-15.9,26.6-16.3V0.7
	C16.5,3.9,2.1,18.4,2.1,38.5"/>
<path id="Fill-13" class="st0" d="M3.1,53.7c0.2,1.5,0.5,3.1,0.8,4.6h4.9c-0.1-1.6-0.2-3.2-0.3-4.6H3.1"/>
<path id="Fill-14" class="st3" d="M36.1,40.1c0,4.8-1.9,9.4-5.3,12.7c-1,1-2.2,1.9-3.4,2.5c-1.3,0.6-2.6,1-4.1,1
	c-1.6,0-2.9-0.3-3.9-0.8c-1.6-0.8-2.6-2-3.2-3.3s-0.9-2.7-0.9-3.9c0-1.3,0.2-2.7,0.7-3.9c0.4-1,1-1.9,1.9-2.8
	c1.3-1.3,3.3-2.5,6.4-3.4c3-0.9,6.6-1.4,12-1.5v3.4H36.1z M51.3,40.1v-3.3c5.4,0.1,8.9,0.6,12,1.5c3,0.9,5.1,2.1,6.4,3.4
	c0.9,0.9,1.5,1.8,1.9,2.8c0.5,1.3,0.7,2.6,0.7,3.9c0,1.1-0.2,2.5-0.9,3.9c-0.6,1.3-1.6,2.5-3.2,3.3c-1,0.5-2.3,0.8-3.9,0.8
	c-1.5,0-2.9-0.4-4.1-1c-1.3-0.6-2.4-1.5-3.4-2.5C53.2,49.5,51.3,44.9,51.3,40.1z M25,40c0.6-0.2,1,0.7,0.5,1
	c-4.1,2.7-6.3,6.3-7.4,8.6C17.9,50.2,17,50,17,49.4C16.7,43.3,21.5,40.9,25,40z M62.4,40c3.5,0.9,8.3,3.3,8,9.4
	c0,0.6-0.9,0.8-1.1,0.2c-1-2.3-3.2-5.9-7.4-8.6C61.4,40.7,61.8,39.8,62.4,40z M36.1,35.7c-4.6,0.1-8.3,0.5-11.2,1.3
	c-2.3,0.6-4.1,1.3-5.5,2.1c-2.2,1.3-3.5,2.8-4.3,4.4c-0.8,1.6-1,3.3-1,4.9c0,1.7,0.5,3.9,1.9,5.8c0.7,0.9,1.6,1.8,2.8,2.3
	c1.2,0.6,2.7,0.9,4.4,0.9c1.7,0,3.2-0.4,4.6-1.1c1.4-0.7,2.6-1.6,3.7-2.7c3.4-3.3,5.3-7.7,5.6-12.3h13.2c0.3,4.6,2.2,9.1,5.6,12.3
	c1.1,1,2.3,2,3.7,2.7s2.9,1.1,4.6,1.1c1.8,0,3.2-0.3,4.4-0.9c1.2-0.6,2.1-1.4,2.8-2.3c1.4-1.9,1.9-4.1,1.9-5.8c0-1.6-0.2-3.3-1-4.9
	c-0.8-1.6-2.1-3.2-4.3-4.4c-1.4-0.8-3.3-1.6-5.5-2.1c-2.9-0.7-6.6-1.2-11.2-1.3l0,0h-0.5h-0.5l0,0H37.2l0,0h-0.5H36.1L36.1,35.7
	L36.1,35.7z"/>
<g class="st4">
	<g class="st4">
		<path class="st2" d="M3.5,76c-0.6,0-1.3-0.1-1.9-0.3S0.5,75.2,0,74.8l0.7-1.2c0.5,0.3,0.9,0.6,1.4,0.8c0.4,0.2,0.9,0.3,1.3,0.3
			c0.4,0,0.7-0.1,0.9-0.2s0.3-0.4,0.3-0.6s-0.1-0.5-0.4-0.6S3.6,72.9,3,72.7c-0.5-0.1-0.9-0.3-1.3-0.4s-0.6-0.3-0.8-0.4
			c-0.2-0.2-0.4-0.3-0.5-0.6s-0.1-0.5-0.1-0.8c0-0.4,0.1-0.7,0.2-1.1c0.2-0.3,0.4-0.6,0.6-0.8c0.3-0.2,0.6-0.4,1-0.5
			s0.8-0.2,1.2-0.2c0.6,0,1.1,0.1,1.6,0.2s1,0.4,1.4,0.8l-0.8,1.2c-0.4-0.3-0.8-0.5-1.1-0.6c-0.4-0.1-0.7-0.2-1.1-0.2
			c-0.3,0-0.6,0.1-0.8,0.2c-0.2,0.1-0.3,0.4-0.3,0.7c0,0.1,0,0.2,0.1,0.3c0.1,0.1,0.1,0.2,0.3,0.2C2.6,71,2.7,71,2.9,71.1
			s0.4,0.1,0.7,0.2c0.5,0.1,1,0.3,1.4,0.4s0.7,0.3,0.9,0.5s0.4,0.4,0.5,0.6s0.2,0.5,0.2,0.8c0,0.8-0.3,1.3-0.8,1.8S4.5,76,3.5,76z"
			/>
		<path class="st2" d="M11.1,76c-0.5,0-1-0.1-1.5-0.3c-0.4-0.2-0.8-0.5-1.2-0.8s-0.6-0.8-0.8-1.3s-0.3-1-0.3-1.6s0.1-1.1,0.3-1.6
			c0.2-0.5,0.4-0.9,0.7-1.3c0.3-0.4,0.7-0.6,1.1-0.8c0.4-0.2,0.9-0.3,1.4-0.3c0.6,0,1.1,0.1,1.5,0.4s0.8,0.6,1.1,1.1v-4.4h2v8.4
			c0,0.2,0,0.4,0.1,0.4c0.1,0.1,0.2,0.1,0.4,0.1v1.7C15.5,75.9,15.2,76,15,76c-0.4,0-0.6-0.1-0.9-0.3s-0.4-0.4-0.4-0.7l0-0.5
			c-0.3,0.5-0.7,0.9-1.1,1.1C12.1,75.9,11.6,76,11.1,76z M11.6,74.4c0.2,0,0.4,0,0.6-0.1s0.4-0.2,0.5-0.3s0.3-0.3,0.4-0.4
			s0.2-0.3,0.3-0.5v-1.8c-0.1-0.2-0.2-0.4-0.3-0.6s-0.3-0.3-0.5-0.5s-0.4-0.2-0.6-0.3c-0.2-0.1-0.4-0.1-0.6-0.1
			c-0.3,0-0.6,0.1-0.8,0.2c-0.2,0.1-0.5,0.3-0.6,0.5s-0.3,0.5-0.4,0.8c-0.1,0.3-0.1,0.6-0.1,0.9c0,0.3,0.1,0.6,0.2,0.9
			c0.1,0.3,0.3,0.5,0.4,0.7c0.2,0.2,0.4,0.4,0.7,0.5S11.3,74.4,11.6,74.4z"/>
		<path class="st2" d="M19.4,76c-0.4,0-0.7-0.1-1-0.2c-0.3-0.1-0.6-0.3-0.8-0.5s-0.4-0.5-0.5-0.8s-0.2-0.6-0.2-1
			c0-0.4,0.1-0.7,0.2-1s0.4-0.6,0.7-0.8c0.3-0.2,0.6-0.4,1-0.5c0.4-0.1,0.8-0.2,1.3-0.2c0.3,0,0.7,0,1,0.1s0.6,0.1,0.9,0.2V71
			c0-0.5-0.1-0.9-0.4-1.2c-0.3-0.3-0.7-0.4-1.3-0.4c-0.4,0-0.8,0.1-1.2,0.2c-0.4,0.1-0.8,0.4-1.2,0.6l-0.6-1.2c1-0.7,2.1-1,3.2-1
			c1.1,0,2,0.3,2.6,0.8s0.9,1.3,0.9,2.4v2.4c0,0.2,0,0.4,0.1,0.4s0.2,0.1,0.4,0.1v1.7c-0.3,0.1-0.6,0.1-0.9,0.1
			c-0.4,0-0.7-0.1-0.9-0.2s-0.3-0.4-0.4-0.7l0-0.4c-0.3,0.4-0.8,0.8-1.2,1S20,76,19.4,76z M20,74.6c0.3,0,0.6-0.1,0.9-0.2
			s0.5-0.3,0.7-0.5c0.2-0.2,0.3-0.4,0.3-0.6v-0.9c-0.2-0.1-0.5-0.2-0.8-0.2s-0.5-0.1-0.8-0.1c-0.5,0-0.9,0.1-1.2,0.3
			s-0.5,0.5-0.5,0.9c0,0.3,0.1,0.6,0.4,0.8C19.3,74.5,19.6,74.6,20,74.6z"/>
		<path class="st2" d="M35.1,68.2h1.9l-3.2,7.7h-1.6l-1.3-3.4l-1.3,3.4h-1.6l-3.2-7.7h1.8l2.3,5.8l0.9-2.5l-1.3-3.3H30l0.8,2.4
			l0.8-2.4h1.6l-1.3,3.3l0.9,2.5L35.1,68.2z"/>
		<path class="st2" d="M41.1,76c-0.6,0-1.2-0.1-1.7-0.3c-0.5-0.2-0.9-0.5-1.3-0.9s-0.6-0.8-0.8-1.3s-0.3-1-0.3-1.5
			c0-0.5,0.1-1.1,0.3-1.5s0.5-0.9,0.8-1.3s0.8-0.7,1.3-0.9c0.5-0.2,1.1-0.3,1.7-0.3s1.2,0.1,1.7,0.3s0.9,0.5,1.3,0.9
			c0.3,0.4,0.6,0.8,0.8,1.3c0.2,0.5,0.3,1,0.3,1.5c0,0.1,0,0.2,0,0.4c0,0.1,0,0.2,0,0.3h-5.9c0,0.3,0.1,0.6,0.2,0.8s0.3,0.4,0.5,0.6
			c0.2,0.2,0.4,0.3,0.6,0.4s0.5,0.1,0.7,0.1c0.4,0,0.8-0.1,1.1-0.3s0.6-0.4,0.7-0.8l1.7,0.5c-0.3,0.6-0.7,1.1-1.4,1.4S42,76,41.1,76
			z M43.1,71.4c0-0.6-0.3-1-0.6-1.4s-0.8-0.5-1.4-0.5c-0.3,0-0.5,0-0.7,0.1s-0.4,0.2-0.6,0.4c-0.2,0.2-0.3,0.4-0.4,0.6
			c-0.1,0.2-0.2,0.5-0.2,0.8H43.1z"/>
		<path class="st2" d="M49.2,76c-0.6,0-1.3-0.1-1.9-0.3s-1.1-0.5-1.6-0.9l0.7-1.2c0.5,0.3,0.9,0.6,1.4,0.8s0.9,0.3,1.3,0.3
			c0.4,0,0.7-0.1,0.9-0.2s0.3-0.4,0.3-0.6s-0.1-0.5-0.4-0.6s-0.7-0.3-1.3-0.4c-0.5-0.1-0.9-0.3-1.3-0.4s-0.6-0.3-0.8-0.4
			s-0.4-0.3-0.5-0.6S46,70.9,46,70.6c0-0.4,0.1-0.7,0.2-1.1c0.2-0.3,0.4-0.6,0.6-0.8c0.3-0.2,0.6-0.4,1-0.5c0.4-0.1,0.8-0.2,1.2-0.2
			c0.6,0,1.1,0.1,1.6,0.2s1,0.4,1.4,0.8l-0.8,1.2c-0.4-0.3-0.8-0.5-1.1-0.6c-0.4-0.1-0.7-0.2-1.1-0.2c-0.3,0-0.6,0.1-0.8,0.2
			c-0.2,0.1-0.3,0.4-0.3,0.7c0,0.1,0,0.2,0.1,0.3c0.1,0.1,0.1,0.2,0.3,0.2c0.1,0.1,0.3,0.1,0.5,0.2c0.2,0.1,0.4,0.1,0.7,0.2
			c0.5,0.1,1,0.3,1.4,0.4s0.7,0.3,0.9,0.5s0.4,0.4,0.5,0.6s0.2,0.5,0.2,0.8c0,0.8-0.3,1.3-0.8,1.8S50.2,76,49.2,76z"/>
		<path class="st2" d="M53.6,75.9v-2.1h1.6v2.1H53.6z"/>
		<path class="st2" d="M56.4,72c0-0.5,0.1-1,0.3-1.5c0.2-0.5,0.5-0.9,0.8-1.3c0.4-0.4,0.8-0.6,1.3-0.9s1.1-0.3,1.7-0.3
			c0.8,0,1.6,0.2,2.1,0.5s1,0.8,1.3,1.4L62,70.6c-0.2-0.3-0.4-0.5-0.7-0.7s-0.6-0.2-0.9-0.2c-0.3,0-0.5,0.1-0.8,0.2
			s-0.5,0.3-0.6,0.5c-0.2,0.2-0.3,0.4-0.4,0.7c-0.1,0.3-0.2,0.6-0.2,0.9s0.1,0.7,0.2,0.9s0.3,0.5,0.4,0.7s0.4,0.4,0.6,0.5
			s0.5,0.2,0.8,0.2c0.4,0,0.7-0.1,1-0.3s0.5-0.4,0.6-0.6L64,74c-0.3,0.6-0.7,1.1-1.3,1.4S61.3,76,60.5,76c-0.6,0-1.2-0.1-1.7-0.3
			s-0.9-0.5-1.3-0.9s-0.6-0.8-0.8-1.3C56.5,73.1,56.4,72.6,56.4,72z"/>
		<path class="st2" d="M68.6,76c-0.6,0-1.2-0.1-1.7-0.3s-0.9-0.5-1.3-0.9c-0.3-0.4-0.6-0.8-0.8-1.3s-0.3-1-0.3-1.5
			c0-0.5,0.1-1,0.3-1.5c0.2-0.5,0.5-0.9,0.8-1.3c0.3-0.4,0.8-0.7,1.3-0.9s1.1-0.3,1.7-0.3s1.2,0.1,1.7,0.3c0.5,0.2,0.9,0.5,1.3,0.9
			c0.3,0.4,0.6,0.8,0.8,1.3c0.2,0.5,0.3,1,0.3,1.5c0,0.5-0.1,1-0.3,1.5c-0.2,0.5-0.4,0.9-0.8,1.3s-0.8,0.7-1.3,0.9S69.3,76,68.6,76z
			 M66.6,72.1c0,0.3,0.1,0.7,0.2,0.9s0.2,0.5,0.4,0.7c0.2,0.2,0.4,0.4,0.6,0.5s0.5,0.2,0.8,0.2s0.5-0.1,0.8-0.2s0.5-0.3,0.6-0.5
			c0.2-0.2,0.3-0.4,0.4-0.7c0.1-0.3,0.2-0.6,0.2-0.9c0-0.3-0.1-0.6-0.2-0.9c-0.1-0.3-0.2-0.5-0.4-0.7c-0.2-0.2-0.4-0.4-0.6-0.5
			s-0.5-0.2-0.8-0.2s-0.5,0.1-0.8,0.2s-0.5,0.3-0.6,0.5c-0.2,0.2-0.3,0.4-0.4,0.7S66.6,71.7,66.6,72.1z"/>
		<path class="st2" d="M85.9,75.9h-2v-4.3c0-0.6-0.1-1.1-0.3-1.3c-0.2-0.3-0.5-0.4-0.9-0.4c-0.4,0-0.8,0.1-1.1,0.4
			c-0.3,0.3-0.6,0.7-0.7,1.2v4.5h-2v-4.3c0-0.6-0.1-1.1-0.3-1.3c-0.2-0.3-0.5-0.4-0.9-0.4c-0.4,0-0.7,0.1-1.1,0.4s-0.6,0.7-0.7,1.2
			v4.5h-2v-7.7h1.8v1.4c0.3-0.5,0.7-0.9,1.2-1.1s1.1-0.4,1.7-0.4c0.6,0,1.1,0.2,1.5,0.5s0.6,0.7,0.7,1.2c0.3-0.5,0.7-0.9,1.2-1.2
			s1-0.4,1.6-0.4c0.5,0,0.9,0.1,1.2,0.3s0.5,0.4,0.7,0.7c0.2,0.3,0.3,0.6,0.3,1c0.1,0.4,0.1,0.7,0.1,1.1V75.9z"/>
	</g>
	<g class="st4">
		<path class="st0" d="M3.5,76c-0.6,0-1.3-0.1-1.9-0.3S0.5,75.2,0,74.8l0.7-1.2c0.5,0.3,0.9,0.6,1.4,0.8c0.4,0.2,0.9,0.3,1.3,0.3
			c0.4,0,0.7-0.1,0.9-0.2s0.3-0.4,0.3-0.6s-0.1-0.5-0.4-0.6S3.6,72.9,3,72.7c-0.5-0.1-0.9-0.3-1.3-0.4s-0.6-0.3-0.8-0.4
			c-0.2-0.2-0.4-0.3-0.5-0.6s-0.1-0.5-0.1-0.8c0-0.4,0.1-0.7,0.2-1.1c0.2-0.3,0.4-0.6,0.6-0.8c0.3-0.2,0.6-0.4,1-0.5
			s0.8-0.2,1.2-0.2c0.6,0,1.1,0.1,1.6,0.2s1,0.4,1.4,0.8l-0.8,1.2c-0.4-0.3-0.8-0.5-1.1-0.6c-0.4-0.1-0.7-0.2-1.1-0.2
			c-0.3,0-0.6,0.1-0.8,0.2c-0.2,0.1-0.3,0.4-0.3,0.7c0,0.1,0,0.2,0.1,0.3c0.1,0.1,0.1,0.2,0.3,0.2C2.6,71,2.7,71,2.9,71.1
			s0.4,0.1,0.7,0.2c0.5,0.1,1,0.3,1.4,0.4s0.7,0.3,0.9,0.5s0.4,0.4,0.5,0.6s0.2,0.5,0.2,0.8c0,0.8-0.3,1.3-0.8,1.8S4.5,76,3.5,76z"
			/>
		<path class="st0" d="M11.1,76c-0.5,0-1-0.1-1.5-0.3c-0.4-0.2-0.8-0.5-1.2-0.8s-0.6-0.8-0.8-1.3s-0.3-1-0.3-1.6s0.1-1.1,0.3-1.6
			c0.2-0.5,0.4-0.9,0.7-1.3c0.3-0.4,0.7-0.6,1.1-0.8c0.4-0.2,0.9-0.3,1.4-0.3c0.6,0,1.1,0.1,1.5,0.4s0.8,0.6,1.1,1.1v-4.4h2v8.4
			c0,0.2,0,0.4,0.1,0.4c0.1,0.1,0.2,0.1,0.4,0.1v1.7C15.5,75.9,15.2,76,15,76c-0.4,0-0.6-0.1-0.9-0.3s-0.4-0.4-0.4-0.7l0-0.5
			c-0.3,0.5-0.7,0.9-1.1,1.1C12.1,75.9,11.6,76,11.1,76z M11.6,74.4c0.2,0,0.4,0,0.6-0.1s0.4-0.2,0.5-0.3s0.3-0.3,0.4-0.4
			s0.2-0.3,0.3-0.5v-1.8c-0.1-0.2-0.2-0.4-0.3-0.6s-0.3-0.3-0.5-0.5s-0.4-0.2-0.6-0.3c-0.2-0.1-0.4-0.1-0.6-0.1
			c-0.3,0-0.6,0.1-0.8,0.2c-0.2,0.1-0.5,0.3-0.6,0.5s-0.3,0.5-0.4,0.8c-0.1,0.3-0.1,0.6-0.1,0.9c0,0.3,0.1,0.6,0.2,0.9
			c0.1,0.3,0.3,0.5,0.4,0.7c0.2,0.2,0.4,0.4,0.7,0.5S11.3,74.4,11.6,74.4z"/>
		<path class="st0" d="M19.4,76c-0.4,0-0.7-0.1-1-0.2c-0.3-0.1-0.6-0.3-0.8-0.5s-0.4-0.5-0.5-0.8s-0.2-0.6-0.2-1
			c0-0.4,0.1-0.7,0.2-1s0.4-0.6,0.7-0.8c0.3-0.2,0.6-0.4,1-0.5c0.4-0.1,0.8-0.2,1.3-0.2c0.3,0,0.7,0,1,0.1s0.6,0.1,0.9,0.2V71
			c0-0.5-0.1-0.9-0.4-1.2c-0.3-0.3-0.7-0.4-1.3-0.4c-0.4,0-0.8,0.1-1.2,0.2c-0.4,0.1-0.8,0.4-1.2,0.6l-0.6-1.2c1-0.7,2.1-1,3.2-1
			c1.1,0,2,0.3,2.6,0.8s0.9,1.3,0.9,2.4v2.4c0,0.2,0,0.4,0.1,0.4s0.2,0.1,0.4,0.1v1.7c-0.3,0.1-0.6,0.1-0.9,0.1
			c-0.4,0-0.7-0.1-0.9-0.2s-0.3-0.4-0.4-0.7l0-0.4c-0.3,0.4-0.8,0.8-1.2,1S20,76,19.4,76z M20,74.6c0.3,0,0.6-0.1,0.9-0.2
			s0.5-0.3,0.7-0.5c0.2-0.2,0.3-0.4,0.3-0.6v-0.9c-0.2-0.1-0.5-0.2-0.8-0.2s-0.5-0.1-0.8-0.1c-0.5,0-0.9,0.1-1.2,0.3
			s-0.5,0.5-0.5,0.9c0,0.3,0.1,0.6,0.4,0.8C19.3,74.5,19.6,74.6,20,74.6z"/>
		<path class="st0" d="M35.1,68.2h1.9l-3.2,7.7h-1.6l-1.3-3.4l-1.3,3.4h-1.6l-3.2-7.7h1.8l2.3,5.8l0.9-2.5l-1.3-3.3H30l0.8,2.4
			l0.8-2.4h1.6l-1.3,3.3l0.9,2.5L35.1,68.2z"/>
		<path class="st0" d="M41.1,76c-0.6,0-1.2-0.1-1.7-0.3c-0.5-0.2-0.9-0.5-1.3-0.9s-0.6-0.8-0.8-1.3s-0.3-1-0.3-1.5
			c0-0.5,0.1-1.1,0.3-1.5s0.5-0.9,0.8-1.3s0.8-0.7,1.3-0.9c0.5-0.2,1.1-0.3,1.7-0.3s1.2,0.1,1.7,0.3s0.9,0.5,1.3,0.9
			c0.3,0.4,0.6,0.8,0.8,1.3c0.2,0.5,0.3,1,0.3,1.5c0,0.1,0,0.2,0,0.4c0,0.1,0,0.2,0,0.3h-5.9c0,0.3,0.1,0.6,0.2,0.8s0.3,0.4,0.5,0.6
			c0.2,0.2,0.4,0.3,0.6,0.4s0.5,0.1,0.7,0.1c0.4,0,0.8-0.1,1.1-0.3s0.6-0.4,0.7-0.8l1.7,0.5c-0.3,0.6-0.7,1.1-1.4,1.4S42,76,41.1,76
			z M43.1,71.4c0-0.6-0.3-1-0.6-1.4s-0.8-0.5-1.4-0.5c-0.3,0-0.5,0-0.7,0.1s-0.4,0.2-0.6,0.4c-0.2,0.2-0.3,0.4-0.4,0.6
			c-0.1,0.2-0.2,0.5-0.2,0.8H43.1z"/>
		<path class="st0" d="M49.2,76c-0.6,0-1.3-0.1-1.9-0.3s-1.1-0.5-1.6-0.9l0.7-1.2c0.5,0.3,0.9,0.6,1.4,0.8s0.9,0.3,1.3,0.3
			c0.4,0,0.7-0.1,0.9-0.2s0.3-0.4,0.3-0.6s-0.1-0.5-0.4-0.6s-0.7-0.3-1.3-0.4c-0.5-0.1-0.9-0.3-1.3-0.4s-0.6-0.3-0.8-0.4
			s-0.4-0.3-0.5-0.6S46,70.9,46,70.6c0-0.4,0.1-0.7,0.2-1.1c0.2-0.3,0.4-0.6,0.6-0.8c0.3-0.2,0.6-0.4,1-0.5c0.4-0.1,0.8-0.2,1.2-0.2
			c0.6,0,1.1,0.1,1.6,0.2s1,0.4,1.4,0.8l-0.8,1.2c-0.4-0.3-0.8-0.5-1.1-0.6c-0.4-0.1-0.7-0.2-1.1-0.2c-0.3,0-0.6,0.1-0.8,0.2
			c-0.2,0.1-0.3,0.4-0.3,0.7c0,0.1,0,0.2,0.1,0.3c0.1,0.1,0.1,0.2,0.3,0.2c0.1,0.1,0.3,0.1,0.5,0.2c0.2,0.1,0.4,0.1,0.7,0.2
			c0.5,0.1,1,0.3,1.4,0.4s0.7,0.3,0.9,0.5s0.4,0.4,0.5,0.6s0.2,0.5,0.2,0.8c0,0.8-0.3,1.3-0.8,1.8S50.2,76,49.2,76z"/>
	</g>
</g>
</svg>
