<?xml version="1.0" encoding="utf-8"?>
<!-- Generator: Adobe Illustrator 21.1.0, SVG Export Plug-In . SVG Version: 6.00 Build 0)  -->
<svg version="1.1" id="Layer_1" xmlns="http://www.w3.org/2000/svg" xmlns:xlink="http://www.w3.org/1999/xlink" x="0px" y="0px"
	 viewBox="0 0 87 77.2" style="enable-background:new 0 0 87 77.2;" xml:space="preserve">
<style type="text/css">
	.st0{fill:#2A2A2A;}
	.st1{fill:#3C3C3A;}
	.st2{fill:#B32536;}
	.st3{fill:#FFFFFF;}
	.st4{enable-background:new    ;}
	.st5{font-family:'Raleway-Bold';}
	.st6{font-size:14.6474px;}
</style>
<desc>Created with Sketch.</desc>
<path id="Fill-4" class="st0" d="M74.9,48.5c0-6.7-3.4-14.8-28.3-14.8h-6.2c-24.9,0-28.3,8.1-28.3,14.8c0,3.9,2.2,10.4,10.4,10.4
	c10.3,0,13.4-9.2,15.9-12.9c1.9-2.7,5-2.9,5-2.9s3,0.2,5,2.9c2.6,3.7,5.7,12.9,15.9,12.9C72.6,58.9,74.9,52.3,74.9,48.5"/>
<polygon id="Fill-5" class="st0" points="0.1,52.1 12.9,52.1 12.9,48.7 0.1,48.7 "/>
<polygon id="Fill-6" class="st0" points="74.1,52.1 86.9,52.1 86.9,48.7 74.1,48.7 "/>
<polyline id="Fill-7" class="st1" points="36.1,37.7 50.3,37.7 36.1,37.7 "/>
<polyline id="Fill-8" class="st1" points="36.1,40.7 50.3,40.7 36.1,40.7 "/>
<path id="Fill-9" class="st2" d="M49.2,0.3c-3.6-0.4-8.6-0.4-12,0v31.1c4-0.1,8-0.1,12,0V0.3"/>
<path id="Fill-10" class="st0" d="M83.9,48.2c0.4-3.5,0.5-6.7,0.5-9.6c0-20.2-14.3-34.7-33.3-37.9v31.1c14.3,0.4,25.2,2.7,26.6,16.3
	h6.2"/>
<path id="Fill-11" class="st0" d="M78.4,53.7c0,1.5-0.1,3-0.3,4.6H83c0.3-1.6,0.5-3.1,0.8-4.6H78.4"/>
<path id="Fill-12" class="st0" d="M2.1,38.5c0,2.9,0.2,6.1,0.5,9.6h6.2c1.4-13.6,12.3-15.9,26.6-16.3V0.7
	C16.5,3.9,2.1,18.4,2.1,38.5"/>
<path id="Fill-13" class="st0" d="M3.1,53.7c0.2,1.5,0.5,3.1,0.8,4.6h4.9c-0.1-1.6-0.2-3.2-0.3-4.6H3.1"/>
<path id="Fill-14" class="st3" d="M36.1,40.1c0,4.8-1.9,9.4-5.3,12.7c-1,1-2.2,1.9-3.4,2.5c-1.3,0.6-2.6,1-4.1,1
	c-1.6,0-2.9-0.3-3.9-0.8c-1.6-0.8-2.6-2-3.2-3.3s-0.9-2.7-0.9-3.9c0-1.3,0.2-2.7,0.7-3.9c0.4-1,1-1.9,1.9-2.8
	c1.3-1.3,3.3-2.5,6.4-3.4c3-0.9,6.6-1.4,12-1.5v3.4H36.1z M51.3,40.1v-3.3c5.4,0.1,8.9,0.6,12,1.5c3,0.9,5.1,2.1,6.4,3.4
	c0.9,0.9,1.5,1.8,1.9,2.8c0.5,1.3,0.7,2.6,0.7,3.9c0,1.1-0.2,2.5-0.9,3.9c-0.6,1.3-1.6,2.5-3.2,3.3c-1,0.5-2.3,0.8-3.9,0.8
	c-1.5,0-2.9-0.4-4.1-1c-1.3-0.6-2.4-1.5-3.4-2.5C53.2,49.5,51.3,44.9,51.3,40.1z M25,40c0.6-0.2,1,0.7,0.5,1
	c-4.1,2.7-6.3,6.3-7.4,8.6C17.9,50.2,17,50,17,49.4C16.7,43.3,21.5,40.9,25,40z M62.4,40c3.5,0.9,8.3,3.3,8,9.4
	c0,0.6-0.9,0.8-1.1,0.2c-1-2.3-3.2-5.9-7.4-8.6C61.4,40.7,61.8,39.8,62.4,40z M36.1,35.7c-4.6,0.1-8.3,0.5-11.2,1.3
	c-2.3,0.6-4.1,1.3-5.5,2.1c-2.2,1.3-3.5,2.8-4.3,4.4c-0.8,1.6-1,3.3-1,4.9c0,1.7,0.5,3.9,1.9,5.8c0.7,0.9,1.6,1.8,2.8,2.3
	c1.2,0.6,2.7,0.9,4.4,0.9c1.7,0,3.2-0.4,4.6-1.1c1.4-0.7,2.6-1.6,3.7-2.7c3.4-3.3,5.3-7.7,5.6-12.3h13.2c0.3,4.6,2.2,9.1,5.6,12.3
	c1.1,1,2.3,2,3.7,2.7s2.9,1.1,4.6,1.1c1.8,0,3.2-0.3,4.4-0.9c1.2-0.6,2.1-1.4,2.8-2.3c1.4-1.9,1.9-4.1,1.9-5.8c0-1.6-0.2-3.3-1-4.9
	c-0.8-1.6-2.1-3.2-4.3-4.4c-1.4-0.8-3.3-1.6-5.5-2.1c-2.9-0.7-6.6-1.2-11.2-1.3l0,0h-0.5h-0.5l0,0H37.2l0,0h-0.5H36.1L36.1,35.7
	L36.1,35.7z"/>
<g class="st4">
	<text transform="matrix(1 0 0 1 -0.2783 75.877)" class="st2 st5 st6">sdawes.com</text>
	<text transform="matrix(1 0 0 1 -0.2783 75.877)" class="st0 st5 st6">sdawes</text>
</g>
</svg>
