<?xml version="1.0" encoding="utf-8"?>
<!-- Generator: Adobe Illustrator 21.1.0, SVG Export Plug-In . SVG Version: 6.00 Build 0)  -->
<svg version="1.1" id="Layer_1" xmlns="http://www.w3.org/2000/svg" xmlns:xlink="http://www.w3.org/1999/xlink" x="0px" y="0px"
	 viewBox="0 0 158.7 196.3" style="enable-background:new 0 0 158.7 196.3;" xml:space="preserve">
<style type="text/css">
	.st0{fill:#2A2A2A;}
	.st1{fill:#FFFFFF;}
	.st2{fill:#C12127;}
</style>
<g>
	<path class="st0" d="M89,0c4.3,0,8.1,2.6,9.8,6.3c1.9,4.8,1,14.5,1.7,21.3c0.7,6.5,0.7,5.7,4.1,10.8c4.2,6.3,10.5,12,16.3,14.1
		c0.6,0.2,1,0.4,1.4,0.6c0,0,1.2,0.6,1.9,0.8c2.3,0.9,3.4,1.9,5.6,0.9c5.5-2.5,2.6-6.9,4.8-7.6c1.1-0.4,3-0.2,3.8,0.8
		c0.9,1.2,0.6,3.4-3.4,4.8c-0.9,0.3-1.5,1.3-2,2.2c-0.4,0.6-0.4,1-0.2,1.3c0.4,0.7,2,1.5,3.7,1.7c1.3,0,10-1,11.3,0.7
		c1,1.2,0.8,3.9-0.9,4.2c-1.6,0.5-3.5-0.8-4.8-1.5c-1.9-1-6.4-2.6-6.9-1.9c-0.5,0.7-0.1,0.7,0.6,1.4c0.8,0.7,5.4,3.4,6.2,3.9
		c1.7,0.9,4.2,1.8,3.6,4.2c-1.5,4.8-6.1-1.8-7.7-3.5c-2.3-2.4-3.8-3.6-6.3-5.5c-1.6-1.1-9.1-4-10.6-4.6l0,0l0,0l0,0
		c-0.1,0-0.2-0.1-0.2-0.1l0,0l-0.3-0.1c-5-2.2-8.9-5.5-11.6-7.6c-5.1-3.9-3.6,2.8-3,5.5c1.6,8.2,4.5,22.2,4.5,30
		c0,9.7-4.2,10.7-3.8,20c0.2,3.9-0.1,5.1,3.7,5.5c1.4,0.2,2.8,0,4.1-0.1c1,0,2.1-0.1,3.1-0.1c0.8,0.1,1.4,0.2,1.7,0.6
		c0.8,0.8,0.5,1.2-0.1,1.5s-1.3,0.2-1.9,0.1s-1.2-0.2-1.8-0.2H115c-0.1,0.1-0.2,0.1-0.3,0.2c-0.5,0.2-1,0.2-1.6,0.1
		c-0.5-0.1-1-0.1-1.4-0.2c-0.8-0.1-1.6-0.1-2.4-0.1c-1.2,0.1-2.5,0.2-3.7,0.4c-0.7,0.1-1.6,0.2-2.2,0.1c-0.8,0.1-1.7,0.1-2.1-0.3
		c-0.8-0.7,0.5-1.5,0.9-2c0.8-1.2,0.1-3.5-0.8-4.4c-1.8-1.9-2.5-1.7-4.5-1.5c-25.3,1.4-10.7,1.4-36,0c-2.1-0.1-2.8-0.3-4.5,1.5
		c-0.9,0.9-1.6,3.3-0.8,4.4c0.3,0.5,1.6,1.2,0.9,2c-0.4,0.4-1.3,0.4-2.1,0.3c-0.7,0.1-1.5,0-2.2-0.1c-1.2-0.2-2.4-0.3-3.7-0.4
		c-0.8,0-1.6,0-2.4,0.1c-0.5,0-0.9,0.1-1.4,0.2s-1,0.1-1.6-0.1c-0.1,0-0.2-0.1-0.3-0.2h-0.2c-0.6,0-1.1,0.1-1.8,0.2
		c-0.6,0.1-1.3,0.1-1.9-0.1c-0.6-0.3-0.9-0.7-0.1-1.5c0.3-0.3,1-0.5,1.7-0.6c1,0,2.1,0,3.1,0.1c1.4,0,2.8,0.2,4.1,0.1
		c3.7-0.4,3.5-1.7,3.7-5.5c0.5-9.3-3.8-10.3-3.8-20c0-7.7,3-21.7,4.5-30c0.6-2.8,2.2-9.4-3-5.5c-2.7,2-6.5,5.3-11.6,7.6l-0.3,0.1
		l0,0c0,0-0.1,0.1-0.2,0.1l0,0l0,0l0,0c-1.5,0.6-9.1,3.6-10.6,4.6c-2.6,2-4.2,3.2-6.3,5.5c-1.5,1.8-6.1,8.3-7.7,3.5
		c-0.7-2.3,1.8-3.2,3.6-4.2c0.8-0.4,5.4-3.2,6.2-3.9c0.8-0.7,1.1-0.7,0.6-1.4c-0.6-0.7-5.1,0.9-6.9,1.9c-0.9,0.5-2.8,1.8-4.3,1.3
		c-1.6-0.5-1.9-3.1-0.9-4.2c1.4-1.7,10-0.7,11.3-0.7c1.8-0.2,3.3-1,3.7-1.7c0.2-0.3,0.1-0.7-0.2-1.3c-0.5-0.9-1.1-1.8-2-2.2
		c-4-1.5-4.2-3.7-3.4-4.8c0.8-1,2.7-1.1,3.8-0.8c2.3,0.7-0.7,5.2,4.8,7.6c2.3,1,3.4,0,5.6-0.9c0.7-0.2,1.9-0.8,1.9-0.8
		c0.4-0.2,0.8-0.4,1.4-0.6c5.9-2.2,12.2-7.8,16.3-14.1c3.4-5,3.5-4.2,4.1-10.8c0.7-6.8-0.2-16.4,1.7-21.3c1.9-3.6,5.6-6.1,10-6.1
		C79.2,0,79.6,0,89,0z"/>
	<path class="st1" d="M68.4,3.5h21c4,0,7.1,3.2,7.1,7.1v21c0,4-3.2,7.1-7.1,7.1h-21c-4,0-7.1-3.2-7.1-7.1v-21
		C61.2,6.6,64.4,3.5,68.4,3.5z"/>
	<path class="st2" d="M74.1,13.2h9.4c1.8,0,3.2,1.4,3.2,3.2v9.3c0,1.8-1.4,3.2-3.2,3.2h-9.3c-1.8,0-3.2-1.4-3.2-3.2v-9.3
		C71,14.6,72.4,13.2,74.1,13.2z"/>
	<path class="st2" d="M102.9,81.5c1.1-1.8,1.6-3.6,1.7-5.3c0.1-3.1-1.3-5.9-3.5-8.6c-3.2-4-7.9-6.6-12.1-7.5c-5.3-1.1-14.7-0.8-20,1
		c-2.6,0.9-4.9,2.2-7.6,4.1c-2.4,1.8-4.2,3.9-5.6,6.1c-1.5,2.7-2.3,5.6-2.2,9.2c0,1.8,0.5,3.3,1.6,4.2c2.7,2.5,6.5,4.2,11.1,4.8
		c4.4,0.7,9.5,0.8,14.1,0.5c5.4-0.4,10.5-1.3,13.9-2.4C98.1,86.4,101.1,84.4,102.9,81.5z"/>
	<path class="st1" d="M59.1,89.6l4.6-0.2l-0.2-4.3c0-1-0.9-1.8-2-1.8h-0.9c-1,0-1.8,0.9-1.8,1.9L59.1,89.6z"/>
	<path class="st1" d="M68.5,91.3l4.6-0.2l-0.2-4.3c0-1-0.9-1.8-1.9-1.8h-0.9c-1,0-1.9,0.9-1.8,2L68.5,91.3z"/>
	<path class="st1" d="M76.8,91.4l4.6-0.2l-0.2-4.3c0-1-0.9-1.8-2-1.8h-0.9c-1,0-1.9,0.9-1.8,2L76.8,91.4z"/>
	<path class="st1" d="M84.8,90.5l4.6-0.2l-0.2-4.2c0-1-0.9-1.8-2-1.8h-0.9c-1,0-1.8,0.9-1.8,2L84.8,90.5z"/>
	<path class="st1" d="M92.1,88.8l4.6-0.2l-0.2-4.3c0-1-0.9-1.8-1.9-1.8h-1c-1,0-1.8,0.9-1.8,1.9L92.1,88.8z"/>
	<path class="st1" d="M98.5,85.2l4.6-0.2l-0.2-4.3c0-1-0.9-1.8-1.9-1.8h-0.9c-1,0-1.8,0.9-1.8,2L98.5,85.2z"/>
	<path class="st0" d="M102.7,81.4c-1.8,2.9-4.7,4.8-8.2,5.9c-3.4,1.1-8.4,2-13.7,2.4c-4.6,0.3-9.5,0.2-13.9-0.5
		c-4.3-0.7-8.2-2.4-10.8-4.7c-1-1-1.5-2.5-1.5-4.2c-0.1-3.5,0.7-6.4,2.1-9c1.3-2.3,3.2-4.2,5.4-6.1c2.6-1.9,4.9-3.2,7.4-4
		c5.1-1.8,14.2-2.1,19.6-1c4.1,0.9,8.7,3.6,11.8,7.4c2.1,2.6,3.5,5.5,3.4,8.5C104.3,77.9,103.7,79.7,102.7,81.4L102.7,81.4
		L102.7,81.4z M67.9,56.4c-3.2,1.1-5.9,2.7-8.7,4.6l-0.1,0.1L59,61.3c-2.8,2.1-5.1,4.5-6.8,7.6c-2,3.6-2.9,7.5-2.8,11.6
		c0.1,2.9,1,5.7,3.2,7.8c3.7,3.5,8.6,5.3,13.4,6.1c4.9,0.8,10.1,0.8,15,0.5c4.8-0.3,10.3-1.1,14.9-2.6c4.4-1.5,8.5-4.1,11-8.1
		c1.5-2.4,2.3-4.9,2.4-7.7c0.1-4.3-1.8-8.4-4.4-11.8c-3.6-4.4-9.1-8.1-14.7-9.2C84,54.1,73.8,54.4,67.9,56.4L67.9,56.4z"/>
</g>
<g>
	<path class="st0" d="M3,186v-31.7h11.8c2.6,0,4.9,0.4,6.9,1.2c2,0.8,3.6,2,4.9,3.4c1.3,1.4,2.3,3.1,3,5c0.7,1.9,1,4,1,6.1
		c0,2.4-0.4,4.6-1.1,6.5c-0.7,2-1.8,3.6-3.2,5s-3.1,2.5-5,3.2c-1.9,0.8-4.1,1.1-6.5,1.1H3z M23.2,170.1c0-1.4-0.2-2.7-0.6-3.8
		c-0.4-1.1-0.9-2.1-1.6-3c-0.7-0.8-1.6-1.5-2.6-1.9c-1-0.4-2.2-0.7-3.5-0.7h-4.5v18.8h4.5c1.3,0,2.5-0.2,3.6-0.7
		c1-0.5,1.9-1.1,2.6-2c0.7-0.8,1.2-1.8,1.6-3C23,172.7,23.2,171.5,23.2,170.1z"/>
	<path class="st0" d="M42.5,154.3h6.6L60.7,186h-7.5l-2.5-7.1h-9.9l-2.4,7.1h-7.5L42.5,154.3z M49.5,173.9l-3.7-11.2L42,173.9H49.5z
		"/>
	<path class="st2" d="M71.6,154.3h6.7l3.2,10.1l3.2-10.1h6.8l-5.3,14.7l3.2,8.5l7.9-23.3h8L92.7,186h-6.1l-5-12.4l-5,12.4h-6.2
		l-12.6-31.7h7.9l8,23.3l3.1-8.5L71.6,154.3z"/>
	<path class="st0" d="M130.4,179.6v6.4h-22.3v-31.7H130v6.4h-14.6v6.2H128v5.9h-12.5v6.7H130.4z"/>
	<path class="st0" d="M153.3,163.6c-0.1-0.1-0.4-0.3-0.9-0.7c-0.5-0.3-1.2-0.7-2-1c-0.8-0.4-1.7-0.7-2.6-0.9c-1-0.3-1.9-0.4-2.9-0.4
		c-2.6,0-3.9,0.9-3.9,2.6c0,0.5,0.1,1,0.4,1.3c0.3,0.4,0.7,0.7,1.2,1c0.5,0.3,1.2,0.5,2.1,0.8c0.8,0.2,1.8,0.5,2.9,0.8
		c1.5,0.4,2.9,0.9,4.1,1.4c1.2,0.5,2.3,1.1,3.1,1.8c0.8,0.7,1.5,1.6,2,2.7c0.5,1,0.7,2.3,0.7,3.8c0,1.8-0.3,3.3-1,4.5
		c-0.7,1.2-1.6,2.2-2.7,3c-1.1,0.8-2.4,1.3-3.8,1.7c-1.4,0.3-2.9,0.5-4.4,0.5c-1.2,0-2.4-0.1-3.6-0.3c-1.2-0.2-2.4-0.4-3.6-0.8
		c-1.2-0.3-2.3-0.8-3.4-1.2c-1.1-0.5-2.1-1-3-1.7l3.2-6.4c0.1,0.1,0.5,0.4,1.2,0.8c0.7,0.4,1.5,0.8,2.4,1.2c1,0.4,2,0.8,3.2,1.1
		c1.2,0.3,2.4,0.5,3.6,0.5c2.6,0,3.9-0.8,3.9-2.4c0-0.6-0.2-1.1-0.6-1.5c-0.4-0.4-0.9-0.7-1.6-1s-1.5-0.6-2.4-0.9
		c-0.9-0.3-2-0.6-3.1-0.9c-1.5-0.4-2.7-0.9-3.8-1.5c-1.1-0.5-2-1.1-2.7-1.8c-0.7-0.7-1.2-1.5-1.6-2.4c-0.3-0.9-0.5-1.9-0.5-3.1
		c0-1.7,0.3-3.1,0.9-4.4c0.6-1.3,1.5-2.4,2.5-3.2c1.1-0.9,2.3-1.5,3.7-2c1.4-0.4,2.9-0.7,4.5-0.7c1.1,0,2.2,0.1,3.3,0.3
		c1.1,0.2,2.1,0.5,3.1,0.8c1,0.3,1.9,0.7,2.7,1.1c0.8,0.4,1.6,0.8,2.3,1.2L153.3,163.6z"/>
</g>
<g>
	<path class="st0" d="M32.1,125.6c-0.1-0.1-0.4-0.3-0.9-0.7c-0.5-0.3-1.2-0.7-2-1c-0.8-0.4-1.7-0.7-2.6-0.9c-1-0.3-1.9-0.4-2.9-0.4
		c-2.6,0-3.9,0.9-3.9,2.6c0,0.5,0.1,1,0.4,1.3c0.3,0.4,0.7,0.7,1.2,1c0.6,0.3,1.2,0.5,2.1,0.8c0.8,0.2,1.8,0.5,2.9,0.8
		c1.5,0.4,2.9,0.9,4.1,1.4c1.2,0.5,2.3,1.1,3.1,1.8c0.8,0.7,1.5,1.6,2,2.7c0.5,1,0.7,2.3,0.7,3.8c0,1.8-0.3,3.3-1,4.5
		c-0.7,1.2-1.6,2.2-2.7,3c-1.1,0.8-2.4,1.3-3.8,1.7c-1.4,0.3-2.9,0.5-4.4,0.5c-1.2,0-2.4-0.1-3.6-0.3c-1.2-0.2-2.4-0.4-3.6-0.8
		c-1.2-0.3-2.3-0.8-3.4-1.2c-1.1-0.5-2.1-1-3-1.7L14,138c0.1,0.1,0.5,0.4,1.2,0.8c0.7,0.4,1.5,0.8,2.4,1.2c1,0.4,2,0.8,3.2,1.1
		c1.2,0.3,2.4,0.5,3.6,0.5c2.6,0,3.9-0.8,3.9-2.4c0-0.6-0.2-1.1-0.6-1.5c-0.4-0.4-0.9-0.7-1.6-1c-0.7-0.3-1.5-0.6-2.4-0.9
		c-0.9-0.3-2-0.6-3.1-0.9c-1.5-0.4-2.7-0.9-3.8-1.5c-1.1-0.5-2-1.1-2.7-1.8c-0.7-0.7-1.2-1.5-1.6-2.4c-0.3-0.9-0.5-1.9-0.5-3.1
		c0-1.7,0.3-3.1,0.9-4.4c0.6-1.3,1.5-2.4,2.5-3.2c1.1-0.9,2.3-1.5,3.7-2c1.4-0.4,2.9-0.7,4.5-0.7c1.1,0,2.2,0.1,3.3,0.3
		c1.1,0.2,2.1,0.5,3.1,0.8c1,0.3,1.9,0.7,2.7,1.1c0.8,0.4,1.6,0.8,2.3,1.2L32.1,125.6z"/>
	<path class="st0" d="M64.4,122.7h-9.6V148h-7.3v-25.3h-9.7v-6.4h26.7V122.7z"/>
	<path class="st0" d="M90.3,141.6v6.4H68v-31.7h21.9v6.4H75.3v6.2h12.5v5.9H75.3v6.7H90.3z"/>
	<path class="st0" d="M99.4,116.3l7.5,22.5l7.4-22.5h7.7l-12,31.7h-6.2l-12.1-31.7H99.4z"/>
	<path class="st0" d="M147.1,141.6v6.4h-22.3v-31.7h21.9v6.4h-14.6v6.2h12.5v5.9h-12.5v6.7H147.1z"/>
</g>
</svg>
