<?xml version="1.0" encoding="utf-8"?>
<!-- Generator: Adobe Illustrator 21.1.0, SVG Export Plug-In . SVG Version: 6.00 Build 0)  -->
<svg version="1.1" id="Layer_1" xmlns="http://www.w3.org/2000/svg" xmlns:xlink="http://www.w3.org/1999/xlink" x="0px" y="0px"
	 viewBox="0 0 438.2 112" style="enable-background:new 0 0 438.2 112;" xml:space="preserve">
<style type="text/css">
	.st0{fill-rule:evenodd;clip-rule:evenodd;fill:#2A2A2A;}
	.st1{fill-rule:evenodd;clip-rule:evenodd;fill:#FFFFFF;}
	.st2{fill-rule:evenodd;clip-rule:evenodd;fill:#C12127;}
	.st3{fill:#C12127;}
	.st4{fill:#2A2A2A;}
</style>
<g>
	<path class="st0" d="M79.5,0c4.4,0,8.2,2.6,9.9,6.4c1.9,4.9,1,14.7,1.7,21.6c0.7,6.6,0.7,5.8,4.1,10.9c4.2,6.4,10.6,12.1,16.5,14.3
		c0.6,0.2,1,0.4,1.4,0.6c0,0,1.2,0.6,1.9,0.8c2.3,0.9,3.4,1.9,5.7,0.9c5.6-2.5,2.6-7,4.9-7.7c1.1-0.4,3-0.2,3.8,0.8
		c0.9,1.2,0.6,3.4-3.4,4.9c-0.9,0.3-1.5,1.3-2,2.2c-0.4,0.6-0.4,1-0.2,1.3c0.4,0.7,2,1.5,3.7,1.7c1.3,0,10.1-1,11.4,0.7
		c1,1.2,0.8,3.9-0.9,4.3c-1.6,0.5-3.5-0.8-4.9-1.5c-1.9-1-6.5-2.6-7-1.9c-0.5,0.7-0.1,0.7,0.6,1.4c0.8,0.7,5.5,3.4,6.3,3.9
		c1.7,0.9,4.3,1.8,3.6,4.2c-1.5,4.9-6.2-1.8-7.8-3.5c-2.3-2.4-3.8-3.6-6.4-5.6c-1.6-1.1-9.2-4-10.7-4.7l0,0v0h0
		c-0.1,0-0.2-0.1-0.2-0.1v0l-0.3-0.1c-5.1-2.2-9-5.6-11.7-7.7c-5.2-3.9-3.6,2.8-3,5.6c1.6,8.3,4.6,22.5,4.6,30.4
		c0,9.8-4.2,10.8-3.8,20.2c0.2,3.9-0.1,5.2,3.7,5.6c1.4,0.2,2.8,0,4.1-0.1c1,0,2.1-0.1,3.1-0.1c0.8,0.1,1.4,0.2,1.7,0.6
		c0.8,0.8,0.5,1.2-0.1,1.5c-0.6,0.3-1.3,0.2-1.9,0.1c-0.6-0.1-1.2-0.2-1.8-0.2l-0.2,0c-0.1,0.1-0.2,0.1-0.3,0.2
		c-0.5,0.2-1,0.2-1.6,0.1c-0.5-0.1-1-0.1-1.4-0.2c-0.8-0.1-1.6-0.1-2.4-0.1c-1.2,0.1-2.5,0.2-3.7,0.4c-0.7,0.1-1.6,0.2-2.2,0.1
		c-0.8,0.1-1.7,0.1-2.1-0.3c-0.8-0.7,0.5-1.5,0.9-2c0.8-1.2,0.1-3.5-0.8-4.5c-1.8-1.9-2.5-1.7-4.6-1.5c-25.6,1.4-10.8,1.4-36.4,0
		c-2.1-0.1-2.8-0.3-4.6,1.5c-0.9,0.9-1.6,3.3-0.8,4.5c0.3,0.5,1.6,1.2,0.9,2c-0.4,0.4-1.3,0.4-2.1,0.3c-0.7,0.1-1.5,0-2.2-0.1
		c-1.2-0.2-2.4-0.3-3.7-0.4c-0.8,0-1.6,0-2.4,0.1c-0.5,0-0.9,0.1-1.4,0.2c-0.5,0.1-1,0.1-1.6-0.1c-0.1,0-0.2-0.1-0.3-0.2l-0.2,0
		c-0.6,0-1.1,0.1-1.8,0.2c-0.6,0.1-1.3,0.1-1.9-0.1c-0.6-0.3-0.9-0.7-0.1-1.5c0.3-0.3,1-0.5,1.7-0.6c1,0,2.1,0,3.1,0.1
		c1.4,0,2.8,0.2,4.1,0.1c3.7-0.4,3.5-1.7,3.7-5.6c0.5-9.4-3.8-10.4-3.8-20.2c0-7.8,3-22,4.6-30.4c0.6-2.8,2.2-9.5-3-5.6
		c-2.7,2-6.6,5.4-11.7,7.7l-0.3,0.1v0c0,0-0.1,0.1-0.2,0.1h0v0l0,0c-1.5,0.6-9.2,3.6-10.7,4.7c-2.6,2-4.2,3.2-6.4,5.6
		c-1.5,1.8-6.2,8.4-7.8,3.5c-0.7-2.3,1.8-3.2,3.6-4.2c0.8-0.4,5.5-3.2,6.3-3.9c0.8-0.7,1.1-0.7,0.6-1.4c-0.6-0.7-5.2,0.9-7,1.9
		C5,62.7,3.1,64,1.5,63.5c-1.6-0.5-1.9-3.1-0.9-4.3C2,57.5,10.7,58.5,12,58.5c1.8-0.2,3.3-1,3.7-1.7c0.2-0.3,0.1-0.7-0.2-1.3
		c-0.5-0.9-1.1-1.8-2-2.2c-4-1.5-4.3-3.7-3.4-4.9c0.8-1,2.7-1.1,3.8-0.8c2.3,0.7-0.7,5.3,4.9,7.7c2.3,1,3.4,0,5.7-0.9
		c0.7-0.2,1.9-0.8,1.9-0.8c0.4-0.2,0.8-0.4,1.4-0.6c6-2.2,12.3-7.9,16.5-14.3c3.4-5.1,3.5-4.3,4.1-10.9c0.7-6.9-0.2-16.6,1.7-21.6
		C52,2.6,55.8,0,60.2,0C69.6,0,70,0,79.5,0z"/>
	<path class="st1" d="M58.7,3.5h21.2c4,0,7.2,3.2,7.2,7.2v21.2c0,4-3.2,7.2-7.2,7.2H58.7c-4,0-7.2-3.2-7.2-7.2V10.7
		C51.4,6.7,54.7,3.5,58.7,3.5z"/>
	<path class="st2" d="M64.5,13.4H74c1.8,0,3.2,1.4,3.2,3.2V26c0,1.8-1.4,3.2-3.2,3.2h-9.4c-1.8,0-3.2-1.4-3.2-3.2v-9.4
		C61.3,14.8,62.8,13.4,64.5,13.4z"/>
	<path class="st2" d="M93.6,82.5c1.1-1.8,1.6-3.6,1.7-5.4c0.1-3.1-1.3-6-3.5-8.7c-3.2-4-8-6.7-12.2-7.6c-5.4-1.1-14.9-0.8-20.2,1
		c-2.6,0.9-5,2.2-7.7,4.1c-2.4,1.8-4.3,3.9-5.7,6.2c-1.5,2.7-2.3,5.7-2.2,9.3c0,1.8,0.5,3.3,1.6,4.3c2.7,2.5,6.6,4.2,11.2,4.9
		c4.5,0.7,9.6,0.8,14.3,0.5c5.5-0.4,10.6-1.3,14.1-2.4C88.8,87.4,91.8,85.4,93.6,82.5z"/>
	<path class="st1" d="M49.3,90.7l4.7-0.2l-0.2-4.4c0-1-0.9-1.8-2-1.8l-0.9,0c-1,0-1.8,0.9-1.8,1.9L49.3,90.7z"/>
	<path class="st1" d="M58.8,92.4l4.7-0.2l-0.2-4.4c0-1-0.9-1.8-1.9-1.8l-0.9,0c-1,0-1.9,0.9-1.8,2L58.8,92.4z"/>
	<path class="st1" d="M67.2,92.5l4.7-0.2l-0.2-4.4c0-1-0.9-1.8-2-1.8l-0.9,0c-1,0-1.9,0.9-1.8,2L67.2,92.5z"/>
	<path class="st1" d="M75.3,91.6l4.7-0.2l-0.2-4.3c0-1-0.9-1.8-2-1.8l-0.9,0c-1,0-1.8,0.9-1.8,2L75.3,91.6z"/>
	<path class="st1" d="M82.7,89.8l4.7-0.2l-0.2-4.4c0-1-0.9-1.8-1.9-1.8l-1,0c-1,0-1.8,0.9-1.8,1.9L82.7,89.8z"/>
	<path class="st1" d="M89.2,86.2l4.7-0.2l-0.2-4.4c0-1-0.9-1.8-1.9-1.8l-0.9,0c-1,0-1.8,0.9-1.8,2L89.2,86.2z"/>
	<path class="st0" d="M93.4,82.4c-1.8,2.9-4.8,4.9-8.3,6c-3.4,1.1-8.5,2-13.9,2.4c-4.7,0.3-9.6,0.2-14.1-0.5
		c-4.4-0.7-8.3-2.4-10.9-4.8c-1-1-1.5-2.5-1.5-4.2c-0.1-3.5,0.7-6.5,2.1-9.1c1.3-2.3,3.2-4.3,5.5-6.2c2.6-1.9,5-3.2,7.5-4
		c5.2-1.8,14.4-2.1,19.8-1c4.1,0.9,8.8,3.6,11.9,7.5c2.1,2.6,3.5,5.6,3.4,8.6C95,78.8,94.4,80.6,93.4,82.4L93.4,82.4L93.4,82.4z
		 M58.2,57.1c-3.2,1.1-6,2.7-8.8,4.7l-0.1,0.1l-0.1,0.1c-2.8,2.1-5.2,4.6-6.9,7.7c-2,3.6-2.9,7.6-2.8,11.7c0.1,2.9,1,5.8,3.2,7.9
		c3.7,3.5,8.7,5.4,13.6,6.2c5,0.8,10.2,0.8,15.2,0.5c4.9-0.3,10.4-1.1,15.1-2.6c4.5-1.5,8.6-4.1,11.1-8.2c1.5-2.4,2.3-5,2.4-7.8
		c0.1-4.4-1.8-8.5-4.5-11.9c-3.6-4.5-9.2-8.2-14.9-9.3C74.5,54.7,64.2,55,58.2,57.1L58.2,57.1z"/>
</g>
<g>
	<path class="st3" d="M161.2,58.4c1.5,0,2.9,0.3,4.1,1c1.2,0.6,2.3,1.5,3.3,2.6c0.9,1.1,1.6,2.3,2.2,3.6c0.5,1.3,0.8,2.7,0.8,4.1
		c0,1.9-0.3,3.5-1,5c-0.6,1.4-1.5,2.7-2.5,3.6s-2.3,1.7-3.6,2.2c-1.4,0.5-2.8,0.8-4.3,0.8c-1.1,0-2.2-0.2-3.2-0.6
		c-1-0.4-2-0.8-2.8-1.3V81h-5.9l-0.2-30.2l8.6-0.7l-0.3,9.7c0.8-0.4,1.5-0.8,2.2-1.1C159.1,58.5,160.1,58.4,161.2,58.4z M160.5,73.4
		c0.6-0.2,1.1-0.4,1.5-0.7c0.4-0.3,0.8-0.7,1-1.1c0.3-0.4,0.4-0.8,0.5-1.3c0.1-0.4,0-0.9-0.1-1.3c-0.1-0.4-0.3-0.8-0.6-1.2
		c-0.3-0.3-0.7-0.6-1.1-0.8c-0.4-0.2-0.9-0.3-1.5-0.4c-0.5,0-1.1,0-1.7,0.2c-0.6,0.2-1.1,0.4-1.6,0.7c-0.4,0.3-0.8,0.7-1,1.1
		c-0.3,0.4-0.4,0.8-0.5,1.3c-0.1,0.4-0.1,0.9,0.1,1.3c0.1,0.4,0.3,0.8,0.6,1.2c0.3,0.3,0.7,0.6,1.1,0.8c0.4,0.2,0.9,0.3,1.5,0.4
		C159.4,73.7,159.9,73.6,160.5,73.4z"/>
	<path class="st3" d="M191.9,78.3c-1.5,1.1-3.1,1.9-4.7,2.4c-1.6,0.5-3.4,0.7-5.5,0.7c-1.7,0-3.2-0.3-4.7-0.9
		c-1.4-0.6-2.6-1.4-3.6-2.4c-1-1-1.8-2.2-2.4-3.5c-0.6-1.3-0.9-2.8-0.9-4.2c0-1.9,0.3-3.5,0.9-5c0.6-1.5,1.4-2.7,2.4-3.7
		c1-1,2.2-1.8,3.6-2.3c1.4-0.5,2.8-0.8,4.4-0.8c2.5,0,4.7,0.6,6.5,1.9c1.8,1.3,3.2,3,4.1,5.1l-11.2,8.4c0.3,0.1,0.6,0.2,1.1,0.3
		c0.4,0.1,0.9,0.1,1.2,0.1c1.1,0,2.1-0.2,2.9-0.6s1.5-0.9,2.2-1.5L191.9,78.3z M183.9,66c-0.3-0.4-0.7-0.7-1.1-0.9
		c-0.4-0.1-0.9-0.2-1.4-0.2c-0.5,0-1,0.1-1.4,0.3c-0.4,0.2-0.8,0.5-1.1,0.9c-0.3,0.4-0.5,0.8-0.7,1.2c-0.2,0.4-0.2,0.9-0.2,1.4
		c0,0.4,0,0.8,0.1,1c0.1,0.2,0.1,0.4,0.2,0.6L183.9,66z"/>
	<path class="st3" d="M216.5,67.7c0-0.5-0.2-0.9-0.5-1.2c-0.3-0.3-0.8-0.4-1.4-0.4c-0.6,0-1.1,0.2-1.4,0.6c-0.3,0.4-0.5,0.8-0.5,1.2
		l0.2,12.8l-8.1,0.7l0.1-13.5c0-0.5-0.1-0.9-0.5-1.2c-0.4-0.3-0.9-0.5-1.5-0.5c-0.5,0-0.9,0.1-1.3,0.4s-0.6,0.7-0.6,1.3l0.4,13.5
		l-7.9-0.7L193,59.4l7.6-0.7v3.4h0.1c0.8-1.1,1.7-1.9,2.7-2.5c1-0.6,2.2-0.9,3.6-0.9c1.2,0,2.2,0.2,2.9,0.5c0.8,0.4,1.5,0.9,2.2,1.7
		c0.6-0.7,1.4-1.2,2.2-1.6c0.8-0.4,1.7-0.6,2.7-0.6c1.1,0,2.1,0.2,3,0.6c0.9,0.4,1.6,0.9,2.2,1.6c0.6,0.7,1,1.5,1.3,2.5
		c0.3,0.9,0.5,1.9,0.5,3l0.2,14.3l-8.1,0.7L216.5,67.7z"/>
	<path class="st3" d="M249.8,67.7c0-0.5-0.2-0.9-0.5-1.2c-0.3-0.3-0.8-0.4-1.4-0.4c-0.6,0-1.1,0.2-1.4,0.6c-0.3,0.4-0.5,0.8-0.5,1.2
		l0.2,12.8l-8.1,0.7l0.1-13.5c0-0.5-0.1-0.9-0.5-1.2c-0.4-0.3-0.9-0.5-1.5-0.5c-0.5,0-0.9,0.1-1.3,0.4s-0.6,0.7-0.6,1.3l0.4,13.5
		l-7.9-0.7l-0.4-21.3l7.6-0.7v3.4h0.1c0.8-1.1,1.7-1.9,2.7-2.5c1-0.6,2.2-0.9,3.6-0.9c1.2,0,2.2,0.2,2.9,0.5
		c0.8,0.4,1.5,0.9,2.2,1.7c0.6-0.7,1.4-1.2,2.2-1.6c0.8-0.4,1.7-0.6,2.7-0.6c1.1,0,2.1,0.2,3,0.6c0.9,0.4,1.6,0.9,2.2,1.6
		c0.6,0.7,1,1.5,1.3,2.5c0.3,0.9,0.5,1.9,0.5,3l0.2,14.3l-8.1,0.7L249.8,67.7z"/>
	<path class="st3" d="M260.1,50.4l8.6-0.4l-0.4,6.6l-8.2,0.6L260.1,50.4z M260.2,59.9l8.3-0.7l-0.4,21.6l-7.9,0.7V59.9z"/>
	<path class="st3" d="M291.4,78.3c-1.5,1.1-3.1,1.9-4.7,2.4c-1.6,0.5-3.4,0.7-5.5,0.7c-1.7,0-3.2-0.3-4.7-0.9
		c-1.4-0.6-2.6-1.4-3.6-2.4c-1-1-1.8-2.2-2.4-3.5c-0.6-1.3-0.9-2.8-0.9-4.2c0-1.9,0.3-3.5,0.9-5c0.6-1.5,1.4-2.7,2.4-3.7
		c1-1,2.2-1.8,3.6-2.3c1.4-0.5,2.8-0.8,4.4-0.8c2.5,0,4.7,0.6,6.5,1.9c1.8,1.3,3.2,3,4.1,5.1l-11.2,8.4c0.3,0.1,0.6,0.2,1.1,0.3
		c0.4,0.1,0.9,0.1,1.2,0.1c1.1,0,2.1-0.2,2.9-0.6c0.8-0.4,1.5-0.9,2.2-1.5L291.4,78.3z M283.4,66c-0.3-0.4-0.7-0.7-1.1-0.9
		c-0.4-0.1-0.9-0.2-1.4-0.2c-0.5,0-1,0.1-1.4,0.3c-0.4,0.2-0.8,0.5-1.1,0.9c-0.3,0.4-0.5,0.8-0.7,1.2c-0.2,0.4-0.2,0.9-0.2,1.4
		c0,0.4,0,0.8,0.1,1c0.1,0.2,0.1,0.4,0.2,0.6L283.4,66z"/>
	<path class="st4" d="M316,67.7c0-0.5-0.2-0.9-0.5-1.2s-0.8-0.4-1.4-0.4c-0.6,0-1.1,0.2-1.4,0.6c-0.3,0.4-0.5,0.8-0.5,1.2l0.2,12.8
		l-8.1,0.7l0.1-13.5c0-0.5-0.1-0.9-0.5-1.2c-0.4-0.3-0.9-0.5-1.5-0.5c-0.5,0-0.9,0.1-1.3,0.4c-0.4,0.3-0.6,0.7-0.6,1.3l0.4,13.5
		l-7.9-0.7l-0.4-21.3l7.6-0.7v3.4h0.1c0.8-1.1,1.7-1.9,2.7-2.5c1-0.6,2.2-0.9,3.6-0.9c1.2,0,2.2,0.2,2.9,0.5
		c0.8,0.4,1.5,0.9,2.2,1.7c0.6-0.7,1.4-1.2,2.2-1.6s1.7-0.6,2.7-0.6c1.1,0,2.1,0.2,3,0.6c0.9,0.4,1.6,0.9,2.2,1.6
		c0.6,0.7,1,1.5,1.3,2.5c0.3,0.9,0.5,1.9,0.5,3l0.2,14.3l-8.1,0.7L316,67.7z"/>
	<path class="st4" d="M348.1,68.2c0.2,1.7,0.2,3.3-0.2,4.8c-0.4,1.5-1.1,2.8-2,3.9c-0.9,1.1-2,2.1-3.4,2.8c-1.4,0.7-2.9,1.2-4.5,1.4
		s-3.3,0.2-4.8-0.1c-1.5-0.3-2.9-0.9-4.1-1.7c-1.2-0.8-2.2-1.9-3-3.2c-0.8-1.3-1.3-2.8-1.5-4.5c-0.2-1.7-0.2-3.3,0.2-4.8
		c0.4-1.5,1.1-2.8,2-3.9c0.9-1.1,2-2.1,3.4-2.8c1.4-0.7,2.9-1.2,4.5-1.4s3.3-0.2,4.8,0.1c1.5,0.3,2.9,0.9,4.1,1.7
		c1.2,0.8,2.2,1.9,3,3.2C347.4,65,347.9,66.5,348.1,68.2z M332.4,71.4c0.4,1,1.1,1.6,2,1.9c0.9,0.3,2,0.2,3.1-0.3
		c1.1-0.5,1.9-1.2,2.4-2c0.4-0.9,0.5-1.8,0.1-2.8c-0.4-0.9-1.1-1.6-2-1.9c-0.9-0.3-2-0.2-3.1,0.3c-1.2,0.5-2,1.2-2.4,2.1
		C332,69.5,332,70.4,332.4,71.4z"/>
	<path class="st4" d="M356.7,61.8h0.1c0.8-1.1,1.7-1.9,2.5-2.3c0.9-0.4,1.8-0.6,2.8-0.6c1,0,2,0.2,2.8,0.6c0.8,0.4,1.5,0.9,2,1.6
		c0.5,0.7,1,1.5,1.3,2.4c0.3,0.9,0.4,1.9,0.4,2.9v14.5l-8.1,0.7l0.1-13.6c0-0.4-0.1-0.8-0.5-1.1c-0.4-0.3-0.8-0.4-1.3-0.4
		c-0.5,0-0.9,0.1-1.3,0.4s-0.6,0.7-0.6,1.2l0.1,13.5l-8-0.6L349,59.6l7.8-0.6V61.8z"/>
	<path class="st4" d="M372.6,74.1c0.7,0.1,1.4,0.2,2.2,0.2c0.3,0,0.7,0,1.1,0c0.4,0,0.7,0,1-0.1c0.3-0.1,0.6-0.2,0.8-0.3
		c0.2-0.1,0.3-0.4,0.3-0.7c0-0.4-0.2-0.7-0.6-0.8c-0.4-0.2-0.9-0.4-1.4-0.5c-0.6-0.2-1.2-0.4-1.9-0.6c-0.7-0.2-1.3-0.6-1.9-1
		c-0.6-0.5-1-1.1-1.4-1.9c-0.4-0.8-0.6-1.8-0.6-3c0-0.8,0.2-1.6,0.5-2.4c0.3-0.8,0.8-1.5,1.6-2.2c0.7-0.6,1.7-1.2,2.8-1.6
		c1.1-0.4,2.5-0.6,4.2-0.6c0.6,0,1.2,0,1.9,0.1c0.6,0.1,1.2,0.1,1.8,0.2c0.6,0.1,1.1,0.2,1.6,0.3c0.5,0.1,0.9,0.2,1.2,0.2v6.6
		c-0.6-0.1-1.2-0.3-1.8-0.4c-0.6-0.1-1.2-0.1-1.9-0.1c-0.2,0-0.4,0-0.7,0c-0.3,0-0.6,0.1-1,0.1c-0.3,0.1-0.6,0.2-0.9,0.3
		c-0.2,0.1-0.4,0.3-0.4,0.6c0,0.4,0.2,0.7,0.6,0.9c0.4,0.2,0.9,0.4,1.5,0.6c0.6,0.2,1.2,0.4,1.9,0.6c0.7,0.2,1.3,0.6,1.9,1.1
		c0.6,0.5,1.1,1.1,1.5,1.9c0.4,0.8,0.6,1.8,0.6,3c0,1.3-0.3,2.5-0.9,3.4c-0.6,0.9-1.4,1.6-2.3,2.2c-1,0.5-2.1,0.9-3.3,1.1
		c-1.2,0.2-2.5,0.3-3.9,0.3c-1,0-2.1-0.1-3.1-0.2c-1-0.1-2-0.3-3-0.6v-7C371.2,73.9,371.9,74,372.6,74.1z"/>
	<path class="st4" d="M397.9,81.4c-0.4,0-0.8,0-1.2,0c-2.4,0-4.3-0.5-5.6-1.6c-1.3-1.1-2-2.8-2-5.3v-8.9l-2.1,0l0.2-6.5h1.8v-2.5
		l8.1-3.7v6.1l3-0.4l-0.4,6.9h-2.5v6.5c0,0.7,0.1,1.2,0.3,1.5c0.2,0.2,0.7,0.4,1.4,0.4c0.3,0,0.6,0,0.8,0c0.2,0,0.4-0.1,0.6-0.1
		l-1.3,7.4C398.6,81.4,398.2,81.4,397.9,81.4z"/>
	<path class="st4" d="M421.9,78.3c-1.5,1.1-3.1,1.9-4.7,2.4c-1.6,0.5-3.4,0.7-5.5,0.7c-1.7,0-3.2-0.3-4.7-0.9
		c-1.4-0.6-2.6-1.4-3.6-2.4c-1-1-1.8-2.2-2.4-3.5c-0.6-1.3-0.9-2.8-0.9-4.2c0-1.9,0.3-3.5,0.9-5c0.6-1.5,1.4-2.7,2.4-3.7
		c1-1,2.2-1.8,3.6-2.3c1.4-0.5,2.8-0.8,4.4-0.8c2.5,0,4.7,0.6,6.5,1.9c1.8,1.3,3.2,3,4.1,5.1l-11.2,8.4c0.3,0.1,0.6,0.2,1.1,0.3
		c0.4,0.1,0.9,0.1,1.2,0.1c1.1,0,2.1-0.2,2.9-0.6s1.5-0.9,2.2-1.5L421.9,78.3z M413.9,66c-0.3-0.4-0.7-0.7-1.1-0.9
		c-0.4-0.1-0.9-0.2-1.4-0.2c-0.5,0-1,0.1-1.4,0.3c-0.4,0.2-0.8,0.5-1.1,0.9c-0.3,0.4-0.5,0.8-0.7,1.2c-0.2,0.4-0.2,0.9-0.2,1.4
		c0,0.4,0,0.8,0.1,1c0.1,0.2,0.1,0.4,0.2,0.6L413.9,66z"/>
	<path class="st4" d="M430.6,58.7v4.2h0.1c0.6-2.8,2.5-4.2,5.6-4.2c0.7,0,1.3,0,1.9,0.1l-1.9,8c-0.2,0-0.4,0-0.6,0
		c-0.2,0-0.4,0-0.7,0c-1,0-2,0.3-2.7,1s-1.1,1.8-1.1,3.2v9.6l-7.9,0.7L423,59.4L430.6,58.7z"/>
</g>
</svg>
