
<svg width="87px" height="75px" viewBox="0 0 87 75" version="1.1" xmlns="http://www.w3.org/2000/svg" xmlns:xlink="http://www.w3.org/1999/xlink">
    <!-- Generator: Sketch 44.1 (41455) - http://www.bohemiancoding.com/sketch -->
    <desc>Created with Sketch.</desc>
    <defs></defs>
    <g id="Page-1" stroke="none" stroke-width="1" fill="none" fill-rule="evenodd">
        <path d="M74.7215074,48.7992211 C74.7215074,42.0733985 71.3450588,34 46.4448971,34 L40.2756618,34 C15.3755,34 12,42.0733985 12,48.7992211 C12,52.6588665 14.2151324,59.1657516 22.4284485,59.1657516 C32.6981765,59.1657516 35.7821618,49.9586377 38.3776544,46.292863 C40.3148677,43.5574138 43.3602794,43.3594182 43.3602794,43.3594182 C43.3602794,43.3594182 46.4066397,43.5574138 48.3435368,46.292863 C50.9390294,49.9586377 54.0223824,59.1657516 64.2921103,59.1657516 C72.5060588,59.1657516 74.7215074,52.6588665 74.7215074,48.7992211" id="Fill-4" fill="#323C46" fill-rule="nonzero"></path>
        <polygon id="Fill-5" fill="#323C46" fill-rule="nonzero" points="0 52.4125688 12.8149485 52.4125688 12.8149485 49 0 49"></polygon>
        <polygon id="Fill-6" fill="#323C46" fill-rule="nonzero" points="74 52.4125688 86.8143162 52.4125688 86.8143162 49 74 49"></polygon>
        <polyline id="Fill-7" fill="#3C3C3A" fill-rule="nonzero" points="36 38 50.1640736 38 36 38"></polyline>
        <polyline id="Fill-8" fill="#3C3C3A" fill-rule="nonzero" points="36 41 50.1640736 41 36 41"></polyline>
        <path d="M49.1557206,0.333562158 C45.5639559,-0.120812417 40.4535956,-0.101457075 37,0.333562158 L37,31.7123784 C41.0356765,31.6457453 45.1181471,31.6473318 49.1557206,31.7123784 L49.1557206,0.333562158" id="Fill-9" fill="#ED4E58" fill-rule="nonzero"></path>
        <path d="M83.8029927,48.4643742 C84.1634339,44.9696245 84.3379633,41.7179271 84.3379633,38.8549231 C84.3379633,18.6990319 69.998728,4.17776632 51,1 L51,32.1427445 C65.2924412,32.5241399 76.1844045,34.8198103 77.6128897,48.4643742 L83.8029927,48.4643742" id="Fill-10" fill="#323C46" fill-rule="nonzero"></path>
        <path d="M78.2870882,54 C78.2387132,55.4538717 78.1448088,56.9972223 78,58.6126 L82.8994706,58.6126 C83.1919338,57.051798 83.4477206,55.5122551 83.6737868,54 L78.2870882,54" id="Fill-11" fill="#323C46" fill-rule="nonzero"></path>
        <path d="M2,38.8549231 C2,41.7179271 2.17231617,44.9696245 2.52959559,48.4643742 L8.7253897,48.4643742 C10.1532426,34.8198103 21.0458382,32.5241399 35.3382795,32.1427445 L35.3382795,1 C16.3395514,4.17776632 2,18.6990319 2,38.8549231" id="Fill-12" fill="#323C46" fill-rule="nonzero"></path>
        <path d="M3,54 C3.22385294,55.5122551 3.47805882,57.051798 3.76830882,58.6126 L8.68295588,58.6126 C8.53972794,56.9972223 8.44677206,55.4538717 8.39871324,54 L3,54" id="Fill-13" fill="#323C46" fill-rule="nonzero"></path>
        <path d="M35.9679412,40.3974701 C35.9679412,45.1934699 34.1075588,49.8362134 30.6726176,53.1466114 C29.6475735,54.1340512 28.492897,55.0148779 27.2266103,55.645037 C25.9600073,56.2745616 24.5859044,56.6562743 23.0979779,56.6562743 C21.482,56.6562743 20.1907353,56.3380217 19.1517794,55.8274849 C17.5965073,55.0608865 16.5869559,53.8535574 15.951125,52.5361249 C15.316875,51.2212309 15.0727868,49.7975028 15.0737353,48.6859985 C15.0737353,47.3774505 15.2349853,46.0320956 15.7519338,44.7470278 C16.1401985,43.7824338 16.7267059,42.8486179 17.6123162,41.9731853 C18.9399412,40.6605124 20.9549338,39.475077 24.0009779,38.5983752 C27.0460735,37.7219908 30.571125,37.1679838 35.9679412,37.09437 L35.9679412,40.3974701 Z M51.2054338,40.3974701 L51.2054338,37.09437 C56.60225,37.1679838 60.1269853,37.7219908 63.1720809,38.5983752 C66.2174926,39.475077 68.2324853,40.6605124 69.5607426,41.9731853 C70.4466691,42.8486179 71.0325441,43.7824338 71.421125,44.7470278 C71.9374412,46.0320956 72.0993235,47.3774505 72.0993235,48.6859985 C72.100272,49.7975028 71.8558676,51.2212309 71.2219338,52.5361249 C70.5857868,53.8535574 69.5765515,55.0608865 68.0212794,55.8274849 C66.9816912,56.3380217 65.6910588,56.6562743 64.0744485,56.6562743 C62.5868382,56.6562743 61.2127353,56.2745616 59.9458162,55.645037 C58.6801618,55.0148779 57.5248529,54.1340512 56.500125,53.1466114 C53.0651838,49.8362134 51.2054338,45.1934699 51.2054338,40.3974701 Z M24.8850073,40.3057702 C25.5221029,40.1379181 25.9113162,40.9971684 25.357375,41.3550836 C21.2094559,44.0375435 19.0107647,47.6957031 17.9718088,49.9555185 C17.7201323,50.5050833 16.8952279,50.3492886 16.8658235,49.7461001 C16.5733603,43.6231488 21.3735515,41.2335574 24.8850073,40.3057702 Z M62.2880515,40.3057702 C65.7998235,41.2335574 70.5996985,43.6231488 70.3069191,49.7461001 C70.2787794,50.3492886 69.4529265,50.5050833 69.2006176,49.9555185 C68.1626103,47.6957031 65.9629706,44.0375435 61.8153676,41.3550836 C61.2611103,40.9971684 61.6506397,40.1379181 62.2880515,40.3057702 Z M35.9581397,36.0164996 C31.3565073,36.1088341 27.7034044,36.5581319 24.7986912,37.2711065 C22.5367647,37.8273346 20.7276029,38.5437995 19.2826765,39.3817906 C17.1159191,40.6357629 15.7724853,42.1746712 14.9950073,43.8005199 C14.2165809,45.4254167 14,47.116312 14,48.6859985 C14.0022132,50.368644 14.473,52.5948256 15.85975,54.452621 C16.553125,55.3788217 17.4801544,56.2060246 18.6797279,56.7946174 C19.8774044,57.3847966 21.3416176,57.7341447 23.0979779,57.7341447 C24.7708676,57.7341447 26.3150735,57.3019812 27.7040368,56.6102657 C29.0936323,55.9185502 30.3308309,54.968552 31.4165809,53.9233635 C34.7882868,50.6723007 36.7242353,46.2323123 37.0056323,41.5829054 L50.1671103,41.5829054 C50.4491397,46.2323123 52.3841397,50.6723007 55.7564779,53.9233635 C56.8415956,54.968552 58.0791103,55.9185502 59.469022,56.6102657 C60.8579853,57.3019812 62.401875,57.7341447 64.0744485,57.7341447 C65.831125,57.7341447 67.295022,57.3847966 68.493647,56.7946174 C69.692272,56.2060246 70.6196176,55.3788217 71.3133088,54.452621 C72.7000588,52.5948256 73.1705294,50.368644 73.1730588,48.6859985 C73.1730588,47.116312 72.9564779,45.4254167 72.1774191,43.8005199 C71.4002573,42.1746712 70.0565073,40.6357629 67.88975,39.3817906 C66.4454559,38.5437995 64.6362941,37.8273346 62.3737353,37.2711065 C59.469022,36.5581319 55.8159191,36.1088341 51.2142868,36.0164996 L51.2142868,36.0076152 L50.675522,36.0076152 L50.1313823,36 L50.1313823,36.0076152 L37.0413603,36.0076152 L37.0413603,36 L36.4969044,36.0076152 L35.9581397,36.0076152 L35.9581397,36.0164996 L35.9581397,36.0164996 Z" id="Fill-14" fill="#FFFFFF" fill-rule="nonzero"></path>
        <text id="PODEG-DESIGN" font-family="Raleway-Bold, Raleway" font-size="10" font-weight="bold" fill="#323C46">
            <tspan x="6.825" y="73.6126">PODEG DESIGN</tspan>
        </text>
    </g>
</svg>