<?xml version="1.0" encoding="UTF-8" standalone="no"?>
<!DOCTYPE svg PUBLIC "-//W3C//DTD SVG 1.1//EN" "http://www.w3.org/Graphics/SVG/1.1/DTD/svg11.dtd">
<svg width="100%" height="100%" viewBox="0 0 1512 1241" version="1.1" xmlns="http://www.w3.org/2000/svg" xmlns:xlink="http://www.w3.org/1999/xlink" xml:space="preserve" style="fill-rule:evenodd;clip-rule:evenodd;stroke-linejoin:round;stroke-miterlimit:1.41421;">
    <g transform="matrix(10.8209,0,0,11.0666,-85.2705,-513.219)">
        <g>
            <g>
                <path d="M87.318,46.397C91.726,46.397 95.531,49.028 97.233,52.798C99.152,57.741 98.273,67.473 98.98,74.384C99.656,81.004 99.704,80.15 103.114,85.287C107.36,91.675 113.679,97.399 119.664,99.562C120.218,99.765 120.671,99.962 121.066,100.116C121.066,100.116 122.315,100.684 122.972,100.93C125.306,101.793 126.416,102.809 128.707,101.801C134.338,99.34 131.31,94.788 133.596,94.067C134.72,93.705 136.629,93.83 137.407,94.843C138.289,96.004 138.039,98.251 134.017,99.741C133.076,100.084 132.541,101.033 132.011,101.904C131.647,102.518 131.606,102.942 131.791,103.243C132.208,103.898 133.741,104.75 135.501,104.903C136.777,104.935 145.564,103.878 146.92,105.569C147.914,106.805 147.69,109.442 146.045,109.896C144.418,110.351 142.514,109.138 141.136,108.444C139.279,107.482 134.646,105.862 134.09,106.583C133.576,107.258 133.948,107.258 134.72,107.955C135.496,108.647 140.209,111.383 141.003,111.807C142.751,112.756 145.305,113.646 144.569,115.982C143.029,120.839 138.32,114.202 136.809,112.451C134.519,110.057 133.003,108.841 130.369,106.827C128.812,105.75 121.188,102.794 119.655,102.155L119.634,102.147L119.634,102.14L119.627,102.14C119.543,102.106 119.476,102.079 119.44,102.056L119.44,102.052L119.182,101.941C114.056,99.726 110.142,96.306 107.446,94.28C102.274,90.388 103.894,97.037 104.452,99.871C106.051,108.207 109.092,122.377 109.092,130.223C109.092,140.062 104.851,141.065 105.341,150.418C105.544,154.334 105.289,155.63 109.029,156.066C110.415,156.23 111.787,156.043 113.168,156.001C114.201,155.963 115.234,155.951 116.272,155.951C117.052,156.043 117.667,156.185 118.007,156.515C118.797,157.274 118.469,157.743 117.884,158.014C117.257,158.288 116.626,158.264 115.989,158.143C115.361,158.029 114.792,157.96 114.234,157.919L114.022,157.895C113.94,157.973 113.836,158.035 113.72,158.083C113.206,158.316 112.684,158.296 112.161,158.195C111.645,158.106 111.177,158.046 110.716,158.014C109.945,157.952 109.148,157.923 108.343,157.93C107.095,158.014 105.859,158.143 104.675,158.308C103.928,158.415 103.104,158.509 102.451,158.383C101.636,158.48 100.778,158.509 100.342,158.09C99.586,157.354 100.879,156.584 101.216,156.111C102.039,154.948 101.323,152.581 100.445,151.641C98.681,149.784 97.942,149.982 95.88,150.097C70.24,151.51 85.124,151.51 59.484,150.097C57.422,149.982 56.683,149.784 54.919,151.641C54.042,152.581 53.325,154.948 54.147,156.111C54.485,156.584 55.777,157.354 55.022,158.09C54.586,158.509 53.728,158.48 52.914,158.383C52.261,158.509 51.436,158.415 50.689,158.308C49.505,158.143 48.269,158.014 47.022,157.93C46.216,157.923 45.419,157.952 44.648,158.014C44.187,158.046 43.719,158.106 43.203,158.195C42.681,158.296 42.158,158.316 41.644,158.083C41.528,158.035 41.424,157.973 41.342,157.895L41.129,157.919C40.572,157.96 40.003,158.029 39.375,158.143C38.737,158.264 38.107,158.288 37.481,158.014C36.895,157.743 36.567,157.274 37.357,156.515C37.697,156.185 38.312,156.043 39.091,155.951C40.13,155.951 41.163,155.963 42.196,156.001C43.578,156.043 44.95,156.23 46.335,156.066C50.075,155.63 49.82,154.334 50.023,150.418C50.514,141.065 46.272,140.062 46.272,130.223C46.272,122.377 49.313,108.207 50.913,99.871C51.47,97.037 53.09,90.388 47.918,94.28C45.222,96.306 41.308,99.726 36.182,101.941L35.923,102.052L35.923,102.056C35.888,102.079 35.821,102.106 35.737,102.14L35.73,102.14L35.73,102.147L35.71,102.155C34.176,102.794 26.553,105.75 24.996,106.827C22.361,108.841 20.845,110.057 18.556,112.451C17.043,114.202 12.335,120.839 10.795,115.982C10.059,113.646 12.613,112.756 14.361,111.807C15.154,111.383 19.868,108.647 20.644,107.955C21.416,107.258 21.789,107.258 21.274,106.583C20.718,105.862 16.085,107.482 14.228,108.444C12.85,109.138 10.946,110.351 9.319,109.896C7.674,109.442 7.45,106.805 8.444,105.569C9.8,103.878 18.587,104.935 19.863,104.903C21.623,104.75 23.155,103.898 23.573,103.243C23.758,102.942 23.717,102.518 23.353,101.904C22.824,101.033 22.289,100.084 21.347,99.741C17.325,98.251 17.075,96.004 17.958,94.843C18.735,93.83 20.644,93.705 21.768,94.067C24.054,94.788 21.026,99.34 26.657,101.801C28.949,102.809 30.058,101.793 32.393,100.93C33.049,100.684 34.298,100.116 34.298,100.116C34.693,99.962 35.146,99.765 35.7,99.562C41.685,97.399 48.004,91.675 52.25,85.287C55.66,80.15 55.708,81.004 56.383,74.384C57.09,67.473 56.211,57.741 58.13,52.798C59.833,49.028 63.638,46.397 68.046,46.397C77.469,46.397 77.894,46.397 87.318,46.397Z" style="fill:rgb(42,42,42);"/>
                <path d="M66.502,49.883L87.72,49.883C91.691,49.883 94.94,53.132 94.94,57.103L94.94,78.322C94.94,82.293 91.691,85.542 87.72,85.542L66.502,85.542C62.531,85.542 59.282,82.293 59.282,78.322L59.282,57.103C59.282,53.132 62.531,49.883 66.502,49.883Z" style="fill:white;"/>
                <path d="M72.396,59.789L81.826,59.789C83.591,59.789 85.035,61.232 85.035,62.997L85.035,72.428C85.035,74.192 83.591,75.636 81.826,75.636L72.396,75.636C70.631,75.636 69.187,74.192 69.187,72.428L69.187,62.997C69.187,61.232 70.631,59.789 72.396,59.789Z" style="fill:rgb(42,42,42);"/>
                <path d="M101.452,128.889C102.57,127.067 103.086,125.276 103.131,123.525C103.201,120.439 101.817,117.49 99.655,114.835C96.441,110.863 91.67,108.087 87.467,107.22C82.03,106.107 72.616,106.39 67.315,108.227C64.752,109.114 62.348,110.429 59.648,112.316C57.232,114.15 55.315,116.194 53.993,118.539C52.487,121.203 51.732,124.241 51.804,127.801C51.838,129.592 52.3,131.103 53.363,132.089C56.033,134.563 59.991,136.277 64.518,136.966C69.051,137.669 74.095,137.746 78.851,137.421C84.365,137.05 89.481,136.118 92.984,134.989C96.602,133.819 99.663,131.798 101.452,128.889Z" style="fill:rgb(193,33,39);"/>
                <path d="M57.165,137.05L61.856,136.853L61.691,132.497C61.645,131.466 60.767,130.659 59.729,130.698L58.793,130.743C57.764,130.774 56.947,131.656 56.991,132.687L57.165,137.05Z" style="fill:white;"/>
                <path d="M66.674,138.82L71.365,138.641L71.194,134.285C71.152,133.262 70.272,132.447 69.245,132.478L68.306,132.515C67.267,132.563 66.452,133.441 66.495,134.468L66.674,138.82Z" style="fill:white;"/>
                <path d="M75.025,138.87L79.726,138.687L79.554,134.327C79.512,133.295 78.636,132.478 77.598,132.524L76.666,132.566C75.626,132.607 74.816,133.492 74.861,134.522L75.025,138.87Z" style="fill:white;"/>
                <path d="M83.123,138.025L87.822,137.839L87.646,133.491C87.604,132.458 86.732,131.645 85.687,131.682L84.754,131.725C83.721,131.77 82.912,132.639 82.955,133.677L83.123,138.025Z" style="fill:white;"/>
                <path d="M90.516,136.238L95.211,136.043L95.043,131.692C94.994,130.659 94.129,129.846 93.094,129.891L92.14,129.937C91.124,129.971 90.308,130.85 90.351,131.882L90.516,136.238Z" style="fill:white;"/>
                <path d="M97.096,132.639L101.787,132.454L101.612,128.102C101.565,127.067 100.698,126.255 99.663,126.292L98.719,126.329C97.694,126.368 96.877,127.25 96.922,128.284L97.096,132.639Z" style="fill:white;"/>
                <path d="M66.04,103.546C62.854,104.66 60.021,106.295 57.271,108.227L57.206,108.292L57.126,108.346C54.344,110.466 51.929,112.992 50.207,116.071C48.178,119.705 47.33,123.667 47.409,127.817C47.475,130.763 48.364,133.631 50.563,135.683C54.249,139.144 59.277,141.074 64.201,141.846C69.165,142.603 74.391,142.672 79.39,142.334C84.314,141.995 89.781,141.23 94.485,139.7C98.979,138.229 103.059,135.568 105.559,131.474C107.032,129.082 107.88,126.445 107.946,123.629C108.057,119.198 106.15,115.109 103.422,111.712C99.795,107.188 94.215,103.558 88.517,102.374C82.381,101.118 72.088,101.434 66.04,103.547L66.04,103.546ZM101.206,128.809C99.449,131.682 96.441,133.681 92.897,134.839C89.472,135.958 84.444,136.871 79.038,137.243C74.377,137.559 69.44,137.472 64.984,136.788C60.549,136.099 56.671,134.416 54.065,131.962C53.018,130.983 52.559,129.493 52.529,127.713C52.454,124.198 53.195,121.191 54.677,118.563C55.972,116.244 57.84,114.223 60.22,112.411C62.861,110.554 65.203,109.26 67.716,108.38C72.909,106.569 82.151,106.282 87.482,107.377C91.608,108.236 96.277,110.986 99.43,114.914C101.546,117.542 102.915,120.466 102.842,123.51C102.804,125.246 102.294,127.017 101.206,128.809Z" style="fill:rgb(42,42,42);"/>
            </g>
        </g>
    </g>
</svg>
