<?xml version="1.0" encoding="utf-8"?>
<!-- Generator: Adobe Illustrator 21.1.0, SVG Export Plug-In . SVG Version: 6.00 Build 0)  -->
<svg version="1.1" id="Layer_1" xmlns="http://www.w3.org/2000/svg" xmlns:xlink="http://www.w3.org/1999/xlink" x="0px" y="0px"
	 viewBox="0 0 247.8 317.7" style="enable-background:new 0 0 247.8 317.7;" xml:space="preserve">
<style type="text/css">
	.st0{opacity:0.2;fill:#231F20;}
	.st1{filter:url(#Adobe_OpacityMaskFilter);}
	.st2{fill:url(#SVGID_2_);}
	.st3{mask:url(#SVGID_1_);fill:#0B9C68;}
	.st4{fill:url(#SVGID_3_);}
	.st5{fill:#332D2F;}
	.st6{fill:#ED1C24;}
	.st7{fill:#FEFFFF;}
	.st8{fill:#B3151B;}
	.st9{fill:#ED5C62;}
	.st10{opacity:0.4;fill:#231F20;}
	.st11{fill:#FFF200;}
	.st12{fill:#FFE3C2;}
	.st13{opacity:0.1;fill:#231F20;}
	.st14{fill:#303842;}
	.st15{fill:#363F4A;}
	.st16{fill:#FFEEDB;}
	.st17{fill:url(#SVGID_4_);}
	.st18{opacity:0.2;}
	.st19{fill:#231F20;}
	.st20{fill:#919396;}
	.st21{fill:#B6B9BD;}
	.st22{fill:#DADEE3;}
	.st23{fill:#636466;}
	.st24{fill:#CCCFD4;}
	.st25{fill:#424345;}
</style>
<g>
	<path class="st0" d="M124.6,317.7c-46.2-0.1-107.8-6.9-108.1-16.4c-0.3-9.8,64.9-22.3,124.9-21.6c47.6,0.5,104.6,9.4,104.3,18.6
		C245.5,308.1,180,317.8,124.6,317.7z"/>
	<g>
		<defs>
			<filter id="Adobe_OpacityMaskFilter" filterUnits="userSpaceOnUse" x="4.5" y="271.6" width="227.8" height="22.1">
				<feColorMatrix  type="matrix" values="1 0 0 0 0  0 1 0 0 0  0 0 1 0 0  0 0 0 1 0"/>
			</filter>
		</defs>
		<mask maskUnits="userSpaceOnUse" x="4.5" y="271.6" width="227.8" height="22.1" id="SVGID_1_">
			<g class="st1">
				<g>
					<linearGradient id="SVGID_2_" gradientUnits="userSpaceOnUse" x1="16.8636" y1="279.4511" x2="85.0555" y2="281.3631">
						<stop  offset="0" style="stop-color:#000000"/>
						<stop  offset="1" style="stop-color:#FFFFFF"/>
					</linearGradient>
					<path class="st2" d="M89.8,293.7c-28.4,0-57-0.2-85.3-0.7l0.3-20c36.6,0.6,73.8,0.9,110.4,0.7c38.6-0.2,77.8-0.9,116.4-2
						l0.6,20c-38.8,1.1-78.1,1.8-116.9,2C106.9,293.7,98.4,293.7,89.8,293.7z"/>
				</g>
			</g>
		</mask>
		<path class="st3" d="M89.8,293.7c-28.4,0-57-0.2-85.3-0.7l0.3-20c36.6,0.6,73.8,0.9,110.4,0.7c38.6-0.2,77.8-0.9,116.4-2l0.6,20
			c-38.8,1.1-78.1,1.8-116.9,2C106.9,293.7,98.4,293.7,89.8,293.7z"/>
		<g>
			<linearGradient id="SVGID_3_" gradientUnits="userSpaceOnUse" x1="155.2259" y1="175.2187" x2="214.2257" y2="289.2186">
				<stop  offset="0" style="stop-color:#05F700"/>
				<stop  offset="1" style="stop-color:#0BDB06"/>
			</linearGradient>
			<path class="st4" d="M192.7,304.6c-4.5,0-9.1-0.5-13.5-1.4l4.2-19.6c5.3,1.1,13.4,1.9,22.4-1c14.4-4.6,22.2-15.7,24.9-20.3
				l17.3,10.1c-3.8,6.6-15.1,22.5-36.1,29.2C205.6,303.6,199.2,304.6,192.7,304.6z"/>
		</g>
		<path class="st5" d="M70.2,297.6c-2.6,1.9-5.2,3.8-7.8,5.7c9.8-0.1,19.6-0.1,29.3-0.2c-0.1-6.2-0.3-12.3-0.4-18.5
			c-7.7,0-15.4,0-23.2,0C68.8,289,69.5,293.4,70.2,297.6z"/>
		<path class="st6" d="M152.7,262.3c1.2-49.2,0.8-96.8-1-142.7c-8.9-3.8-25.3-9.5-46.5-9c-19.7,0.5-34.9,6.1-43.5,10
			c-1.3,17.1-2,35.1-2,54c0,40.3,3.4,77.1,8.4,110c7.7,0,15.4,0,23.2,0c-0.2-8.2-0.4-16.3-0.6-24.5c12,0,24,0,36,0
			c1.3,8.5,2.5,17,3.8,25.5c7.3,0,14.4,0,21.5,0C152.3,277.9,152.5,270.1,152.7,262.3z"/>
		<path class="st7" d="M153.4,217.1c-30.8,0.4-61.6,0.8-92.3,1c0.3,5.1,0.7,10,1.1,15c30.5-0.3,60.8-1,91.2-1.5
			C153.3,226.7,153.3,221.9,153.4,217.1z"/>
		<g>
			<polygon class="st8" points="102.7,118.5 106.8,255.4 113.6,254.5 108.7,116.8 			"/>
			<path class="st9" d="M99.6,142v-8.6l7.3,2.9l0.6,3.5L99.6,142z M107.8,157.6l-0.6-3.5l-7.3-2.9v8.6L107.8,157.6z M108.5,176.1
				l-0.6-3.5l-7.3-2.9v8.6L108.5,176.1z M109.1,194.6l-0.6-3.5l-7.3-2.9v8.6L109.1,194.6z M109.8,213.1l-0.6-3.5l-7.3-2.9v8.6
				L109.8,213.1z M110.4,231.6l-0.6-3.5l-7.3-2.9v8.6L110.4,231.6z"/>
			<path class="st9" d="M105.2,131.3l0.5-3.5l7.2-3.1l0.3,8.6L105.2,131.3z M113.6,151.1l-0.3-8.6l-7.2,3.1l-0.5,3.5L113.6,151.1z
				 M113.7,169.6l-0.3-8.6l-7.2,3.1l-0.5,3.5L113.7,169.6z M113.7,188.1l-0.3-8.6l-7.2,3.1l-0.5,3.5L113.7,188.1z M113.8,206.6
				l-0.3-8.6l-7.2,3.1l-0.5,3.5L113.8,206.6z M113.8,225.1l-0.3-8.6l-7.2,3.1l-0.5,3.5L113.8,225.1z M113.9,243.6l-0.3-8.6l-7.2,3.1
				l-0.5,3.5L113.9,243.6z"/>
			<polygon class="st9" points="104.3,248.3 115.5,247.8 115.7,254.7 104.1,255.8 			"/>
		</g>
		<path class="st0" d="M142.2,277.9c-6.1-3.7-10.4-10.7-10.3-17.9c0.2-10.9,8-19.9,18.5-22.4c0.9-0.2,1.9-0.4,2.8-0.4
			c0.5-40.3,0-79.5-1.5-117.5c-8.9-3.8-25.3-9.5-46.5-9c-19.7,0.5-34.9,6.1-43.5,10c-1.3,17.1-2,35.1-2,54c0,24.1,1.2,47,3.3,68.6
			c0.6-0.1,1.1-0.1,1.7-0.1c10.2,0,17.7,8.3,18.2,18.2c0.4,8.9-7.1,16.6-15.6,17.9c0.3,1.8,0.5,3.6,0.8,5.4h23.2
			c-0.2-8.2-0.4-16.3-0.6-24.5h36c1.3,8.5,2.5,17,3.8,25.5H152c0.1-1.5,0.1-3,0.1-4.4C148.6,280.8,145.1,279.7,142.2,277.9z
			 M112.5,236.3c-13.9,3.4-26.3-8.5-28.1-10.2c-15.2-14.3-12.8-36.1-11.9-44.3c1.5-13.8,7.4-30.7,20-38.6c15.5-9.9,33.3,1.9,39,16.8
			c5.6,14.6,7,31.8,4.2,47.2C133.3,219.7,126.1,233,112.5,236.3z"/>
		<path class="st10" d="M122.6,203.8c-25.4-9-48.1-9.2-62.6-8.1c0.3,8.7,0.7,17.3,1.2,25.7c0.6,0.2,1.3,0.4,2,0.5
			c4.9,0.9,9-0.9,10.6-1.7c1.4-0.7,2.7-1.6,3.9-2.6c0.9-0.8,1.4-1.6,1.8-2.5c21.7,2,40.3,7.6,54.3,15c-1.2,1.5-2.3,3-2.8,4.9
			c-0.1,0.4-0.2,0.8,0,1.2c0.2,0.4,0.7,0.7,1.2,0.7c0.8,0,1.6-0.4,2.2-0.9c1.5-1,2.8-2.1,4.2-3.2c0.3,0.2,0.5,0.3,0.8,0.5
			c-0.5,0.9-1,1.7-1.4,2.6c-0.3,0.6-0.6,1.2-0.7,1.8c-0.5,2.5,2.1,2.9,3.7,1.7c1.2-0.8,2.2-1.8,3.1-3c0,0,0.1,0,0.1,0.1
			c-0.5,0.9-0.8,1.9-1,2.8c-0.1,0.4-0.1,1,0.3,1.3c0.2,0.1,0.4,0.1,0.6,0.1c1.3,0,2.5-0.7,3.6-1.6c2,1.7,3.9,3.4,5.5,5.1
			c0.1-8.5,0.2-17,0.3-25.5C145.3,213.7,135,208.2,122.6,203.8z"/>
		<polygon class="st11" points="127.6,142.6 135.6,152.3 142.4,142.1 		"/>
		<path class="st10" d="M63.1,120c8.8,5.6,24,12.8,43.6,12.3c17.9-0.5,32-7.3,41.7-14c-9.4-3.7-24.4-8.1-43.2-7.7
			c-2.2,0.1-4.2,0.2-6.3,0.3c-0.8,0.1-1.7,0.2-2.5,0.2C81.9,112.7,70.5,116.8,63.1,120z"/>
		<path class="st6" d="M61.7,120.6c-4.7,3.7-21,17.3-24,40c-1.6,12-0.8,36.9,15.3,45c6.7,3.3,13.8,2.7,18.7,1.7
			c-2.2-13.2-4.4-26.4-6.7-39.7C63.9,152,62.8,136.3,61.7,120.6z"/>
		<path class="st7" d="M65.8,172.4c-0.3-1.6-0.5-3.2-0.8-4.8c-0.2-2.6-0.4-5.3-0.6-7.9c-8.8-0.3-17.5-1.4-26.3-1.8
			c-0.2,0.9-0.3,1.8-0.4,2.8c-0.4,3.3-0.7,7.6-0.5,12.2C46.8,173.1,56.3,172.8,65.8,172.4z"/>
		<path class="st5" d="M130.5,285.6c0.5,3.6,1,7.1,1.6,10.7c-1.9,2.3-3.8,4.7-5.7,7c8.3-0.3,16.7-0.7,25-1
			c0.2-5.5,0.4-11.1,0.6-16.7C144.9,285.6,137.8,285.6,130.5,285.6z"/>
		<path class="st12" d="M79.1,4.3c-23.3,8.7-39.8,31.6-40.9,56.4c-2.2,47.6,56.1,77.6,97,57.9c31.1-15,46.2-59.5,25.7-88.9
			C141.8,2.4,106.8-6.1,79.1,4.3z"/>
		<path class="st13" d="M155.5,102.2c-32.2,7-68.6,9.8-99.8,1.6c20,19.7,53.3,27.4,79.5,14.8C143.1,114.8,150,109.1,155.5,102.2z"/>
		<path class="st14" d="M31.7,49.9c37.2-0.5,74.3-1,111.5-1.6c-3,24.7-27.8,43.5-56.4,43.3C59.3,91.4,35.5,73.6,31.7,49.9z"/>
		<path class="st15" d="M133.3,70.9c5.3-6.5,8.9-14.2,9.9-22.6c-37.2,0.5-74.3,1-111.5,1.6c1.2,7.3,4.3,14.1,8.8,20
			C70.7,61.5,103.9,61.7,133.3,70.9z"/>
		<path class="st16" d="M72.2,23.7C72.1,32,88.5,39.6,102,40.3c15.4,0.7,33.5-7.2,33.7-15.7c0.2-8.4-17.4-17.1-32.7-17
			C89,7.8,72.3,15.4,72.2,23.7z"/>
		<g>
			<linearGradient id="SVGID_4_" gradientUnits="userSpaceOnUse" x1="100.8162" y1="203.3782" x2="159.8161" y2="317.3782">
				<stop  offset="0" style="stop-color:#05F700"/>
				<stop  offset="1" style="stop-color:#0BDB06"/>
			</linearGradient>
			<path class="st17" d="M194,304.6l-20-1.4c0.5-7.9,0.2-15.8-0.9-23.5c0-0.2-3.5-22.5-14.5-40.4c-13.4-21.9-59.8-41.6-119.5-35.2
				l-2.1-19.9c30.7-3.3,60.5-0.5,86.1,8.1c24.5,8.2,43.2,21.2,52.6,36.5c13.2,21.4,17,46.9,17.2,47.9
				C194.3,286,194.7,295.4,194,304.6z"/>
		</g>
		<g class="st18">
			<path class="st19" d="M185.3,304c0.8-14.2-0.1-42.8-18.6-67.9c-25.3-34.2-67.7-40.5-89-43.5c-16.8-2.4-30.8-1.9-39.9-1.2
				l1.4,12.7c59.7-6.4,106.1,13.4,119.5,35.2c11,17.9,14.4,40.2,14.5,40.4c1.1,7.7,1.5,15.7,0.9,23.5L185.3,304z"/>
		</g>
		<path class="st20" d="M38.2,179.6c0.2,9.4,0.3,18.8,0.5,28.2c4.3-0.1,8.7-0.2,13-0.2c-0.5-9.2-1-18.3-1.5-27.5
			C46.2,180,42.2,179.8,38.2,179.6z"/>
		<path class="st0" d="M38.6,201.9c0,2,0.1,4,0.1,6c4.3-0.1,8.7-0.2,13-0.2c-0.1-1.8-0.2-3.6-0.3-5.5
			C47.1,202.1,42.9,202.1,38.6,201.9z"/>
		<g>
			<path class="st20" d="M10.5,198.6c0.3,2.7,0.6,5.3,0.9,8c-3.7,0.2-7.4,0.4-11.1,0.5c-0.1-2.7-0.2-5.4-0.2-8.1
				C3.5,198.9,7,198.7,10.5,198.6z"/>
			<path class="st21" d="M14.6,174.4c-0.1,12.7-0.3,25.5-0.4,38.2c8.6,0.1,17.2,0.1,25.9,0.2c-0.2-12.8-0.3-25.5-0.5-38.2
				C31.2,174.5,22.9,174.4,14.6,174.4z"/>
			<path class="st22" d="M14.5,182.9c0,2,0,4.1-0.1,6.1c8.4-0.1,16.9-0.2,25.3-0.2c0-2-0.1-4-0.1-6c0,0-0.1-0.1-0.1-0.1
				C31.2,182.8,22.9,182.8,14.5,182.9z"/>
			<path class="st0" d="M14.3,200.2c0,4.1-0.1,8.3-0.1,12.4c8.6,0.1,17.2,0.1,25.9,0.2c-0.1-4.2-0.1-8.4-0.2-12.5
				C31.4,200.7,22.8,200.4,14.3,200.2z"/>
			<path class="st23" d="M14.6,174.4c1.4,1.5,7.4,8.2,7.6,18.6c0.1,11.2-6.7,18.3-8,19.6c-1.7-2.4-5.8-8.8-6-18
				C7.9,184,13,176.6,14.6,174.4z"/>
			<path class="st5" d="M14.8,182.5c0.8,0.9,4.3,4.7,4.4,10.7c0.1,6.5-3.9,10.6-4.6,11.3c-1-1.4-3.4-5.1-3.5-10.4
				C10.9,188,13.9,183.8,14.8,182.5z"/>
			<path class="st24" d="M19.4,170.5c0.9,2.1,1.9,4.2,2.8,6.2c-3.3,0-6.6,0.1-9.8,0.1c-0.5,0.6-0.9,1.1-1.4,1.7
				c-1.2,0.1-2.3,0.1-3.5,0.2c-0.1-2.7-0.2-5.4-0.2-8.1C11.3,170.6,15.4,170.6,19.4,170.5z"/>
			<path class="st24" d="M26.6,194.4c0.2,2.6,0.5,5.3,0.7,7.9c-4,0.1-8,0.3-12,0.4c-0.1-2.7-0.2-5.4-0.2-8.1
				C18.8,194.5,22.7,194.4,26.6,194.4z"/>
			<polygon class="st21" points="7.3,170.6 7.5,178.7 3.4,178.9 3,171.1 			"/>
			<path class="st21" d="M15,194.6c-1.6,0.2-3.1,0.3-4.7,0.5c0,2.7,0.1,5.4,0.1,8.1c1.6-0.2,3.2-0.3,4.8-0.5L15,194.6z"/>
		</g>
		<path class="st25" d="M62.8,201.9c0.6-2.6,1.8-17.4,5.6-17.1c0.9,0.1,1.5,1.1,1.7,2.1c1.1,3.8,1.2,7.7,1.4,11.7
			c0.5-2.3,1.1-4.6,1.6-6.9c0.3-1.3,0.6-5.2,2.7-4.7c0.9,0.2,1.2,1.3,1.3,2.3c0.4,3.2,0.4,6.4,0.1,9.6c0.1-1.3,1.7-11.4,4.5-9.1
			c0.7,0.6,0.9,2.3,0.9,3.2c0.1,3.4-0.7,6.8-2.1,9.9c-0.7,1.4-1.2,2.5-2.4,3.6c-1.2,1-2.5,1.9-3.9,2.6c-1.6,0.8-5.6,2.6-10.6,1.7
			c-7-1.3-10.4-7.2-11-8.2C56.1,202.2,59.4,202,62.8,201.9z"/>
		<path class="st6" d="M151.7,119.6c-0.4,16.3-0.9,32.7-1.3,49c-2,12.2-4,24.3-6,36.5c4.6,3,9.2,6,13.8,9c4.1-3.8,17.4-17,19.6-38
			C181.3,142.6,153.3,120.8,151.7,119.6z"/>
		<path class="st7" d="M150.5,163.1c-0.1,1.9-0.1,3.7-0.2,5.6c-0.4,2.2-0.7,4.5-1.1,6.7c9,2.8,18.1,5.5,27.1,8.3
			c0.6-2.4,1-4.8,1.3-7.5c0.3-3.2,0.4-6.2,0.2-9.1C168.8,165.7,159.7,164.4,150.5,163.1z"/>
		<path class="st25" d="M144.7,205c-2.6,3.6-5.2,7.2-7.9,10.7c-1.9,2.5-4.5,4.7-5.3,7.9c-0.1,0.4-0.2,0.8,0,1.2
			c0.2,0.4,0.7,0.7,1.2,0.7c0.8,0,1.6-0.4,2.2-0.9c2.2-1.5,4.3-3.3,6.4-5c-1,1.6-1.9,3.2-2.8,4.9c-0.3,0.6-0.6,1.2-0.7,1.8
			c-0.5,2.5,2.1,2.9,3.7,1.7c1.4-1,2.7-2.3,3.7-3.7c-0.7,1-1.2,2.4-1.5,3.6c-0.1,0.4-0.1,1,0.3,1.3c0.2,0.1,0.4,0.1,0.6,0.1
			c2.1,0,3.7-1.6,5.1-3.1c1.9-2.1,3.8-4.2,5.5-6.4c1.3-1.7,2.2-3.8,3-5.7C153.7,211,149.2,208,144.7,205z"/>
		<path class="st25" d="M139.8,204.4c-1.9-0.1-4.7,0.1-6.4,1.3c-0.6,0.4-1,1.2-0.8,1.9c0.4,1.3,1.9,1.3,3,1.6c3.5,0.7,6,2.8,8.8,4.8
			c1.1-1.8,2.3-3.7,3.4-5.5c0.5-0.9-2.7-2.7-3.3-3C143.2,204.9,141.5,204.5,139.8,204.4z"/>
		<path class="st11" d="M164.2,132.4c-1.7,1.4-3.4,2.8-5.1,4.3c3.9,2,7.8,3.9,11.8,5.9C168.8,138.7,166.5,135.3,164.2,132.4z"/>
		<path class="st11" d="M55.4,137c-1.9-1.4-3.8-2.8-5.8-4.2c-2.1,2.8-4.3,6-6.1,9.6C47.5,140.5,51.4,138.7,55.4,137z"/>
		<path class="st0" d="M146,194.8c-0.6,3.4-1.1,6.9-1.7,10.3l13.8,9c1.4-1.3,4-3.9,6.9-7.5C158.3,204,151.6,200,146,194.8z"/>
	</g>
</g>
</svg>
