<?xml version="1.0" encoding="utf-8"?>
<!-- Generator: Adobe Illustrator 21.1.0, SVG Export Plug-In . SVG Version: 6.00 Build 0)  -->
<svg version="1.1" id="Layer_1" xmlns="http://www.w3.org/2000/svg" xmlns:xlink="http://www.w3.org/1999/xlink" x="0px" y="0px"
	 viewBox="0 0 115.1 121.7" style="enable-background:new 0 0 115.1 121.7;" xml:space="preserve">
<style type="text/css">
	.st0{fill-rule:evenodd;clip-rule:evenodd;fill:#2A2A2A;}
	.st1{fill-rule:evenodd;clip-rule:evenodd;fill:#FFFFFF;}
	.st2{fill-rule:evenodd;clip-rule:evenodd;fill:#C12127;}
</style>
<g>
	<path class="st0" d="M80.4,3.5c3.7-2.8,8.1-3.8,12.6-3.4c10.3,0.3,18.9,7.4,21.3,17c0.9,2.9,1.1,6.1,0.4,9.4
		c-1.1,6.3-4.7,11.6-9.7,15c-1.2,1-2.4,2-3.8,3C84,56.7,52.7,58.9,89.3,83.7c1.8,1.2,4.1,2,6.7,3.3c0.3-1.9,0.6-4,1.1-6.2l0.1-0.3v0
		c0,0,0-0.1,0-0.2v0l0,0l0,0c0.4-1.5,2.3-9,2.3-10.7c-0.1-3.1-0.2-4.9-0.7-8c-0.5-2.1-3-9.4,1.6-7.9c2.2,0.7,1.5,3.2,1.2,5
		c-0.1,0.8-0.6,5.9-0.5,6.9c0.1,1-0.1,1.3,0.7,1.2c0.9,0,2.2-4.4,2.5-6.4c0.2-1.4,0.4-3.6,1.6-4.5c1.3-1,3.4,0.3,3.8,1.7
		c0.5,2-5.1,8.1-5.8,9.1c-0.9,1.4-1,3.1-0.8,3.7c0.1,0.3,0.5,0.5,1.1,0.6c1,0.1,2,0.2,2.8-0.3c3.3-2.2,5.2-1.2,5.6,0.1
		c0.3,1.1-0.6,2.7-1.5,3.3c-1.8,1.3-3.6-3.5-8.6-0.5c-2,1.2-1.9,2.6-2.5,4.9c-0.2,0.6-0.4,1.9-0.4,1.9c-0.1,0.4-0.2,0.8-0.3,1.4
		c-0.8,2.7-1,5.8-0.8,9.1c-2.5-0.7-4.8-1.5-6.9-2.5c-4.1-2-4.1-2.8-3.3-0.1c1.4,5.1-8,18.5-12.3,22.7c-0.5,0.5-1.1,1.1-1.7,1.6
		c-0.6,0.6-0.8,1.5-0.7,2.7c0.2,3.1,0,4.1,2.9,4.5c1.1,0.1,2.2,0,3.3-0.1c0.8,0,1.6,0,2.5,0c0.6,0.1,1.1,0.2,1.4,0.4
		c0.6,0.6,0.4,1-0.1,1.2c-0.5,0.2-1,0.2-1.5,0.1c-0.5-0.1-0.9-0.1-1.4-0.2c-2.4-0.2-5.1,0-7.6,0.3c-0.9,0.1-1.9,0.2-2.4-0.2
		c-0.7-0.7,0.5-1.4,0.8-1.9c0.8-1.1,0.1-3.4-0.7-4.3c-1.4-1.5-8.4-1.1-13.6-0.5c-5.2-0.6-12.2-1-13.6,0.5c-0.8,0.9-1.5,3.2-0.7,4.3
		c0.3,0.5,1.6,1.2,0.8,1.9c-0.5,0.5-1.5,0.4-2.4,0.2c-2.4-0.3-5.1-0.5-7.6-0.3c-0.4,0-0.9,0.1-1.4,0.2c-0.5,0.1-1,0.1-1.5-0.1
		c-0.5-0.2-0.7-0.6-0.1-1.2c0.3-0.3,0.8-0.4,1.4-0.4c0.8,0,1.6,0,2.5,0c1.1,0,2.2,0.2,3.3,0.1c3-0.3,2.8-1.4,2.9-4.5
		c0.1-1.2-0.1-2.2-0.7-2.7c-0.6-0.5-1.1-1.1-1.7-1.6c-7.5-7.4-10.3-13.4-11.1-19.1c-2,3.5-5,6.4-9.4,9.7l-0.2,0.1l0,0
		c0,0-0.1,0-0.1,0.1l0,0l0,0l0,0c-0.9,0.6-5.5,3.7-6.3,4.7c-1.4,1.7-2.3,2.7-3.4,4.7c-0.7,1.4-2.8,6.4-4.6,3.5
		c-0.8-1.4,0.7-2.4,1.7-3.3c0.5-0.4,3.2-2.9,3.6-3.5c0.4-0.6,0.6-0.6,0.2-1c-0.5-0.4-3.3,1.4-4.4,2.3c-0.8,0.7-1.9,1.7-3,1.7
		c-1.1-0.1-1.7-1.8-1.2-2.7c0.6-1.3,6.6-1.9,7.4-2.1c1.1-0.4,2-1.1,2.2-1.6c0.1-0.2,0-0.5-0.3-0.8c-0.5-0.5-1-1-1.6-1.1
		c-2.9-0.4-3.4-1.8-3-2.7c0.4-0.8,1.6-1.1,2.4-1.1c1.6,0.1,0.3,3.6,4.4,4.4c1.7,0.3,2.2-0.5,3.6-1.4c0.4-0.3,1.1-0.8,1.1-0.8
		c0.2-0.2,0.5-0.4,0.8-0.6c5-3.2,7.8-9.1,9-13.7C36.6,48.8,45.3,66,63.1,34.8c4.8-8.4,6.7-19.2,10.4-24.7
		C75.3,7.4,77.7,5.2,80.4,3.5z"/>
	<circle class="st1" cx="92.3" cy="22.7" r="18.9"/>
	<circle class="st0" cx="98.6" cy="32.5" r="5.3"/>
	<path class="st2" d="M35.7,88.1c-1,1.6-1.5,3.2-1.5,4.7c-0.1,2.7,1.2,5.4,3.1,7.7c2.9,3.5,7.2,6,11,6.7c3.2,0.7,6.7,0.6,10.1,0.4
		c3.1-0.1,5.6-0.5,8-1.3c2.3-0.8,4.5-2,6.9-3.6c2.2-1.6,3.9-3.4,5.1-5.5c1.4-2.4,2-5.1,2-8.2c0-1.6-0.4-2.9-1.4-3.8
		c-2.4-2.2-6-3.7-10-4.3c-4.1-0.6-8.6-0.7-12.9-0.4c-5,0.3-9.6,1.1-12.7,2.2C40.1,83.7,37.3,85.5,35.7,88.1z"/>
	<path class="st1" d="M75.5,80.9L71.3,81l0.2,3.9c0,0.9,0.8,1.6,1.8,1.6l0.8,0c0.9,0,1.7-0.8,1.6-1.7L75.5,80.9z"/>
	<path class="st1" d="M67,79.3l-4.2,0.2l0.2,3.9c0,0.9,0.8,1.6,1.8,1.6l0.8,0c0.9,0,1.7-0.8,1.6-1.7L67,79.3z"/>
	<path class="st1" d="M59.4,79.3l-4.2,0.2l0.2,3.9c0,0.9,0.8,1.6,1.8,1.6l0.8,0c0.9,0,1.7-0.8,1.6-1.7L59.4,79.3z"/>
	<path class="st1" d="M52.2,80L48,80.2l0.2,3.9c0,0.9,0.8,1.6,1.8,1.6l0.8,0c0.9,0,1.7-0.8,1.6-1.7L52.2,80z"/>
	<path class="st1" d="M45.5,81.6l-4.2,0.2l0.2,3.9c0,0.9,0.8,1.6,1.8,1.6l0.8,0c0.9,0,1.7-0.8,1.6-1.7L45.5,81.6z"/>
	<path class="st1" d="M39.6,84.8l-4.2,0.2l0.2,3.9c0,0.9,0.8,1.6,1.8,1.6l0.8,0c0.9,0,1.7-0.8,1.6-1.7L39.6,84.8z"/>
	<path class="st0" d="M35.9,88.2c1.6-2.6,4.3-4.3,7.5-5.3c3.1-1,7.6-1.8,12.5-2.1c4.2-0.3,8.6-0.2,12.6,0.4c4,0.6,7.5,2.1,9.8,4.3
		c0.9,0.9,1.4,2.2,1.4,3.8c0.1,3.1-0.6,5.8-1.9,8.1c-1.2,2.1-2.9,3.8-5,5.5c-2.4,1.6-4.5,2.8-6.7,3.6c-2.3,0.8-4.8,1.2-7.8,1.3
		c-3.3,0.2-6.8,0.2-9.9-0.4c-3.7-0.8-7.9-3.2-10.7-6.7c-1.9-2.3-3.1-4.9-3.1-7.6C34.5,91.3,34.9,89.8,35.9,88.2L35.9,88.2L35.9,88.2
		z M58.4,112.1c3.1-0.1,6.2-0.5,9.2-1.6c2.9-1,5.4-2.4,7.9-4.1l0.1,0l0.1-0.1c2.5-1.9,4.7-4.1,6.2-6.8c1.8-3.2,2.6-6.7,2.5-10.4
		c-0.1-2.6-0.9-5.1-2.8-7c-3.3-3.1-7.8-4.8-12.3-5.4c-4.5-0.7-9.2-0.7-13.7-0.4c-4.4,0.3-9.3,1-13.6,2.3c-4,1.3-7.7,3.7-10,7.3
		c-1.3,2.1-2.1,4.5-2.1,7c-0.1,3.9,1.6,7.5,4.1,10.6c3.3,4,8.3,7.2,13.4,8.3C51,112.3,54.7,112.3,58.4,112.1L58.4,112.1z"/>
</g>
</svg>
