<?xml version="1.0" encoding="utf-8"?>
<!-- Generator: Adobe Illustrator 21.1.0, SVG Export Plug-In . SVG Version: 6.00 Build 0)  -->
<svg version="1.1" id="Layer_1" xmlns="http://www.w3.org/2000/svg" xmlns:xlink="http://www.w3.org/1999/xlink" x="0px" y="0px"
	 viewBox="0 0 166.9 118.9" style="enable-background:new 0 0 166.9 118.9;" xml:space="preserve">
<style type="text/css">
	.st0{fill-rule:evenodd;clip-rule:evenodd;fill:#2A2A2A;}
	.st1{fill-rule:evenodd;clip-rule:evenodd;fill:#FFFFFF;}
	.st2{fill-rule:evenodd;clip-rule:evenodd;fill:#C12127;}
</style>
<g>
	<path class="st0" d="M116.4,38.2c6.4,7,13,13.2,19.8,14.3c14.4,2.4,28-7.3,30.4-21.7c2.4-14.4-7.3-28-21.7-30.4
		c-7.1-1.2-14,0.6-19.5,4.4c-9.7,6.8-7.5,18.4-17.1,15c-26.4-9.4-53.6,3.2-62.2,11.5c-1.6,1.5-3.1,3.4-4.8,5.7
		c-8.1,10.8-9.9,2.1-20.1,5.9c-6,2.3-10.5,8-10.8,14.8c-0.4,9.1,6.7,16.9,15.8,17.2c9.1,0.4,16.9-6.7,17.2-15.8
		c0.5-12.7-6.1-7.9,2.2-19.1c2.6-3.4,5.1-6.3,7.6-7.7c6.4-3.7,3.4,4.7,3.1,9.3c-1,13.2-1,19.9-10.9,33.8c-4.2,5.9-9.3,10.7-16,13.3
		c-2.4,0.9-4.8,1.6-7.2,2.4c-1.4,0.5-2.4,0.8-4-0.1c-5.2-2.7-2-6.9-4.1-7.7c-1.1-0.4-2.9-0.4-3.7,0.5c-0.9,1-0.8,3.2,2.9,4.9
		c0.9,0.4,1.3,1.3,1.8,2.2c0.3,0.6,0.3,1,0.1,1.3c-0.4,0.6-2,1.3-3.6,1.3c-1.2-0.1-9.5-1.7-10.9-0.1c-1,1.1-1,3.6,0.6,4.2
		C2.8,98,4.7,97,6,96.4c1.8-0.8,6.4-2,6.8-1.3c0.5,0.7,0.1,0.7-0.7,1.3c-0.8,0.6-5.5,2.9-6.3,3.3c-1.7,0.8-4.2,1.5-3.7,3.7
		c1.1,4.7,6.1-1.3,7.6-2.9c2.3-2.1,3.9-3.2,6.5-4.9c0.9-0.6,4-1.6,6.7-2.5c2.5-0.8,4.9-1.6,7.4-2.6c8-3.1,15.5-6.6,18.7-12.7
		c22.3-42.4-1.9,6.4-3,28.4c-0.3,6.2,0.1,8.2-5.8,8.9c-2.2,0.3-4.3,0-6.5-0.1c-1.6-0.1-3.2-0.1-4.9-0.1c-1.2,0.1-2.2,0.4-2.7,0.9
		c-1.2,1.2-0.7,1.9,0.2,2.4c1,0.4,2,0.4,3,0.2c1-0.2,1.9-0.3,2.8-0.4c4.9-0.4,10.2-0.1,15.1,0.6c1.8,0.2,3.8,0.5,4.8-0.5
		c1.4-1.4-1-2.9-1.7-3.8c-1.4-2,0.8-12.1,3-19.3c2.6-8.4,3.5-6.5,11.8-6.5l3.8,0v-0.1c6.6,0,13.3,0.1,19.9,0.1
		c6.9,0,8.4-1.8,10.6,5.1c2.3,7.3,5,18.5,3.4,20.7c-0.6,0.9-3.1,2.4-1.7,3.8c1,0.9,3,0.7,4.8,0.5c4.8-0.7,10.2-1,15.1-0.6
		c0.9,0.1,1.8,0.2,2.8,0.4c1,0.2,2,0.2,3-0.2c0.9-0.4,1.4-1.2,0.2-2.4c-0.5-0.5-1.5-0.7-2.7-0.9c-1.6,0-3.3,0-4.9,0.1
		c-2.2,0.1-4.3,0.4-6.5,0.1c-5.9-0.7-5.5-2.7-5.8-8.9c-0.1-2.3-7-53-4.2-41c0.7,3,6.3,21.8,7.5,24.4c1.3,2.7,1.3,3,2.9,1.8
		c0.9-0.7,1.5-0.9,2.5-1.2c4.2-1.4,8.3-3.7,12.9-7c2.4-1.7,4.7-3.5,7-5.4c2.5-2,5.4-4.2,6.5-4.8c3.3-1.4,5.2-2.2,8.7-3.1
		c2.5-0.5,11.2-1.5,7.4-5.5c-1.8-1.9-4,0-5.8,1.2c-0.8,0.5-5.9,3.5-7,3.9c-1.1,0.4-1.3,0.7-1.6-0.1c-0.4-0.9,3.6-4.4,5.5-5.7
		c1.4-0.9,3.5-2.1,4-3.9c0.4-1.8-1.9-3.4-3.6-3.1c-2.3,0.4-5.9,9.2-6.7,10.4c-1.1,1.6-2.7,2.6-3.5,2.6c-0.4,0-0.8-0.2-1.2-0.9
		c-0.6-1-1.2-2-1-3c0.7-4.6-1.3-6-2.8-5.8c-1.4,0.2-2.5,1.9-2.7,3.2c-0.5,2.5,5.4,2.1,4.7,8.7c-0.2,2-1.1,2.8-2.4,3.8
		c-2.3,1.8-4.5,3.7-6.8,5.4c-4.2,3-8.9,4.9-13.8,5.9C109.6,77.2,86.2,5.1,116.4,38.2z"/>
	<ellipse transform="matrix(0.9873 -0.1587 0.1587 0.9873 -8.8817 4.9585)" class="st1" cx="26.6" cy="58.1" rx="14.3" ry="14.3"/>
	
		<ellipse transform="matrix(0.9996 -2.650200e-02 2.650200e-02 0.9996 -0.6381 3.7524)" class="st1" cx="141.2" cy="25.9" rx="22.6" ry="22.6"/>
	<path class="st0" d="M22.5,63.6c2-0.3,3.9,1,4.2,3c0.3,2-1,3.9-3,4.2c-2,0.3-3.9-1-4.2-3C19.1,65.8,20.5,63.9,22.5,63.6z"/>
	
		<ellipse transform="matrix(0.9997 -2.638596e-02 2.638596e-02 0.9997 -0.8284 4.0959)" class="st0" cx="154.8" cy="33.4" rx="5.8" ry="5.8"/>
	<path class="st2" d="M59,51.9c-1.2,0.8-3.6,2.4-5.1,1.3c-0.3-0.2-0.5-0.7-0.7-1.4c-0.7-2.8,0-6.5,0.8-9.3c1-3.3,2.6-5.6,4.6-7.7
		c6-6.3,13.3-9,21.9-9.3c7-0.2,13.5,1.2,20.2,5.4c3.9,2.4,8.3,6.1,10.8,10.4c0.8,1.3,1.4,2.7,1.7,4.1c0.2,0.9,0.3,1.9,0.4,3.2
		c-0.2,1.6-0.4,2.5-0.9,3c-0.8,0.9-2.7,0.3-3.7,0c-1.4-0.5-2.7-1.1-3.9-1.8c-2.9-1.5-5.8-3-8.8-4.2c-6.1-2.5-12.1-3.6-19.2-2.4
		C70.9,44.3,64.3,48.2,59,51.9z"/>
	<polygon class="st1" points="53.2,42.9 59,43.6 56.1,37.2 	"/>
	<polygon class="st1" points="58.9,33.6 65.4,36.8 64.6,29.4 	"/>
	<polygon class="st1" points="68.6,27.5 73.9,32.9 74.7,25.6 	"/>
	<polygon class="st1" points="80.3,24.7 82.9,31.8 86.8,25 	"/>
	<polygon class="st1" points="91.5,26.4 91.8,33.4 97.4,28.4 	"/>
	<polygon class="st1" points="100.5,30.4 99.4,37.2 105.8,33.8 	"/>
	<polygon class="st1" points="107.7,35.4 104.1,41.7 111.8,40.4 	"/>
	<path class="st0" d="M59,51.9c-1.2,0.8-3.6,2.4-5.1,1.3c-0.3-0.2-0.5-0.7-0.7-1.4c-0.7-2.8,0-6.5,0.8-9.3c1-3.3,2.6-5.6,4.6-7.7
		c6-6.3,13.3-9,21.9-9.3c7-0.2,13.5,1.2,20.2,5.4c3.9,2.4,8.3,6.1,10.8,10.4c0.8,1.3,1.4,2.7,1.7,4.1c0.2,0.9,0.3,1.9,0.4,3.2
		c-0.2,1.6-0.4,2.5-0.9,3c-0.8,0.9-2.7,0.3-3.7,0c-1.4-0.5-2.7-1.1-3.9-1.8c-2.9-1.5-5.8-3-8.8-4.2c-6.1-2.5-12.1-3.6-19.2-2.4
		C70.9,44.3,64.3,48.2,59,51.9L59,51.9L59,51.9z M116.6,49.1l0-0.2l0-0.2c0-1.3-0.1-2.6-0.5-3.8c-0.4-1.7-1.1-3.3-2-4.9
		c-2.7-4.6-7.3-8.5-11.7-11.3c-6.8-4.3-13.8-6.1-21.8-5.8c-9.4,0.3-17.4,3.3-23.9,10.1c-2.5,2.6-4.2,5.3-5.3,8.8
		c-1,3.3-1.7,7.4-0.9,10.7c0.3,1.2,0.7,2.2,1.7,3c1.8,1.4,4.1,1.1,6.1,0.1c0.8-0.4,1.6-0.9,2.3-1.4l0,0l0,0
		c4.9-3.4,11.2-7.2,17.1-8.2c6.3-1.1,11.8-0.2,17.6,2.2c2.9,1.2,5.7,2.6,8.5,4.1c1.4,0.8,2.8,1.5,4.4,2c2.2,0.8,5,1.2,6.7-0.7
		C116.1,52.4,116.4,50.7,116.6,49.1L116.6,49.1z"/>
</g>
</svg>
