<?xml version="1.0" encoding="utf-8"?>
<!-- Generator: Adobe Illustrator 21.1.0, SVG Export Plug-In . SVG Version: 6.00 Build 0)  -->
<svg version="1.1" id="Layer_1" xmlns="http://www.w3.org/2000/svg" xmlns:xlink="http://www.w3.org/1999/xlink" x="0px" y="0px"
	 viewBox="0 0 124.3 107.5" style="enable-background:new 0 0 124.3 107.5;" xml:space="preserve">
<style type="text/css">
	.st0{fill-rule:evenodd;clip-rule:evenodd;fill:#2A2A2A;}
	.st1{fill-rule:evenodd;clip-rule:evenodd;fill:#C12127;}
	.st2{fill-rule:evenodd;clip-rule:evenodd;fill:#FFFFFF;}
</style>
<g>
	<path class="st0" d="M89,15.9c11-5,5.6-5.7,13.4-12.6c5.4-4.8,13.8-4.3,18.6,1.1c4.8,5.5,4.3,13.8-1.1,18.6
		c-4.6,4.1-11.3,4.4-16.1,1.1c-5-3.4-3.7-6.9-8.4-5.5c-15.3,4.5-21.8,13.3-16.1,29.2c2.8,7.9,8.2,14.3,13.5,11.3
		c2.1-1.8,4-3.9,5.4-6.3c0.3-0.5,0.6-0.9,0.8-1.2c0,0,0.8-1.1,1.1-1.7c1.2-2.1,2.4-2.9,1.8-5.3c-1.3-5.8-6.2-3.7-6.5-6
		c-0.1-1.1,0.3-2.9,1.4-3.5c1.3-0.6,3.4,0,4,4.1c0.2,1,1,1.6,1.7,2.3c0.5,0.5,0.9,0.6,1.2,0.5c0.7-0.3,1.8-1.6,2.2-3.2
		c0.3-1.2,0.8-9.7,2.7-10.7c1.4-0.7,3.8,0,4,1.6c0.1,1.6-1.4,3.2-2.3,4.4c-1.2,1.6-3.6,5.7-3,6.4c0.5,0.6,0.6,0.3,1.4-0.4
		c0.8-0.6,4.2-4.6,4.8-5.3c1.2-1.5,2.5-3.8,4.6-2.6c4.3,2.3-2.8,5.6-4.7,6.7c-2.7,1.7-4.1,3-6.5,5.1c-1.3,1.3-5.5,8-6.4,9.3l0,0l0,0
		l0,0c0,0.1-0.1,0.1-0.1,0.2l0,0l-0.2,0.2c-8.9,13.2-10.7,11.1-10.9,14.9c-0.5,9.6,4.4,16.7,0.9,25.5c-1.7,4.2-3.6,9.7,2.1,10.3
		c1.3,0.2,2.6,0,3.9-0.1c1,0,1.9-0.1,2.9-0.1c0.7,0.1,1.3,0.2,1.6,0.5c0.7,0.7,0.4,1.2-0.1,1.4c-0.6,0.3-1.2,0.2-1.8,0.1
		c-0.6-0.1-1.1-0.2-1.6-0.2c-2.9-0.2-6.1,0-9,0.4c-1,0.1-2.3,0.3-2.8-0.3c-0.9-0.8,0.6-1.7,1-2.2c0.5-0.7,0.5-1.7,0.3-2.7
		c-2.3-10.4-15-1.6-26.1-1.6c-3.3,0-6.2-2-8.1,0c-1,1.1-1.8,3.8-0.9,5.1c0.4,0.5,1.9,1.4,1,2.2c-0.6,0.6-1.8,0.4-2.8,0.3
		c-2.9-0.4-6.1-0.6-9-0.4c-0.5,0-1,0.1-1.6,0.2c-0.6,0.1-1.2,0.1-1.8-0.1c-0.6-0.2-0.9-0.7-0.1-1.4c0.3-0.3,0.9-0.4,1.6-0.5
		c1,0,1.9,0,2.9,0.1c1.3,0,2.6,0.2,3.9,0.1c3.5-0.4,3.3-1.6,3.5-5.3c0.1-1.5-0.1-2.6-0.9-3.2c-0.7-0.6-1.3-1.3-2-1.9
		C37.5,86.2,34.2,79,33.3,72.3c-2.3,4.1-5.8,7.6-11.1,11.4L22,83.9v0h0c0,0-0.1,0.1-0.1,0.1l0,0l0,0l0,0l0,0
		c-1.1,0.8-6.5,4.4-7.5,5.5c-1.7,2-2.7,3.2-4,5.5c-0.9,1.6-3.4,7.6-5.4,4.1c-1-1.7,0.8-2.8,2-3.9c0.5-0.5,3.7-3.4,4.2-4.1
		c0.5-0.7,0.8-0.7,0.2-1.2c-0.6-0.5-3.9,1.6-5.1,2.7c-1,0.8-2.2,2.1-3.6,2c-1.4-0.1-2-2.1-1.4-3.2C2,89.9,9,89.2,10,88.9
		c1.3-0.4,2.4-1.4,2.6-1.9c0.1-0.3,0-0.6-0.4-1c-0.6-0.6-1.1-1.2-1.9-1.3c-3.4-0.5-4-2.1-3.5-3.2c0.4-0.9,1.9-1.4,2.8-1.3
		c1.9,0.2,0.3,4.2,5.1,5.2c2,0.4,2.6-0.6,4.3-1.7c0.5-0.3,1.3-1,1.3-1c0.3-0.2,0.6-0.4,1-0.7c5.2-3.3,8.3-9,10-14.1
		C41,39.6,59.9,27.8,29,18.7c-4.7-1.4-3.4,2.1-8.4,5.5c-4.9,3.3-11.5,3-16.1-1.1C-1,18.2-1.5,9.9,3.3,4.4C8.2-1,16.5-1.5,22,3.3
		c7.8,6.9,2.3,7.6,13.4,12.6C53.2,24.5,71.1,23.2,89,15.9z"/>
	<path class="st1" d="M41.3,65.7c-1.2,1.4-1.9,2.8-2.2,4.3c-0.5,2.6,0.3,5.3,1.8,7.9c2.2,3.8,5.9,6.8,9.3,8.1c3,1.1,6.3,1.6,9.5,2
		c3,0.3,5.4,0.3,7.8-0.1c2.3-0.4,4.5-1.2,7.1-2.4c2.3-1.2,4.2-2.7,5.7-4.5c1.6-2.1,2.7-4.5,3.1-7.6c0.2-1.5,0-2.9-0.7-3.9
		c-1.9-2.5-5.1-4.5-8.8-5.7c-3.8-1.2-8-2-12.1-2.3c-4.7-0.4-9.2-0.3-12.3,0.1C46.1,62.1,43.2,63.4,41.3,65.7z"/>
	<path class="st2" d="M80,64.8l-4-0.5L75.6,68c-0.1,0.9,0.5,1.7,1.4,1.8l0.8,0.1c0.9,0.1,1.7-0.5,1.8-1.4L80,64.8z"/>
	<path class="st2" d="M72.2,62l-4-0.5l-0.4,3.7c-0.1,0.9,0.5,1.7,1.4,1.8l0.8,0.1c0.9,0.1,1.7-0.5,1.8-1.4L72.2,62z"/>
	<path class="st2" d="M65.1,60.8l-4-0.5L60.6,64c-0.1,0.9,0.5,1.7,1.4,1.8l0.8,0.1c0.9,0.1,1.7-0.5,1.8-1.4L65.1,60.8z"/>
	<path class="st2" d="M58.1,60.4l-4-0.5l-0.4,3.7c-0.1,0.9,0.5,1.7,1.4,1.8l0.8,0.1c0.9,0.1,1.7-0.5,1.8-1.4L58.1,60.4z"/>
	<path class="st2" d="M51.6,60.9l-4-0.5l-0.4,3.7C47,65,47.6,65.8,48.5,66l0.8,0.1c0.9,0.1,1.7-0.5,1.8-1.4L51.6,60.9z"/>
	<path class="st2" d="M45.5,63.1l-4-0.5L41,66.3c-0.1,0.9,0.5,1.7,1.4,1.8l0.8,0.1c0.9,0.1,1.7-0.5,1.8-1.4L45.5,63.1z"/>
	<path class="st2" d="M51.2,87.2l-4-0.5l0.4-3.7c0.1-0.9,0.9-1.5,1.8-1.4l0.8,0.1c0.9,0.1,1.5,0.9,1.4,1.8L51.2,87.2z"/>
	<path class="st2" d="M74.1,87.8l-4-0.5l0.4-3.7c0.1-0.9,0.9-1.5,1.8-1.4l0.8,0.1c0.9,0.1,1.5,0.9,1.4,1.8L74.1,87.8z"/>
	<ellipse transform="matrix(0.748 -0.6637 0.6637 0.748 19.2031 76.9126)" class="st2" cx="110.9" cy="13.2" rx="11.1" ry="11.1"/>
	<ellipse transform="matrix(0.6637 -0.748 0.748 0.6637 -5.3265 14.4883)" class="st2" cx="13.4" cy="13.2" rx="11.1" ry="11.1"/>
	<ellipse transform="matrix(0.7479 -0.6638 0.6638 0.7479 16.1829 78.1132)" class="st0" cx="110.9" cy="17.8" rx="3.8" ry="3.8"/>
	<ellipse transform="matrix(0.6638 -0.7479 0.7479 0.6638 -1.2508 16.741)" class="st0" cx="18" cy="9.8" rx="3.8" ry="3.8"/>
	<path class="st0" d="M38.2,64.3c-1.4,1.6-2.2,3.3-2.5,5c-0.6,3,0.3,6.1,2,9.1c2.5,4.4,6.8,7.9,10.7,9.4c3.4,1.3,7.2,1.8,11,2.3
		c3.4,0.4,6.2,0.4,9-0.1c2.6-0.5,5.2-1.4,8.1-2.8c2.7-1.4,4.9-3.1,6.5-5.2c1.9-2.4,3.1-5.2,3.6-8.7c0.2-1.8,0-3.3-0.9-4.5
		c-2.2-2.8-5.8-5.1-10.1-6.5c-4.3-1.4-9.3-2.3-14-2.7c-5.5-0.5-10.6-0.4-14.2,0.2C43.8,60.2,40.5,61.7,38.2,64.3L38.2,64.3z
		 M41.3,65.7c1.9-2.2,4.8-3.5,8-4c3.1-0.5,7.6-0.6,12.3-0.1c4.1,0.4,8.4,1.1,12.1,2.3c3.8,1.2,6.9,3.2,8.8,5.7c0.8,1,1,2.3,0.7,3.9
		c-0.4,3-1.5,5.5-3.1,7.6c-1.4,1.8-3.3,3.3-5.7,4.5c-2.5,1.2-4.8,2-7.1,2.4c-2.4,0.4-4.8,0.4-7.8,0.1c-3.2-0.4-6.5-0.8-9.5-2
		c-3.5-1.3-7.1-4.3-9.3-8.1c-1.5-2.6-2.2-5.3-1.8-7.9C39.4,68.5,40.1,67.1,41.3,65.7z"/>
</g>
</svg>
