<?xml version="1.0" encoding="utf-8"?>
<!-- Generator: Adobe Illustrator 21.1.0, SVG Export Plug-In . SVG Version: 6.00 Build 0)  -->
<svg version="1.1" id="Layer_1" xmlns="http://www.w3.org/2000/svg" xmlns:xlink="http://www.w3.org/1999/xlink" x="0px" y="0px"
	 viewBox="0 0 153.3 100" style="enable-background:new 0 0 153.3 100;" xml:space="preserve">
<style type="text/css">
	.st0{fill-rule:evenodd;clip-rule:evenodd;fill:#2A2A2A;}
	.st1{fill-rule:evenodd;clip-rule:evenodd;fill:#FFFFFF;}
	.st2{fill-rule:evenodd;clip-rule:evenodd;fill:#C12127;}
</style>
<g>
	<path class="st0" d="M113.2,46.1c3.5,4.9,7.9,8,14.7,10.7c2.1,0.8,4,1.4,6.1,2.1c2.2,0.7,4.8,1.6,5.5,2.1c2.2,1.4,3.5,2.3,5.4,4.1
		c1.3,1.3,5.4,6.3,6.3,2.4c0.5-1.9-1.6-2.5-3-3.1c-0.7-0.3-4.5-2.2-5.2-2.7c-0.6-0.5-0.9-0.5-0.6-1.1c0.4-0.6,4.2,0.4,5.7,1.1
		c1.1,0.5,2.7,1.3,4,0.9c1.3-0.5,1.3-2.6,0.5-3.5c-1.2-1.3-8.1,0.1-9.1,0.1c-1.4,0-2.7-0.6-3-1.1c-0.2-0.2-0.2-0.6,0.1-1.1
		c0.4-0.7,0.7-1.5,1.5-1.8c3.1-1.4,3.2-3.2,2.4-4.1c-0.7-0.8-2.2-0.8-3.1-0.4c-1.8,0.7,0.9,4.1-3.4,6.4c-1.3,0.7-2.2,0.5-3.3,0.1
		c-2-0.7-4.1-1.3-6-2c-4.4-1.7-7.3-4.8-10.1-8.5c-8.4-10.9-9.7-3.4-8.4-18c0.7-7.7,1.7-15.8-0.1-24.7c-0.8-4.6-12.1-4.2-21.8-3.9
		H66.1c-9.7-0.3-21-0.7-21.8,3.9c-1.1,5.5-1.2,10.7-0.9,15.7c0.5,8.4,1.1,6.3,2.1,12c0.8,4.6-0.2,5.8-3.3,8.5
		c-2.9,2.5-5.3,4.6-7.6,7.6c-2.8,3.6-5.7,6.8-10.1,8.5c-2,0.8-4,1.3-6,2c-1.1,0.4-2,0.6-3.3-0.1c-4.3-2.3-1.7-5.7-3.4-6.4
		c-0.9-0.3-2.4-0.4-3.1,0.4c-0.8,0.9-0.7,2.7,2.4,4.1c0.7,0.3,1.1,1.1,1.5,1.8c0.3,0.5,0.3,0.8,0.1,1.1c-0.4,0.5-1.6,1.1-3,1.1
		c-1,0-7.9-1.4-9.1-0.1c-0.9,0.9-0.8,3,0.5,3.5c1.3,0.4,2.8-0.4,4-0.9c1.5-0.7,5.3-1.7,5.7-1.1c0.4,0.6,0.1,0.5-0.6,1.1
		c-0.7,0.5-4.5,2.4-5.2,2.7c-1.4,0.7-3.5,1.2-3,3.1c0.9,3.9,5-1.1,6.3-2.4c1.9-1.8,3.2-2.7,5.4-4.1c0.8-0.5,3.4-1.4,5.5-2.1
		c2.1-0.7,4.1-1.3,6.1-2.1c6.9-2.7,11.3-5.8,14.7-10.7c10-14.2,0.6,16.6,0.2,18.1c-0.9,4-1.3,9-0.1,13c0.4,1.4,1,2.6,2.3,3.4
		c1.3,0.9,2.7,1.1,4.1,0.8c4.5-0.7,2.8-4,6.4,4.4c2,4.5,2.7,9.3-3.4,10c-1.7,0.2-3.3,0-5-0.1c-1.2,0-2.5-0.1-3.8-0.1
		c-0.9,0.1-1.7,0.3-2.1,0.7c-0.9,0.9-0.6,1.5,0.2,1.8c0.8,0.3,1.5,0.3,2.3,0.2c0.8-0.1,1.4-0.2,2.1-0.3c3.7-0.3,7.8,0,11.6,0.5
		c1.3,0.2,2.9,0.4,3.7-0.4c1.1-1.1-0.8-2.2-1.3-2.9c-1.2-1.7,0.1-8.5,1.4-9.9c2.2-2.3,13.9-0.7,19.2-1.4c6.6-0.9,11.7-2.2,17.6-0.1
		c2,0.7,4,1.8,6.2,3.4c0.6,0.6,1.2,1.7,1.5,2.9c0.5,1.7,0.6,3.5-0.2,4.7c-0.6,0.8-2.8,2.1-1.5,3.3c0.9,0.8,2.7,0.6,4.2,0.4
		c4.3-0.6,9-0.9,13.3-0.5c0.8,0.1,1.6,0.2,2.4,0.3c0.9,0.2,1.8,0.2,2.6-0.2c0.8-0.4,1.3-1,0.2-2.1c-0.5-0.5-1.3-0.7-2.4-0.8
		c-1.5,0-2.9,0-4.3,0.1c-1.9,0.1-3.8,0.3-5.8,0.1c-1.2-0.1-1.8-4.4-2.1-11c-0.5-12.5-3.2-9.4,4-9.7c1.6-0.1,3.1-0.6,4.2-2
		c1.3-1.6,1.4-3.7,1.5-5.6l0,0l0-0.3l0-0.3c-0.2-1.5-0.4-3.1-0.9-4.5c-0.7-2-1.7-3.9-2.9-5.7c-1.9-2.8-3.3-5.6-4.2-8.3
		C110.3,45.5,108.4,39.4,113.2,46.1z"/>
	<path class="st1" d="M96,31c-7.7,1.2-15-4-16.2-11.7c-1.2-7.7,4-15,11.7-16.2c7.7-1.3,15,4,16.2,11.7C108.9,22.6,103.7,29.8,96,31z
		"/>
	<path class="st0" d="M86.1,21.2c-1.4,0.2-2.6-0.7-2.9-2.1c-0.2-1.4,0.7-2.6,2.1-2.9c1.4-0.2,2.6,0.7,2.8,2.1
		C88.3,19.7,87.4,21,86.1,21.2z"/>
	<path class="st1" d="M54.9,3.8C61.8-0.6,71,1.4,75.4,8.4c4.4,6.9,2.4,16.1-4.5,20.5c-6.9,4.4-16.1,2.4-20.5-4.5
		C45.9,17.4,47.9,8.2,54.9,3.8z"/>
	<path class="st0" d="M62.8,11.1c3-1.9,7.1-1,9,2c1.9,3,1.1,7.1-2,9c-3,1.9-7.1,1-9-2C58.9,17.1,59.8,13,62.8,11.1z"/>
	<path class="st2" d="M50.4,76.9c-1.4,1.1-4.2,3.3-6,2.1c-0.4-0.3-0.7-0.8-0.9-1.6c-1.1-3.3-0.6-7.9,0.2-11.2
		c0.9-4.1,2.7-6.9,4.9-9.7c6.7-8.1,15.2-12,25.6-13.1c8.4-0.9,16.3,0.2,24.8,4.7c4.9,2.6,10.5,6.6,14,11.5c1.1,1.5,1.9,3.1,2.4,4.8
		c0.4,1.1,0.6,2.3,0.7,3.8c-0.1,1.9-0.3,3.1-0.8,3.7c-0.9,1.1-3.2,0.6-4.5,0.3c-1.7-0.4-3.3-1.1-4.9-1.8c-3.6-1.6-7.2-3.1-11-4.3
		c-7.6-2.4-14.9-3.3-23.4-1.2C64,66.7,56.4,72,50.4,76.9z"/>
	<polygon class="st1" points="111.2,73.1 110.4,64.2 104.5,70.7 	"/>
	<polygon class="st1" points="101.4,69.5 100.2,60.4 94,66.7 	"/>
	<polygon class="st1" points="65.4,67.9 58.7,63.1 59.3,71.1 	"/>
	<polygon class="st1" points="54.3,74.5 47.6,70.8 48.7,78.8 	"/>
	<polygon class="st1" points="42.6,66.5 49.7,66.9 45.5,59.4 	"/>
	<polygon class="st1" points="59.7,46.6 66.7,52.7 66.9,43.7 	"/>
	<polygon class="st1" points="73.6,42.2 77.3,50.5 81.4,42 	"/>
	<polygon class="st1" points="87.3,43.2 88.2,51.6 94.5,45.2 	"/>
	<polygon class="st1" points="107.6,52.7 103.8,60.6 113,58.3 	"/>
</g>
</svg>
