<?xml version="1.0" encoding="utf-8"?>
<!-- Generator: Adobe Illustrator 21.1.0, SVG Export Plug-In . SVG Version: 6.00 Build 0)  -->
<svg version="1.1" id="Layer_1" xmlns="http://www.w3.org/2000/svg" xmlns:xlink="http://www.w3.org/1999/xlink" x="0px" y="0px"
	 viewBox="0 0 125.7 130.2" style="enable-background:new 0 0 125.7 130.2;" xml:space="preserve">
<style type="text/css">
	.st0{fill-rule:evenodd;clip-rule:evenodd;fill:#2A2A2A;}
	.st1{fill-rule:evenodd;clip-rule:evenodd;fill:#C12127;}
	.st2{fill-rule:evenodd;clip-rule:evenodd;fill:#FFFFFF;}
</style>
<g>
	<path class="st0" d="M96.2,3.6c2.6-3.8,7.9-4.8,11.7-2.2c3.8,2.6,4.8,7.9,2.2,11.7c-1.1,1.6-11.5,10-15.2,14.3
		c-3.8,4.6-7.5,10.5-12,15c-11.8,11.7,4.9,41.7,14.3,36.4c2.2-1.9,4.2-4.1,5.7-6.7c0.3-0.5,0.6-0.9,0.8-1.3c0,0,0.8-1.2,1.2-1.8
		c1.3-2.2,2.5-3.1,2-5.6c-1.4-6.1-6.6-3.9-6.9-6.4c-0.2-1.2,0.3-3.1,1.5-3.7c1.3-0.7,3.6,0,4.3,4.3c0.2,1,1,1.7,1.8,2.4
		c0.5,0.5,1,0.6,1.3,0.5c0.7-0.3,1.9-1.7,2.4-3.4c0.3-1.3,0.9-10.3,2.8-11.4c1.4-0.8,4,0,4.2,1.7c0.1,1.7-1.4,3.4-2.4,4.7
		c-1.3,1.7-3.8,6.1-3.2,6.7c0.6,0.7,0.7,0.3,1.5-0.4c0.8-0.7,4.5-4.9,5.1-5.6c1.3-1.6,2.7-4,4.9-2.8c4.6,2.5-3,6-5,7.2
		c-2.8,1.9-4.4,3.1-6.9,5.4c-1.4,1.4-5.8,8.5-6.7,9.9l0,0l0,0l0,0c-0.1,0.1-0.1,0.1-0.1,0.2l0,0l-0.2,0.2
		c-9.4,14-11.3,11.7-11.5,15.8c-0.6,10.2,4.7,17.7,0.9,27c-1.8,4.5-3.8,10.3,2.2,11c1.4,0.2,2.7,0,4.1-0.1c1,0,2-0.1,3.1-0.1
		c0.8,0.1,1.4,0.2,1.7,0.6c0.8,0.8,0.5,1.2-0.1,1.5c-0.6,0.3-1.2,0.3-1.9,0.1c-0.6-0.1-1.2-0.2-1.7-0.2c-3.1-0.2-6.4,0-9.5,0.4
		c-1.1,0.2-2.4,0.3-3-0.3c-0.9-0.9,0.6-1.8,1-2.4c0.5-0.7,0.5-1.8,0.3-2.8c-2.5-11.1-15.9-1.7-27.7-1.7c-3.5,0-6.5-2.1-8.6,0.1
		c-1.1,1.1-1.9,4-0.9,5.4c0.4,0.6,2,1.5,1.1,2.4c-0.6,0.6-1.9,0.5-3,0.3c-3.1-0.4-6.4-0.6-9.5-0.4c-0.6,0-1.1,0.1-1.7,0.2
		c-0.6,0.1-1.3,0.1-1.9-0.1c-0.6-0.3-0.9-0.7-0.1-1.5c0.3-0.3,1-0.5,1.7-0.6c1,0,2.1,0,3.1,0.1c1.4,0,2.7,0.2,4.1,0.1
		c3.7-0.4,3.5-1.7,3.7-5.6c0.1-1.5-0.1-2.7-0.9-3.4c-0.7-0.7-1.4-1.3-2.1-2c-9.4-9.2-12.9-16.8-13.9-23.9c-2.5,4.4-6.2,8-11.8,12.1
		l-0.2,0.1v0h0c0,0-0.1,0.1-0.1,0.1l0,0l0,0l0,0l0,0c-1.1,0.8-6.9,4.7-7.9,5.8c-1.8,2.1-2.8,3.4-4.3,5.8c-0.9,1.7-3.6,8.1-5.7,4.3
		c-1-1.8,0.9-3,2.2-4.1c0.6-0.5,3.9-3.6,4.5-4.3c0.5-0.7,0.8-0.8,0.3-1.2c-0.6-0.5-4.1,1.7-5.5,2.8c-1,0.8-2.3,2.2-3.8,2.1
		c-1.4-0.1-2.1-2.2-1.5-3.4c0.8-1.6,8.2-2.4,9.3-2.7c1.4-0.5,2.5-1.4,2.7-2.1c0.1-0.3,0-0.6-0.4-1.1c-0.6-0.6-1.2-1.3-2.1-1.4
		c-3.6-0.5-4.2-2.3-3.7-3.4c0.5-1,2-1.4,3-1.3c2,0.2,0.4,4.5,5.5,5.5c2.1,0.4,2.8-0.6,4.6-1.8c0.5-0.3,1.4-1,1.4-1
		c0.3-0.2,0.6-0.5,1.1-0.7c5.5-3.5,8.8-9.6,10.6-14.9c6.5-13.1,24.9-30,16.9-45.1c-1-2-2.2-4.3-3.3-6.5c-1-2.2-1.9-4.3-2.4-6
		c-0.6-2.1-2.3-2.1-4.4-5.2c-1.9-2.8-1.6-6.5,1-8.6c2.7-2.1,6.5-1.6,8.6,1c3.6,4.7-1.3,7.6-1.7,12.5c-0.8,8.9,9,17.6,17.2,18.6
		c10.4,1.2,22-12.1,27.6-24.4C95.4,16.4,94,6.8,96.2,3.6z"/>
	<path class="st1" d="M42.7,85.8c-1.3,1.5-2,3-2.3,4.6c-0.5,2.8,0.3,5.6,1.9,8.3c2.3,4,6.2,7.2,9.9,8.6c3.1,1.2,6.6,1.7,10.1,2.1
		c3.1,0.4,5.7,0.4,8.2-0.1c2.4-0.4,4.8-1.3,7.5-2.6c2.5-1.3,4.5-2.9,6-4.8c1.7-2.2,2.9-4.8,3.3-8c0.2-1.6,0-3.1-0.8-4.1
		c-2-2.6-5.4-4.7-9.3-6c-4-1.3-8.5-2.1-12.9-2.5c-5-0.5-9.8-0.4-13.1,0.1C47.7,82.1,44.7,83.4,42.7,85.8z"/>
	<path class="st2" d="M83.8,84.9l-4.3-0.5L79,88.3c-0.1,0.9,0.6,1.8,1.5,1.9l0.9,0.1c0.9,0.1,1.8-0.6,1.9-1.5L83.8,84.9z"/>
	<path class="st2" d="M75.5,81.9l-4.3-0.5l-0.5,4c-0.1,0.9,0.6,1.8,1.5,1.9l0.9,0.1c0.9,0.1,1.8-0.6,1.9-1.5L75.5,81.9z"/>
	<path class="st2" d="M67.9,80.6l-4.3-0.5l-0.5,3.9c-0.1,0.9,0.6,1.8,1.5,1.9l0.9,0.1c0.9,0.1,1.8-0.6,1.9-1.5L67.9,80.6z"/>
	<path class="st2" d="M60.5,80.2l-4.3-0.5l-0.5,3.9c-0.1,0.9,0.6,1.8,1.5,1.9l0.9,0.1c0.9,0.1,1.8-0.6,1.9-1.5L60.5,80.2z"/>
	<path class="st2" d="M53.6,80.8l-4.3-0.5l-0.5,4c-0.1,0.9,0.6,1.8,1.5,1.9l0.9,0.1c0.9,0.1,1.8-0.6,1.9-1.5L53.6,80.8z"/>
	<path class="st2" d="M47.1,83.1l-4.3-0.5l-0.5,3.9c-0.1,0.9,0.6,1.8,1.5,1.9l0.8,0.1c0.9,0.1,1.8-0.6,1.9-1.5L47.1,83.1z"/>
	<path class="st2" d="M53.2,108.7l-4.3-0.5l0.5-3.9c0.1-0.9,1-1.6,1.9-1.5l0.9,0.1c0.9,0.1,1.6,1,1.5,1.9L53.2,108.7z"/>
	<path class="st2" d="M77.5,109.3l-4.3-0.5l0.5-3.9c0.1-0.9,1-1.6,1.9-1.5l0.9,0.1c0.9,0.1,1.6,1,1.5,1.9L77.5,109.3z"/>
	<ellipse transform="matrix(0.7873 -0.6165 0.6165 0.7873 -3.9982 31.5797)" class="st2" cx="43.8" cy="21.6" rx="5.3" ry="5.3"/>
	<ellipse transform="matrix(0.7875 -0.6163 0.6163 0.7875 -3.1005 32.1648)" class="st0" cx="45.1" cy="20.6" rx="2.3" ry="2.3"/>
	<path class="st2" d="M108.5,3.8c-2.6-2.9-7.1-3.2-10-0.6c-2.9,2.6-3.2,7.1-0.6,10c2.6,2.9,7.1,3.2,10,0.6
		C110.8,11.2,111.1,6.7,108.5,3.8z"/>
	<ellipse transform="matrix(0.7478 -0.664 0.664 0.7478 19.2758 72.6283)" class="st0" cx="105.2" cy="10.9" rx="2.4" ry="2.4"/>
	<path class="st0" d="M39.5,84.3c-1.5,1.7-2.3,3.5-2.6,5.3c-0.6,3.2,0.4,6.5,2.2,9.6c2.7,4.7,7.2,8.3,11.4,9.9
		c3.6,1.4,7.7,2,11.6,2.4c3.6,0.4,6.6,0.4,9.5-0.1c2.8-0.5,5.5-1.5,8.6-3c2.8-1.5,5.2-3.3,6.9-5.5c2-2.5,3.3-5.5,3.8-9.2
		c0.3-1.9,0-3.5-0.9-4.7c-2.4-3-6.2-5.4-10.8-6.9c-4.6-1.5-9.8-2.4-14.8-2.9c-5.8-0.5-11.3-0.4-15.1,0.2
		C45.3,80,41.8,81.6,39.5,84.3L39.5,84.3z M42.7,85.8c2-2.4,5.1-3.7,8.5-4.3c3.3-0.5,8.1-0.6,13.1-0.1c4.3,0.4,8.9,1.2,12.9,2.5
		c4,1.3,7.3,3.4,9.3,6c0.8,1,1,2.5,0.8,4.1c-0.5,3.2-1.6,5.8-3.3,8c-1.5,1.9-3.6,3.5-6,4.8c-2.7,1.3-5,2.1-7.5,2.6
		c-2.5,0.4-5.1,0.4-8.2,0.1c-3.4-0.4-6.9-0.9-10.1-2.1c-3.7-1.4-7.6-4.6-9.9-8.6c-1.6-2.7-2.4-5.6-1.9-8.3
		C40.7,88.8,41.4,87.3,42.7,85.8z"/>
</g>
</svg>
