<?xml version="1.0" encoding="utf-8"?>
<!-- Generator: Adobe Illustrator 21.1.0, SVG Export Plug-In . SVG Version: 6.00 Build 0)  -->
<svg version="1.1" id="Layer_1" xmlns="http://www.w3.org/2000/svg" xmlns:xlink="http://www.w3.org/1999/xlink" x="0px" y="0px"
	 viewBox="0 0 99.1 120.5" style="enable-background:new 0 0 99.1 120.5;" xml:space="preserve">
<style type="text/css">
	.st0{fill-rule:evenodd;clip-rule:evenodd;fill:#2A2A2A;}
	.st1{fill-rule:evenodd;clip-rule:evenodd;fill:#FFFFFF;}
	.st2{fill-rule:evenodd;clip-rule:evenodd;fill:#C12127;}
	.st3{fill-rule:evenodd;clip-rule:evenodd;}
</style>
<g>
	<path class="st0" d="M49.5,113.4c-1.4,0.3-2.7,0.7-3.7,1c-0.5,0.1-1,0.3-1.4,0.8c-0.7,0.7-1.3,2.6-0.6,3.5c0.3,0.4,1.3,1,0.7,1.6
		c-0.3,0.3-1,0.3-1.7,0.2c-0.5,0.1-1.2,0-1.8-0.1c-0.9-0.1-1.9-0.2-2.9-0.3c-0.6,0-1.3,0-1.9,0.1c-0.4,0-0.7,0.1-1.1,0.1
		c-0.4,0.1-0.8,0.1-1.2-0.1c-0.1,0-0.2-0.1-0.2-0.1l-0.2,0c-0.4,0-0.9,0.1-1.4,0.2c-0.5,0.1-1,0.1-1.5-0.1c-0.5-0.2-0.7-0.6-0.1-1.2
		c0.3-0.3,0.8-0.4,1.4-0.4c0.8,0,1.6,0,2.4,0c1.1,0,2.2,0.2,3.3,0.1c3-0.3,2.8-1.4,2.9-4.5c0.1-1.1-0.1-2-0.5-2.5
		c-2.3-1.9-4.1-3.7-5.4-5.5c-0.1-0.2-0.2-0.4-0.4-0.6c-4.6-5.5-6.5-10.2-7.1-14.8c-2,3.5-4.9,6.4-9.4,9.6l-0.2,0.1l0,0
		c0,0-0.1,0-0.1,0.1l0,0l0,0l0,0v0c-0.9,0.6-5.5,3.7-6.3,4.6c-1.4,1.7-2.2,2.7-3.4,4.6c-0.7,1.4-2.8,6.4-4.6,3.5
		C2.4,112,4,111.1,5,110.2c0.5-0.4,3.1-2.9,3.5-3.5c0.4-0.6,0.7-0.6,0.2-1c-0.5-0.4-3.3,1.4-4.3,2.3c-0.8,0.7-1.9,1.7-3,1.7
		c-1.1-0.1-1.7-1.7-1.2-2.7c0.6-1.3,6.5-1.9,7.4-2.1c1.1-0.4,2-1.1,2.2-1.6c0.1-0.2,0-0.5-0.3-0.8c-0.5-0.5-1-1-1.6-1.1
		c-2.8-0.4-3.3-1.8-2.9-2.7c0.4-0.8,1.6-1.1,2.4-1.1c1.6,0.1,0.3,3.6,4.3,4.3c1.7,0.3,2.2-0.5,3.6-1.4c0.4-0.3,1.1-0.8,1.1-0.8
		c0.2-0.2,0.5-0.4,0.8-0.6c4.3-2.7,6.9-7.4,8.4-11.6c1.6-4.6-1.1-53.4-1.1-62l0,0C24.4,11.4,35.8,0,49.9,0
		c14.1,0,25.5,11.4,25.5,25.5c0,15.2-5,52.5-1.7,62c1.5,4.2,4.1,8.8,8.4,11.6c0.3,0.2,0.6,0.4,0.8,0.6c0,0,0.7,0.6,1.1,0.8
		c1.4,0.9,2,1.7,3.6,1.4c4.1-0.8,2.7-4.2,4.3-4.3c0.8-0.1,2,0.3,2.4,1.1c0.4,0.9-0.1,2.3-2.9,2.7c-0.7,0.1-1.2,0.6-1.6,1.1
		c-0.3,0.3-0.4,0.6-0.3,0.8c0.2,0.5,1,1.3,2.2,1.6c0.8,0.2,6.7,0.8,7.4,2.1c0.5,1-0.1,2.6-1.2,2.7c-1.1,0.1-2.2-1-3-1.7
		c-1.1-0.9-3.9-2.6-4.3-2.3c-0.4,0.4-0.2,0.4,0.2,1c0.4,0.6,3.1,3.1,3.5,3.5c1,0.9,2.5,1.8,1.7,3.3c-1.7,3-3.8-2.1-4.6-3.5
		c-1.1-1.9-2-2.9-3.4-4.6c-0.9-0.9-5.4-4-6.3-4.6v0l0,0l0,0l0,0c0,0-0.1-0.1-0.1-0.1l0,0v0l-0.2-0.1c-4.5-3.3-7.4-6.2-9.4-9.6
		c-0.6,4.5-2.5,9.3-7.1,14.8c-0.1,0.2-0.2,0.4-0.4,0.6c-1.3,1.8-3.1,3.6-5.4,5.5c-0.5,0.6-0.6,1.4-0.5,2.5c0.2,3.1,0,4.1,2.9,4.5
		c1.1,0.1,2.2,0,3.3-0.1c0.8,0,1.6,0,2.4,0c0.6,0.1,1.1,0.2,1.4,0.4c0.6,0.6,0.4,1-0.1,1.2c-0.5,0.2-1,0.2-1.5,0.1
		c-0.5-0.1-0.9-0.1-1.4-0.2l-0.2,0c-0.1,0.1-0.1,0.1-0.2,0.1c-0.4,0.2-0.8,0.2-1.2,0.1c-0.4-0.1-0.8-0.1-1.1-0.1
		c-0.6,0-1.2-0.1-1.9-0.1c-1,0.1-2,0.2-2.9,0.3c-0.6,0.1-1.2,0.2-1.8,0.1c-0.6,0.1-1.3,0.1-1.7-0.2c-0.6-0.6,0.4-1.2,0.7-1.6
		c0.7-0.9,0.1-2.8-0.6-3.5c-0.4-0.5-0.9-0.7-1.4-0.8C52.3,114.1,50.9,113.7,49.5,113.4z"/>
	<ellipse class="st1" cx="49.5" cy="63.1" rx="17.2" ry="17.2"/>
	<circle class="st1" cx="49.5" cy="22.6" r="18.5"/>
	<circle class="st0" cx="49.5" cy="63.1" r="6.9"/>
	<circle class="st0" cx="49.5" cy="22.6" r="7.4"/>
	<path class="st2" d="M35.4,89.5c-0.8-0.3-2.5-0.8-3.1,0c-0.1,0.2-0.2,0.5-0.2,0.9c0,1.7,1,3.8,1.9,5.2c1.1,1.8,2.4,2.8,3.9,3.7
		c4.4,2.7,9.1,3.1,14.1,2c4.1-0.9,7.6-2.8,10.8-6.2c1.9-2,3.8-4.8,4.6-7.7c0.2-0.9,0.4-1.8,0.4-2.6c0-0.6-0.1-1.2-0.3-1.9
		c-0.4-0.9-0.6-1.4-1-1.6c-0.6-0.4-1.6,0.2-2.1,0.6c-0.7,0.5-1.4,1.1-2,1.7c-1.4,1.3-2.9,2.6-4.4,3.8c-3.1,2.4-6.4,3.9-10.7,4.4
		C43.4,92,39,90.8,35.4,89.5z"/>
	<polygon class="st1" points="46.3,102.2 49.1,96.8 51.4,102.2 	"/>
	<polygon class="st1" points="53,101.3 53.5,95.3 57.9,99.7 	"/>
	<path class="st3" d="M69.1,82.2c-0.4-0.9-0.8-1.9-1.6-2.4c-1.3-0.8-2.8-0.2-4,0.6c-0.8,0.5-1.5,1.2-2.2,1.8
		c-1.4,1.3-2.8,2.5-4.3,3.7c-3,2.3-6,3.7-9.9,4c-3.6,0.3-7.8-0.9-11.1-2.1l0,0l0,0c-0.5-0.2-1-0.3-1.5-0.4c-1.3-0.2-2.6-0.1-3.5,1
		c-0.4,0.6-0.5,1.3-0.5,2c0.1,2.1,1.1,4.3,2.2,6.1c1.2,1.9,2.6,3.1,4.4,4.3c4.8,3,9.9,3.4,15.4,2.2c4.7-1.1,8.4-3.2,11.7-6.7
		c2.1-2.3,4.2-5.3,5-8.4c0.3-1,0.4-2.1,0.4-3.1c0-0.8-0.1-1.5-0.3-2.3l0-0.1L69.1,82.2L69.1,82.2L69.1,82.2z M32.3,89.5L32.3,89.5
		c0.7-0.9,2.3-0.3,3.1,0c3.6,1.3,8,2.5,11.9,2.2c4.3-0.4,7.6-2,10.7-4.4c1.6-1.2,3-2.5,4.4-3.8c0.6-0.6,1.3-1.2,2-1.7
		c0.5-0.4,1.5-1,2.1-0.6c0.3,0.2,0.6,0.7,1,1.6c0.2,0.8,0.3,1.3,0.3,1.9c0,0.9-0.1,1.8-0.4,2.6c-0.8,2.9-2.8,5.7-4.6,7.7
		c-3.2,3.5-6.8,5.3-10.8,6.2c-5,1.2-9.7,0.8-14.1-2c-1.5-0.9-2.8-2-3.9-3.7c-0.9-1.4-1.9-3.5-1.9-5.2C32.1,90,32.1,89.7,32.3,89.5
		L32.3,89.5z"/>
</g>
</svg>
