<?xml version="1.0" encoding="utf-8"?>
<!-- Generator: Adobe Illustrator 21.1.0, SVG Export Plug-In . SVG Version: 6.00 Build 0)  -->
<svg version="1.1" id="Layer_1" xmlns="http://www.w3.org/2000/svg" xmlns:xlink="http://www.w3.org/1999/xlink" x="0px" y="0px"
	 viewBox="0 0 153.1 126.2" style="enable-background:new 0 0 153.1 126.2;" xml:space="preserve">
<style type="text/css">
	.st0{fill-rule:evenodd;clip-rule:evenodd;fill:#2A2A2A;}
	.st1{fill-rule:evenodd;clip-rule:evenodd;fill:#FFFFFF;}
	.st2{fill-rule:evenodd;clip-rule:evenodd;fill:#C12127;}
</style>
<g>
	<path class="st0" d="M37.8,69.5c-0.8-0.7-1.6-1.3-2.6-1.9c-2.8-1.9-5.2-6.2-8.7-7.2c-6.3-1.8-5.1-1.4-9.1,2.2
		C13.1,66.4,6.5,66,2.7,61.8c-3.8-4.3-3.5-10.9,0.8-14.7c4.3-3.9,10.9-3.5,14.7,0.8c3.9,4.3,14,11.3,19.6,15c2.6,1.7,4.3,3.4,5.7,5
		c2.5,3,4.7,4.1,6.6,4.1c3.1-0.1,5.9-2.7,6.8-5.6c-0.4-4.5-1.8-9-4.3-13.5c-1.7-3-5.2-6.2-9.3-9.3c-13.4-10.4-7.7-2.2-23.2-3.1
		C8.9,39.7,0.4,30.2,1.1,19C1.7,7.9,11.3-0.6,22.4,0c8.3,0.5,15.2,6,17.8,13.4C44.7,25.9,34,28,47.1,38.1
		c16.8,13,6.4,19.5,21.6,23.3c6.8,1.7,16,2.7,20-1.3c8.8-8.6,12-8.7,18.4-21.7c4.2-8.5,13.1-14.1,23.2-13.5
		c13.4,0.8,23.6,12.3,22.8,25.6c-0.8,13.4-12.2,23.6-25.6,22.8c-14.1-0.8-16.7-15.4-26.6-12.8c-6.7,1.7,0.1,18.9,6.8,31.3
		c2.9,5.4,5.7,11.4,11.1,14.6c0.6,0.4,1.2,0.5,2.1,0.4c4.2-0.8,2.8-4.3,4.5-4.5c0.8-0.1,2.1,0.3,2.5,1.1c0.4,0.9-0.1,2.4-3,2.8
		c-0.7,0.1-1.2,0.6-1.7,1.2c-0.3,0.4-0.4,0.6-0.4,0.9c0.2,0.5,1.1,1.3,2.3,1.7c0.9,0.2,7,0.8,7.6,2.2c0.5,1-0.1,2.7-1.3,2.8
		c-1.2,0.1-2.3-1.1-3.1-1.7c-1.1-0.9-4-2.7-4.5-2.3c-0.5,0.4-0.2,0.4,0.2,1c0.4,0.6,3.2,3.2,3.7,3.6c1,0.9,2.6,1.9,1.8,3.4
		c-1.8,3.1-4-2.2-4.7-3.6c-1.2-2-2-3-3.5-4.8c-0.4-0.5-1.8-1.5-3.1-2.4c-6.4-4.5-7.5-4.8-12.5-14.1c-3.1-5.8-2.1-4.9-3.1,1.1
		c-1.1,6.2-3.3,14.4-9.1,20.1c-0.5,0.5-1.1,1.1-1.7,1.6c-0.6,0.6-0.8,1.5-0.7,2.8c0.2,3.2,0,4.2,3,4.6c1.1,0.1,2.2,0,3.4-0.1
		c0.8,0,1.7,0,2.5,0c0.6,0.1,1.1,0.2,1.4,0.5c0.6,0.6,0.4,1-0.1,1.2c-0.5,0.2-1,0.2-1.5,0.1c-0.5-0.1-1-0.2-1.4-0.2
		c-2.5-0.2-5.3,0-7.8,0.3c-0.9,0.1-2,0.2-2.5-0.3c-0.7-0.7,0.5-1.5,0.9-2c0.8-1.2,0.1-3.5-0.8-4.4c-2.1-2.3-16.7-0.3-19.4,0.4
		c-0.5,0.1-1,0.4-1.4,0.8c-0.7,0.8-1.3,2.7-0.6,3.6c0.3,0.4,1.3,1,0.7,1.6c-0.4,0.4-1.3,0.3-2,0.2c-2.1-0.3-4.4-0.4-6.4-0.3
		c-0.4,0-0.7,0.1-1.2,0.2c-0.4,0.1-0.9,0.1-1.3-0.1c-0.4-0.2-0.6-0.5-0.1-1c0.2-0.2,0.6-0.3,1.2-0.4c0.7,0,1.4,0,2.1,0
		c0.9,0,1.8,0.2,2.8,0c2.5-0.3,2.3-1.2,2.5-3.8c0.1-1-0.1-1.8-0.6-2.3c-0.5-0.5-1-0.9-1.4-1.3c-0.8-0.8-1.5-1.5-2.2-2.3
		c-1.5-1.2-2.9-2.7-4.1-4.5c-2.7-4.1-1.4-5.7-4.2-0.9c-0.5,0.8-0.9,1.6-1.4,2.4c-1.7,2.9-1.1,2.4-3.8,0
		c-7.5-6.6-15.1-13.3-22.6-19.9c-1.4-1.2-2.1-3.2-2.6-3.7c-1.6-1.5-2.6-2.3-4.4-3.6c-1.3-0.8-6.2-3.1-3.2-4.7
		c1.4-0.8,2.3,0.8,3.1,1.8c0.4,0.5,2.7,3.2,3.2,3.7c0.5,0.4,0.6,0.7,1,0.3c0.4-0.4-1.2-3.3-2-4.4c-0.6-0.8-1.6-1.9-1.5-3
		c0.1-1.1,1.8-1.6,2.7-1.1c1.3,0.7,1.6,6.6,1.8,7.4c0.3,1.1,1,2,1.5,2.2c0.2,0.1,0.5,0,0.9-0.3c0.5-0.4,1.1-0.9,1.2-1.6
		c0.5-2.8,2-3.2,2.8-2.8c0.8,0.4,1.1,1.6,0.9,2.4c-0.2,1.6-3.5,0.1-4.5,4.1c-0.2,1-0.2,1.8,0.4,2.3c6.3,5.2,12.7,10.4,19,15.6
		c3.2,2.6,3.1,3.8,4.4-0.1c1.1-3.2,1.5-5.6,1.3-7.8C49.7,87.6,46.4,77,37.8,69.5z"/>
	<path class="st1" d="M11.7,63.6c-4.8,0.7-9.2-2.7-9.9-7.5c-0.7-4.8,2.7-9.2,7.5-9.9c4.8-0.7,9.2,2.7,9.9,7.5
		C19.8,58.5,16.5,63,11.7,63.6z"/>
	<path class="st0" d="M9.9,63.2c-1.6,0.2-3.1-0.9-3.3-2.5C6.3,59,7.4,57.6,9,57.3c1.6-0.2,3.1,0.9,3.3,2.5
		C12.6,61.5,11.5,62.9,9.9,63.2z"/>
	<path class="st1" d="M36.3,29.6c5.4-7.9,3.2-18.6-4.8-23.9c-8-5.3-18.9-3.2-24.3,4.8C1.8,18.3,4,29,12,34.3
		C20.1,39.6,30.9,37.5,36.3,29.6z"/>
	<path class="st1" d="M108.6,49.5c0,11.6,9.5,20.8,21.1,20.6c11.6-0.2,21.1-9.7,21.1-21.3c0-11.6-9.5-20.8-21.1-20.6
		C118,28.4,108.6,37.9,108.6,49.5z"/>
	<path class="st0" d="M34.8,28.3c1.2-1.8,0.7-4.2-1.1-5.4c-1.8-1.2-4.3-0.7-5.5,1.1c-1.2,1.8-0.7,4.2,1.1,5.4
		C31.1,30.6,33.6,30.1,34.8,28.3z"/>
	<path class="st0" d="M111,49.7c0,2.6,2.1,4.7,4.8,4.7c2.6,0,4.8-2.2,4.8-4.8c0-2.6-2.1-4.7-4.8-4.7C113.1,45,111,47.1,111,49.7z"/>
	<path class="st2" d="M95.6,86.4c1.1-0.4,3.4-1.2,4.3,0c0.2,0.3,0.3,0.6,0.2,1.2c-0.1,2.4-1.4,5.2-2.6,7.2c-1.5,2.4-3.2,3.9-5.3,5.1
		c-6.1,3.7-12.4,4.3-19.4,2.7c-5.6-1.3-10.4-3.8-14.9-8.6c-2.6-2.7-5.3-6.6-6.4-10.5c-0.3-1.2-0.5-2.4-0.5-3.6
		c0-0.8,0.1-1.6,0.4-2.6c0.5-1.2,0.9-1.9,1.3-2.2c0.8-0.5,2.2,0.3,2.9,0.8c1,0.7,1.9,1.5,2.7,2.3c1.9,1.8,3.9,3.6,6.1,5.2
		c4.3,3.3,8.8,5.4,14.7,6C84.6,89.9,90.7,88.2,95.6,86.4z"/>
	<polygon class="st1" points="55.7,75.2 54.3,81.1 59.6,78.3 	"/>
	<polygon class="st1" points="61.2,79.8 60,85.8 65.4,83.2 	"/>
	<polygon class="st1" points="84,88.9 87.2,93.4 88.6,88.1 	"/>
	<polygon class="st1" points="92.6,87.1 96.1,91 97.1,85.6 	"/>
	<polygon class="st1" points="98.3,94.8 93.8,93 94.8,98.7 	"/>
	<polygon class="st1" points="82.8,103.8 79.7,98.3 77.6,104 	"/>
	<polygon class="st1" points="72.9,103.5 72.4,97.3 67.9,101.8 	"/>
	<polygon class="st1" points="64.4,99.8 65.7,94.1 60.2,96.9 	"/>
	<polygon class="st1" points="53.5,89.1 57.7,84.9 51.3,84.3 	"/>
	<path class="st0" d="M99.9,86.4c0.2,0.3,0.3,0.6,0.2,1.2c-0.1,2.4-1.4,5.2-2.6,7.2c-1.5,2.4-3.2,3.9-5.3,5.1
		c-6.1,3.7-12.4,4.3-19.4,2.7c-5.6-1.3-10.4-3.8-14.9-8.6c-2.6-2.7-5.3-6.6-6.4-10.5c-0.3-1.2-0.5-2.4-0.5-3.6
		c0-0.8,0.1-1.6,0.4-2.6c0.5-1.2,0.9-1.9,1.3-2.2c0.8-0.5,2.2,0.3,2.9,0.8c1,0.7,1.9,1.5,2.7,2.3c1.9,1.8,3.9,3.6,6.1,5.2
		c4.3,3.3,8.8,5.4,14.7,6c5.3,0.5,11.4-1.2,16.3-3C96.7,86,99,85.2,99.9,86.4L99.9,86.4L99.9,86.4z M49.4,76.4l-0.1,0.2l0,0.2
		c-0.2,1-0.4,2.1-0.4,3.1c0,1.4,0.2,2.9,0.6,4.3c1.2,4.2,4,8.3,6.9,11.5c4.5,4.9,9.6,7.8,16.1,9.3c7.5,1.8,14.5,1.1,21.1-3
		c2.5-1.6,4.5-3.3,6.1-5.9c1.5-2.4,2.9-5.5,3-8.3c0-1-0.1-1.9-0.7-2.7c-1.2-1.5-3-1.7-4.8-1.4c-0.7,0.1-1.4,0.4-2.1,0.6l0,0l0,0
		c-4.6,1.7-10.4,3.3-15.3,2.9c-5.2-0.5-9.4-2.4-13.5-5.5c-2.1-1.6-4-3.3-5.9-5.1c-1-0.9-1.9-1.8-3-2.5c-1.6-1.1-3.7-2-5.5-0.9
		C50.4,73.9,49.9,75.2,49.4,76.4L49.4,76.4z"/>
</g>
</svg>
