<?xml version="1.0" encoding="utf-8"?>
<!-- Generator: Adobe Illustrator 21.1.0, SVG Export Plug-In . SVG Version: 6.00 Build 0)  -->
<svg version="1.1" id="Layer_1" xmlns="http://www.w3.org/2000/svg" xmlns:xlink="http://www.w3.org/1999/xlink" x="0px" y="0px"
	 viewBox="0 0 475.5 410.4" style="enable-background:new 0 0 475.5 410.4;" xml:space="preserve">
<style type="text/css">
	.st0{fill-rule:evenodd;clip-rule:evenodd;fill:#2A2A2A;}
	.st1{fill-rule:evenodd;clip-rule:evenodd;fill:#FFFFFF;}
	.st2{fill-rule:evenodd;clip-rule:evenodd;fill:#C12127;}
</style>
<g>
	<path class="st0" d="M67.9,120.5c-3.2-3.2-10.2-3.3-16.3,8.4c-1.4,2.7-4.5,4-7.4,5.3c-2,0.9-3.3,0.9-4.2,0.2
		c-1.9-1.5-3.8-6.6-3.6-12c0.4-3.9,7.1-30.4,2.5-35.2c-3.4-3.5-11.6-3.9-13.6,1c-2,4.8,0.9,11.1,2.5,15.6c2.2,6.1,5.3,20.9,2.9,22.3
		c-2.3,1.3-2.1,0.2-3.9-2.5c-1.8-2.6-8.3-18.1-9.3-20.8C15.2,97,13.5,88.8,6.1,90.2c-15.5,2.8,3,19.8,7.7,25.2
		c6.4,7.9,9.6,13.1,14.7,21.9c1.9,3.6,5.4,16.4,7.8,25.5c2.5,9.3,4.4,15.6,8.3,24.8c15.6,36.9,36.9,53,83,72.2
		c29,14,12.5,78.6,10.9,109.7c-1.1,20,0.3,26.5-18.8,28.8c-7,0.8-14-0.1-21.1-0.3c-5.3-0.2-10.5-0.3-15.8-0.3
		c-4,0.5-7.1,1.2-8.8,2.9c-4,3.9-2.3,6.3,0.6,7.6c3.2,1.4,6.4,1.3,9.6,0.7c3.2-0.6,6.1-1,8.9-1.2c15.7-1.2,33.1-0.2,48.7,2
		c5.7,0.8,12.3,1.5,15.4-1.5c4.7-4.5-3.3-9.3-5.4-12.2c-2.4-3.3-1.6-13.3,0.5-25.3c7.6-42.3,23-14.6,85.9-14.6
		c64.4,0,78.1-30.9,86.3,14.6c2.2,12.1,2.9,22,0.5,25.3c-2.1,2.9-10.1,7.7-5.4,12.2c3.1,3,9.7,2.3,15.4,1.5c15.7-2.2,33-3.2,48.7-2
		c2.8,0.2,5.7,0.6,8.9,1.2c3.2,0.6,6.4,0.7,9.6-0.7c3-1.4,4.7-3.7,0.6-7.6c-1.7-1.7-4.9-2.4-8.8-2.9c-5.3,0-10.5,0.1-15.8,0.3
		c-7.1,0.2-14,1.2-21.1,0.3c-19.1-2.3-17.8-8.8-18.8-28.8l4.8-84.2c2.2-37.8-4.6-24.6,26.3-39.9c31.6-15.6,48.5-31.9,61.4-62.5
		c3.9-9.2,5.8-15.5,8.3-24.8c2.4-9.1,5.9-21.9,7.8-25.5c5.1-8.8,8.2-14,14.7-21.9c4.7-5.3,23.2-22.4,7.7-25.2
		c-7.4-1.3-9.1,6.8-11.4,12.6c-1,2.6-7.5,18.1-9.3,20.8c-1.8,2.6-1.7,3.8-3.9,2.5c-2.4-1.4,0.7-16.2,2.9-22.3
		c1.6-4.5,4.6-10.8,2.5-15.6c-2-4.9-10.2-4.5-13.6-1c-4.7,4.8,2.1,31.3,2.5,35.2c0.2,5.4-1.8,10.5-3.6,12c-0.8,0.7-2.2,0.7-4.2-0.2
		c-2.9-1.2-6-2.5-7.4-5.3c-6.1-11.7-13.1-11.6-16.3-8.4c-2.8,2.8-2.4,8.7-0.9,12c3.1,6.7,15.8-4.4,25.6,11.9
		c4,6.6,1.3,10.4-0.4,17.9c-1.9,8.2-3.3,13.1-7.6,21.2c-14.3,27.1-42.5,45.8-57.8,52.3c-26,11-20-2.7-18.8-23.3l3.1-54.3
		c0.5-33.6,18.1-79.6,18.1-84.8c0-19.2-15.6-35.5-34.8-34.8c-53.2,1.9-38,54-20.3,72.4c26.5,27.6,26,84.6-13.8,89.2
		c-10.5,1.2-20.1-8.4-17.9-49c2.1-38.3-7.7-61.1-7.7-99.5c0-26-21.1-47-47-47c-26,0-47,21.1-47,47c0,34,27,25.3,23.9,83.4
		c-0.7,12.6-2.6,27.6-6.2,45.6c-1.3,6.7-3.9,9.1-9,10c-15.5,2.9-13.9-64.9-13.5-75.1c0.4-10.7,0.5-27.9-5.6-37.2
		c-5.4-8.2-14.7-13.6-25.2-13.6c-16.6,0-30.1,13.5-30.1,30.1c0,11,5.9,20.6,14.6,25.8c14.7,8.9,15.8-1.1,18.9,25.2
		c2.2,31.1,11.8,67.2-11.7,93.4c-3.9,4.3-8.9,5.2-19.9,3.6c-10.9-1.6-48.2-22.1-65.4-54.7c-4.3-8.1-5.7-13-7.6-21.2
		c-1.7-7.5-4.4-11.3-0.4-17.9c9.8-16.3,22.5-5.2,25.6-11.9C70.4,129.1,70.7,123.2,67.9,120.5z"/>
	<polygon class="st1" points="178.6,247.5 192.9,251.3 178.9,261.5 	"/>
	<polygon class="st1" points="183.5,290.4 203.2,287.4 192.2,306.3 	"/>
	<polygon class="st1" points="210.6,321.6 221.4,304 225.2,327.4 	"/>
	<polygon class="st1" points="251.6,327.2 246.9,297.5 268.5,318.7 	"/>
	<polygon class="st1" points="281.5,305.7 270.9,286.2 289.3,288.7 	"/>
	<polygon class="st1" points="292.7,270.5 284.7,263.5 293.3,257.2 	"/>
	<path class="st2" d="M236.2,336.3c-19,0-36.9-7.5-49-25.4C181,301.8,177,291,175,279.6c-2.2-12.3-2-25-0.2-37.3
		c0.4-2.9,0.9-5.9,1.5-8.8c0.2-0.9,0.3-1.7,0.6-2.6c0.1-0.3,0.2-0.7,0.3-0.9c0.4-0.9,1.2-1.5,2.1-1.3c2.2,0.4,1.8,3.6,1.7,5.4
		c-0.2,3.2-0.6,6.5-0.9,9.8c-2.3,21.4,1,44.5,13.1,61.3c10.9,15.2,26.4,21.5,42.9,21.5c15.9,0,30.7-5.9,41.5-20.3
		c12.7-16.9,16.6-40.9,15-62.8c-0.2-3.5-0.5-7.1-0.5-10.6c0-1.9-0.2-5.3,2-5.6c1.3-0.2,2.1,1.1,2.4,2.4c0.2,0.9,0.4,1.8,0.6,2.7
		c0.5,3,0.9,6.1,1.3,9.1c2.8,24.6-1,51.7-15,71C271.3,329.2,254.4,336.3,236.2,336.3z"/>
	<circle class="st1" cx="226.2" cy="46.1" r="41.5"/>
	<circle class="st2" cx="223.9" cy="54.8" r="23.5"/>
	<circle class="st1" cx="334.1" cy="68.7" r="30.1"/>
	<circle class="st2" cx="326.6" cy="79.4" r="12.4"/>
	<circle class="st1" cx="144.9" cy="90.2" r="24.3"/>
	<circle class="st2" cx="144.9" cy="90.2" r="11.7"/>
</g>
</svg>
