<?xml version="1.0" encoding="utf-8"?>
<!-- Generator: Adobe Illustrator 21.1.0, SVG Export Plug-In . SVG Version: 6.00 Build 0)  -->
<svg version="1.1" id="Layer_1" xmlns="http://www.w3.org/2000/svg" xmlns:xlink="http://www.w3.org/1999/xlink" x="0px" y="0px"
	 viewBox="0 0 144.3 112.4" style="enable-background:new 0 0 144.3 112.4;" xml:space="preserve">
<style type="text/css">
	.st0{fill-rule:evenodd;clip-rule:evenodd;fill:#2A2A2A;}
	.st1{fill-rule:evenodd;clip-rule:evenodd;fill:#FFFFFF;}
	.st2{fill-rule:evenodd;clip-rule:evenodd;fill:#C12127;}
</style>
<g>
	<path class="st0" d="M33.5,63.8c-3.2,4.4-6.1,8.5-11.2,10.4c-1.8,0.7-3.7,1.2-5.5,1.8c-1,0.4-1.8,0.6-3-0.1
		c-3.9-2.1-1.5-5.2-3.1-5.8c-0.8-0.3-2.2-0.3-2.8,0.4c-0.7,0.8-0.6,2.4,2.2,3.7c0.7,0.3,1,1,1.3,1.7c0.2,0.5,0.2,0.8,0.1,1
		c-0.3,0.5-1.5,1-2.7,1c-0.9,0-7.2-1.2-8.3-0.1c-0.8,0.8-0.7,2.8,0.4,3.2c1.1,0.4,2.6-0.4,3.6-0.8c1.4-0.6,4.8-1.5,5.2-1
		c0.3,0.5,0.1,0.5-0.5,1c-0.6,0.5-4.1,2.2-4.7,2.5c-1.3,0.6-3.2,1.1-2.8,2.8c0.9,3.6,4.6-1,5.8-2.2c1.8-1.6,2.9-2.4,4.9-3.7
		c0.7-0.4,3-1.2,5-1.9c1.9-0.6,3.7-1.2,5.6-1.9c6.3-2.5,10.2-5.3,13.4-9.7c1.5-2.1,2.6-2.6,3.5-2.2c0.1,0.5-0.1,1.5-0.2,3.3
		c-0.3,3.5-1.2,6.8-2.4,10.3h0c-4.8,13.6,5.1,19.6,4.7,28.5c-0.2,3.2,0,4.3-3,4.6c-1.1,0.1-2.3,0-3.4-0.1c-0.8,0-1.7,0-2.5,0
		c-0.6,0.1-1.1,0.2-1.4,0.5c-0.6,0.6-0.4,1,0.1,1.2c0.5,0.2,1,0.2,1.6,0.1c0.5-0.1,1-0.1,1.4-0.2c0.1,0,0.1,0,0.2,0
		c0.1,0.1,0.2,0.1,0.2,0.2c0.4,0.2,0.8,0.2,1.3,0.1c0.4-0.1,0.8-0.1,1.2-0.2c0.6,0,1.3-0.1,1.9-0.1c1,0.1,2,0.2,3,0.3
		c0.6,0.1,1.3,0.2,1.8,0.1c0.7,0.1,1.4,0.1,1.7-0.2c0.6-0.6-0.4-1.2-0.7-1.6c-0.7-1-0.1-2.9,0.6-3.7c0.4-0.5,0.9-0.7,1.4-0.8
		c11.4-2.8,24.5,0.1,35.7-0.4c11.3,0.5,19.5-2.4,31,0.4c0.5,0.1,1,0.4,1.4,0.8c0.7,0.8,1.3,2.7,0.6,3.7c-0.3,0.4-1.3,1-0.7,1.6
		c0.4,0.3,1.1,0.3,1.7,0.2c0.5,0.1,1.2,0,1.8-0.1c1-0.1,2-0.2,3-0.3c0.7,0,1.3,0,1.9,0.1c0.4,0,0.8,0.1,1.2,0.2
		c0.4,0.1,0.9,0.1,1.3-0.1c0.1,0,0.2-0.1,0.2-0.2c0.1,0,0.1,0,0.2,0c0.5,0,0.9,0.1,1.4,0.2c0.5,0.1,1,0.1,1.6-0.1
		c0.5-0.2,0.7-0.6,0.1-1.2c-0.3-0.3-0.8-0.4-1.4-0.5c-0.9,0-1.7,0-2.5,0c-1.1,0-2.3,0.2-3.4,0.1c-3.1-0.4-2.9-1.4-3-4.6
		c-0.4-7.7,3.1-8.5,3.1-16.5c0-8.5-4.1-12.8-3.9-26.1c0-2.1,0.9-3,5.2,0.3c2.9,1.5,5.7,2.5,8.6,3.1c2.7,0.6,2.9,0.8,2.9-1.1
		c0-1,0.2-1.5,0.5-2.5c1.4-3.8,2.1-8.1,2.4-13.3c0.2-2.8,0.1-5.4,0.1-8.2c0-2.9,0.1-6.3,0.3-7.4c0.9-3.2,1.4-5.1,2.8-8.1
		c1-2.1,5.4-8.9,0.3-8.5c-2.4,0.2-2.3,2.9-2.5,4.9c-0.1,0.9-0.8,6.3-1.2,7.3c-0.4,1-0.2,1.3-1,1.1c-0.9-0.2-1.1-5.1-0.9-7.2
		c0.1-1.5,0.5-3.8-0.5-5.1c-1-1.4-3.6-0.6-4.3,0.8c-1.1,1.9,3.2,9.6,3.7,10.8c0.5,1.7,0.3,3.4-0.1,4.1c-0.2,0.3-0.6,0.4-1.3,0.3
		c-1-0.2-2.1-0.3-2.8-1c-2.9-3.2-5.1-2.6-5.8-1.3c-0.6,1.1,0,2.9,0.7,3.8c1.5,1.8,4.6-2.7,9,1.6c1.3,1.3,1.4,2.4,1.4,3.9
		c-0.1,2.7,0.1,5.3,0,8c-0.2,4.8-1.6,9.2-3.7,13.4c-3-0.9-5.9-2.1-8.8-3.5c-4-1.9-4.4-2.1-4.9-5.5c-0.4-2.1-0.7-2.8,1.9-2.5
		c15.2,1.4,11-1.3-1-2.2c-2-0.1-3.5-2.5-0.1-2.4c6.8,0.1,6-2.2-0.9-2.2c-2.5,0-3.8-1.6-0.4-2c13.4-1.5,10.1-3.5-1.2-2
		c-3.6,0.5-3.8-0.9-1.1-1.9c6.8-2.7,5.2-3.5-1-2.2c-2.5,0.5-4.9-1.2-1.1-2.6c16.2-5.7,10.9-6.3-1.5-1.7c-3,1.1-4.7,0-1-1.5
		c5.2-2.2,3.1-3.7-1.7-1.6c-2.9,1.3-4.7,0.6-1.3-1.6c18.3-11.7,10-9.3-1.8-1.3c-2.8,1.9-4.9,1-1.6-1.4c8.4-6.1,5.9-7.1-1.6-1.5
		c-3.2,2.4-5.2,1.8-1.9-1.7c17.9-18.6,6.7-10.6-2.2-0.7c-2.8,3.2-5.8,2.1-2.8-1.3c9-10.1,5.1-9.2-2.3-0.6c-2.2,2.6-4.9,2.9-2.4-0.8
		C103,0.8,97,5.4,89.4,17.4c-1.9,3-3.6,3.5-1.5-0.4c7.1-12.6,3.5-10.9-2.2-0.4c-1.6,3-2.4,3.8-1-0.3c8.7-24.4,1.9-12.9-2.2,0.1
		c-1.1,3.6-2.4,3.7-1.3-0.1c5-16.6,1.1-11.9-2.4,0.6c-0.7,2.4-1,2.8-0.8-0.1c1.9-25.6-1-19.3-2.1,0.2c-0.2,3.1-0.9,3-0.7,0
		c1.4-19-1.4-13.5-2.1,0.5c-0.2,3.2-1.3,3.3-1.6-0.1c-1.5-23.2-3.3-14.8-2.1,0.4c0.3,3.9-0.6,3.9-1.1,0.1c-1.8-15.4-3.7-11.2-2,1
		c0.4,2.8,0.3,3.8-0.9,0.2c-8.1-25.7-6.2-11.3-1.8,1.2c1.1,3.1,0.1,3.1-1,0.3C55.6,1.2,55.7,8.2,61,21.8c1.1,2.7,0.5,2.6-0.8,0.3
		C48.3,1.9,48.5,6.2,58.3,23c1.9,3.2,0.1,3.8-1.5,1.1c-10-15.9-9.6-11-1.7,1.2c2,3.1,0.6,3.5-1.6,0.9C37.9,8,41.7,15.9,51.9,27.5
		c2.8,3.2,1.5,3.5-1.1,0.7c-10.7-11.4-10.2-7.5-1.2,1.8c2.6,2.7,1.7,3.6-1.2,1.2c-13.1-11.1-12.4-7.6-1.5,1.5
		c3.2,2.7,2.5,3.7-0.9,1.5c-17.7-11.6-13.2-5.9-0.8,2c3.1,1.9,2.1,3.2-0.8,1.7c-13-7.2-12.3-4.2-1.1,1.8c2.8,1.5,2.5,2.8-0.3,1.7
		c-17.4-6.7-17.3-4.5-1.8,1.6c5.4,2.1,1.5,2.2,0.6,9.8C41,59.9,39.9,58.2,33.5,63.8z"/>
	<path class="st1" d="M113.2,86.4l-4.1,0.3l-0.3-3.8c-0.1-0.9,0.6-1.7,1.5-1.8l0.8-0.1c0.9-0.1,1.7,0.6,1.8,1.5L113.2,86.4z"/>
	<path class="st1" d="M107.1,88.1l-4.1,0.3l-0.3-3.8c-0.1-0.9,0.6-1.7,1.5-1.8l0.8-0.1c0.9-0.1,1.7,0.6,1.8,1.5L107.1,88.1z"/>
	<path class="st1" d="M62.7,91.9l-4.1,0.3l-0.3-3.8c-0.1-0.9,0.6-1.7,1.5-1.8l0.8-0.1c0.9-0.1,1.7,0.6,1.8,1.5L62.7,91.9z"/>
	<path class="st1" d="M69.2,92.6L65.1,93l-0.3-3.8c-0.1-0.9,0.6-1.7,1.5-1.8l0.8-0.1c0.9-0.1,1.7,0.6,1.8,1.5L69.2,92.6z"/>
	<path class="st1" d="M100.8,89.9l-4.1,0.3l-0.3-3.8c-0.1-0.9,0.6-1.7,1.5-1.8l0.8-0.1c0.9-0.1,1.7,0.6,1.8,1.5L100.8,89.9z"/>
	<path class="st1" d="M95,90.6L90.9,91l-0.3-3.8c-0.1-0.9,0.6-1.7,1.5-1.8l0.8-0.1c0.9-0.1,1.7,0.6,1.8,1.5L95,90.6z"/>
	<path class="st1" d="M75.5,92.3l-4.1,0.3L71,88.8c-0.1-0.9,0.6-1.7,1.5-1.8l0.8-0.1c0.9-0.1,1.7,0.6,1.8,1.5L75.5,92.3z"/>
	<path class="st1" d="M82.2,92.1l-4.1,0.4l-0.3-3.8c-0.1-0.9,0.6-1.7,1.5-1.8l0.8-0.1c0.9-0.1,1.7,0.6,1.8,1.5L82.2,92.1z"/>
	<path class="st1" d="M88.2,91.6l-4.1,0.3l-0.3-3.8c-0.1-0.9,0.6-1.7,1.5-1.8l0.8-0.1c0.9-0.1,1.7,0.6,1.8,1.5L88.2,91.6z"/>
	<path class="st1" d="M56.4,91.3l-4.1,0.3L52,87.8c-0.1-0.9,0.6-1.7,1.5-1.8l0.8-0.1c0.9-0.1,1.7,0.6,1.8,1.5L56.4,91.3z"/>
	<path class="st2" d="M47.7,92.6c-0.6,0-1.2-0.5-1.2-1.1c-0.1-0.6,0.4-1.1,1-1.1c11.5,0.3,23,1.4,34.4,0.4c11.4-1,22.5-4,33.8-6.2
		c0.6-0.1,1.2,0.3,1.2,0.9c0.1,0.6-0.4,1.2-1,1.3C104.6,89,93.4,92.1,82,93C70.7,94,59.1,92.9,47.7,92.6z"/>
	<circle class="st1" cx="75.4" cy="49.9" r="25.7"/>
	<circle class="st0" cx="61" cy="40" r="3.8"/>
</g>
</svg>
