<?xml version="1.0" encoding="UTF-8" standalone="no"?>
<svg
   xmlns:dc="http://purl.org/dc/elements/1.1/"
   xmlns:cc="http://creativecommons.org/ns#"
   xmlns:rdf="http://www.w3.org/1999/02/22-rdf-syntax-ns#"
   xmlns:svg="http://www.w3.org/2000/svg"
   xmlns="http://www.w3.org/2000/svg"
   xmlns:sodipodi="http://sodipodi.sourceforge.net/DTD/sodipodi-0.dtd"
   xmlns:inkscape="http://www.inkscape.org/namespaces/inkscape"
   width="566.92773"
   height="248.88068"
   id="svg2"
   sodipodi:version="0.32"
   inkscape:version="0.47 r22583"
   sodipodi:docname="Royal_Standard_of_Tonga.svg"
   inkscape:output_extension="org.inkscape.output.svg.inkscape"
   version="1.0">
  <metadata
     id="metadata75">
    <rdf:RDF>
      <cc:Work
         rdf:about="">
        <dc:format>image/svg+xml</dc:format>
        <dc:type
           rdf:resource="http://purl.org/dc/dcmitype/StillImage" />
      </cc:Work>
    </rdf:RDF>
  </metadata>
  <defs
     id="defs73">
    <inkscape:perspective
       sodipodi:type="inkscape:persp3d"
       inkscape:vp_x="0 : 124.44034 : 1"
       inkscape:vp_y="0 : 1000 : 0"
       inkscape:vp_z="566.92773 : 124.44034 : 1"
       inkscape:persp3d-origin="283.46387 : 82.960225 : 1"
       id="perspective40" />
  </defs>
  <sodipodi:namedview
     inkscape:window-height="1004"
     inkscape:window-width="1280"
     inkscape:pageshadow="2"
     inkscape:pageopacity="0.0"
     guidetolerance="10.0"
     gridtolerance="10.0"
     objecttolerance="10.0"
     borderopacity="1.0"
     bordercolor="#666666"
     pagecolor="#ffffff"
     id="base"
     inkscape:zoom="0.95774648"
     inkscape:cx="373.60033"
     inkscape:cy="155.625"
     inkscape:window-x="-8"
     inkscape:window-y="-8"
     inkscape:current-layer="svg2"
     showgrid="false"
     inkscape:window-maximized="1" />
  <g
     transform="translate(56.567342,0)"
     style="fill:#ffffff;fill-rule:nonzero;stroke:none;stroke-width:1pt;stroke-linecap:butt;stroke-linejoin:miter;stroke-dasharray:none"
     id="g4">
    <path
       d="M 148.077,74.0362 C 148.077,114.926 114.929,148.072 74.0404,148.072 C 33.1485,148.072 0,114.926 0,74.0362 C 0,33.1465 33.1485,0 74.0404,0 C 114.929,0 148.077,33.1465 148.077,74.0362 z "
       id="path6" />
  </g>
  <g
     transform="translate(221.15674,60.649372)"
     style="fill:#00247d;fill-rule:nonzero;stroke:none;stroke-width:1pt;stroke-linecap:butt;stroke-linejoin:miter;stroke-dasharray:none;fill-opacity:1"
     id="g8">
    <path
       d="M 38.628,36.9883 C 35.917,38.7461 32.375,39.2168 28.004,39.2168 C 28.004,39.2168 20.893,39.2168 18.569,39.2168 C 18.569,36.7081 18.569,18.4053 18.569,15.9004 C 20.809,15.9004 28.41,15.9004 28.41,15.9004 C 32.133,15.9004 35.988,16.4434 38.885,18.2998 C 41.826,20.1827 43.613,23.4014 43.613,27.1827 C 43.613,31.7129 41.568,35.0831 38.628,36.9883 z M 44.755,50.7683 C 57.723,47.2183 62.075,35.4082 62.075,27.1123 C 62.075,15.75 56.601,7.335 46.47,3.0674 C 41.262,0.876 35.159,0 26.674,0 C 26.674,0 0,0 0,0 C 0,0 0,82.7983 0,82.7983 C 0,82.7983 18.569,82.7983 18.569,82.7983 C 18.569,82.7983 18.569,57.0093 18.569,54.2933 C 18.569,54.2933 20.456,54.2933 20.456,54.2933 C 24.176,54.2933 27.505,55.5643 30.343,58.4333 C 35.942,64.0933 41.773,74.3493 45.789,81.9753 C 45.789,81.9753 46.221,82.7983 46.221,82.7983 C 46.221,82.7983 67.751,82.7983 67.751,82.7983 C 67.751,82.7983 66.378,80.5263 66.378,80.5263 C 63.793,76.2373 52.195,57.3623 44.755,50.7683 z "
       id="path10"
       style="fill:#00247d;fill-opacity:1" />
  </g>
  <g
     transform="translate(291.86174,59.207972)"
     style="fill:#00247d;fill-rule:nonzero;stroke:none;stroke-width:1pt;stroke-linecap:butt;stroke-linejoin:miter;stroke-dasharray:none;fill-opacity:1"
     id="g12">
    <path
       d="M 61.738,42.8957 C 61.738,58.9247 53.691,69.2837 40.568,69.2837 C 27.362,69.2837 19.129,58.9247 19.129,42.8957 C 19.129,26.8623 27.362,16.5049 40.568,16.5049 C 53.691,16.5049 61.738,26.8623 61.738,42.8957 z M 40.568,0 C 29.013,0 19.164,3.712 12.049,10.6455 C 4.149,18.3409 0,29.462 0.063,42.9047 C 0.063,68.6167 16.337,85.9007 40.568,85.9007 C 64.717,85.9007 80.795,68.6167 80.795,42.8957 C 80.795,16.8379 65.09,0 40.568,0 z "
       id="path14"
       style="fill:#00247d;fill-opacity:1" />
  </g>
  <g
     transform="translate(373.65274,60.649372)"
     style="fill:#00247d;fill-rule:nonzero;stroke:none;stroke-width:1pt;stroke-linecap:butt;stroke-linejoin:miter;stroke-dasharray:none;fill-opacity:1"
     id="g16">
    <path
       d="M 55.438,0 C 55.438,0 31.913,36.5293 31.913,36.5293 C 31.913,36.5293 21.231,0 21.231,0 C 21.231,0 1.939,0 1.939,0 C 1.939,0 19.406,54.2053 19.406,54.2053 C 19.406,54.2053 0,82.7983 0,82.7983 C 0,82.7983 20.759,82.7983 20.759,82.7983 C 20.759,82.7983 76.38,0 76.38,0 C 76.38,0 55.438,0 55.438,0 z "
       id="path18"
       style="fill:#00247d;fill-opacity:1" />
  </g>
  <g
     transform="translate(513.09074,60.649372)"
     style="fill:#00247d;fill-rule:nonzero;stroke:none;stroke-width:1pt;stroke-linecap:butt;stroke-linejoin:miter;stroke-dasharray:none;fill-opacity:1"
     id="g20">
    <path
       d="M 18.579,66.9143 C 18.579,66.9143 18.579,0 18.579,0 C 18.579,0 0,0 0,0 C 0,0 0,82.7983 0,82.7983 C 0,82.7983 46.373,82.7983 46.373,82.7983 C 46.373,82.7983 53.016,66.9143 53.016,66.9143 C 53.016,66.9143 18.579,66.9143 18.579,66.9143 z "
       id="path22"
       style="fill:#00247d;fill-opacity:1" />
  </g>
  <g
     transform="translate(415.09174,60.649372)"
     style="fill:#00247d;fill-rule:nonzero;stroke:none;stroke-width:1pt;stroke-linecap:butt;stroke-linejoin:miter;stroke-dasharray:none;fill-opacity:1"
     id="g24">
    <path
       d="M 44.392,46.8643 C 44.392,46.8643 63.18,18.1719 63.18,18.1719 C 63.18,18.1719 63.18,46.8643 63.18,46.8643 C 63.18,46.8643 44.392,46.8643 44.392,46.8643 z M 81.756,0 C 81.756,0 56.68,0 56.68,0 C 56.68,0 0,82.7983 0,82.7983 C 0,82.7983 20.855,82.7983 20.855,82.7983 C 20.855,82.7983 34.029,62.4633 34.029,62.4633 C 34.029,62.4633 63.18,62.4633 63.18,62.4633 C 63.18,62.4633 63.18,82.7983 63.18,82.7983 C 63.18,82.7983 81.756,82.7983 81.756,82.7983 C 81.756,82.7983 81.756,0 81.756,0 z "
       id="path26"
       style="fill:#00247d;fill-opacity:1" />
  </g>
  <g
     transform="translate(132.62074,164.28767)"
     style="fill:#00247d;fill-rule:nonzero;stroke:none;stroke-width:1pt;stroke-linecap:butt;stroke-linejoin:miter;stroke-dasharray:none;fill-opacity:1"
     id="g28">
    <path
       d="M 38.628,36.996 C 35.916,38.749 32.379,39.216 28.01,39.216 C 28.01,39.216 20.895,39.216 18.572,39.216 C 18.572,36.711 18.572,18.413 18.572,15.906 C 20.809,15.906 28.415,15.906 28.415,15.906 C 32.136,15.906 35.986,16.45 38.884,18.308 C 41.825,20.186 43.614,23.408 43.614,27.189 C 43.614,31.717 41.568,35.087 38.628,36.996 z M 44.756,50.77 C 57.727,47.224 62.075,35.412 62.075,27.121 C 62.075,15.754 56.603,7.338 46.469,3.067 C 41.262,0.874 35.16,0 26.676,0 C 26.676,0 0,0 0,0 C 0,0 0,82.804 0,82.804 C 0,82.804 18.572,82.804 18.572,82.804 C 18.572,82.804 18.572,57.012 18.572,54.295 C 18.572,54.295 20.454,54.295 20.454,54.295 C 24.176,54.295 27.508,55.562 30.346,58.436 C 35.944,64.09 41.772,74.354 45.787,81.979 C 45.787,81.979 46.221,82.804 46.221,82.804 C 46.221,82.804 67.753,82.804 67.753,82.804 C 67.753,82.804 66.377,80.526 66.377,80.526 C 63.793,76.243 52.193,57.362 44.756,50.77 z "
       id="path30"
       style="fill:#00247d;fill-opacity:1" />
  </g>
  <g
     transform="translate(364.07374,164.28767)"
     style="fill:#00247d;fill-rule:nonzero;stroke:none;stroke-width:1pt;stroke-linecap:butt;stroke-linejoin:miter;stroke-dasharray:none;fill-opacity:1"
     id="g32">
    <path
       d="M 38.626,36.996 C 35.914,38.749 32.375,39.216 28.004,39.216 C 28.004,39.216 20.895,39.216 18.571,39.216 C 18.571,36.711 18.571,18.413 18.571,15.906 C 20.808,15.906 28.415,15.906 28.415,15.906 C 32.13,15.906 35.98,16.45 38.878,18.308 C 41.82,20.186 43.609,23.408 43.609,27.189 C 43.609,31.717 41.564,35.087 38.626,36.996 z M 44.751,50.77 C 57.725,47.224 62.071,35.412 62.071,27.121 C 62.071,15.754 56.601,7.338 46.464,3.067 C 41.26,0.874 35.159,0 26.676,0 C 26.676,0 0,0 0,0 C 0,0 0,82.804 0,82.804 C 0,82.804 18.571,82.804 18.571,82.804 C 18.571,82.804 18.571,57.012 18.571,54.295 C 18.571,54.295 20.452,54.295 20.452,54.295 C 24.175,54.295 27.505,55.562 30.346,58.436 C 35.942,64.09 41.767,74.354 45.789,81.979 C 45.789,81.979 46.218,82.804 46.218,82.804 C 46.218,82.804 67.755,82.804 67.755,82.804 C 67.755,82.804 66.38,80.526 66.38,80.526 C 63.797,76.243 52.188,57.362 44.751,50.77 z "
       id="path34"
       style="fill:#00247d;fill-opacity:1" />
  </g>
  <g
     transform="translate(273.38674,162.97667)"
     style="fill:#00247d;fill-rule:nonzero;stroke:none;stroke-width:1pt;stroke-linecap:butt;stroke-linejoin:miter;stroke-dasharray:none;fill-opacity:1"
     id="g36">
    <path
       d="M 61.738,42.894 C 61.738,58.927 53.683,69.282 40.563,69.282 C 27.359,69.282 19.132,58.927 19.132,42.894 C 19.132,26.868 27.359,16.506 40.563,16.506 C 53.683,16.506 61.738,26.868 61.738,42.894 z M 40.563,0 C 29.018,0 19.17,3.714 12.05,10.651 C 4.153,18.349 0,29.469 0.067,42.904 C 0.067,68.618 16.341,85.904 40.563,85.904 C 64.718,85.904 80.791,68.618 80.791,42.894 C 80.791,16.842 65.097,0 40.563,0 z "
       id="path38"
       style="fill:#00247d;fill-opacity:1" />
  </g>
  <g
     transform="translate(0,164.28767)"
     style="fill:#00247d;fill-rule:nonzero;stroke:none;stroke-width:1pt;stroke-linecap:butt;stroke-linejoin:miter;stroke-dasharray:none;fill-opacity:1"
     id="g40">
    <path
       d="M 44.3808,46.87 C 44.3808,46.87 63.1748,18.174 63.1748,18.174 C 63.1748,18.174 63.1748,46.87 63.1748,46.87 C 63.1748,46.87 44.3808,46.87 44.3808,46.87 z M 81.749,0 C 81.749,0 56.6718,0 56.6718,0 C 56.6718,0 0,82.804 0,82.804 C 0,82.804 20.8466,82.804 20.8466,82.804 C 20.8466,82.804 34.0175,62.458 34.0175,62.458 C 34.0175,62.458 63.1748,62.458 63.1748,62.458 C 63.1748,62.458 63.1748,82.804 63.1748,82.804 C 63.1748,82.804 81.749,82.804 81.749,82.804 C 81.749,82.804 81.749,0 81.749,0 z "
       id="path42"
       style="fill:#00247d;fill-opacity:1" />
  </g>
  <g
     transform="translate(97.236342,164.28767)"
     style="fill:#00247d;fill-rule:nonzero;stroke:none;stroke-width:1pt;stroke-linecap:butt;stroke-linejoin:miter;stroke-dasharray:none;fill-opacity:1"
     id="g44">
    <path
       d="M 0,0 C 0,0 0,82.804 0,82.804 C 0,82.804 18.5784,82.804 18.5784,82.804 C 18.5784,82.804 18.5784,0 18.5784,0 C 18.5784,0 0,0 0,0 z "
       id="path46"
       style="fill:#00247d;fill-opacity:1" />
  </g>
  <g
     transform="translate(221.15674,164.28767)"
     style="fill:#00247d;fill-rule:nonzero;stroke:none;stroke-width:1pt;stroke-linecap:butt;stroke-linejoin:miter;stroke-dasharray:none;fill-opacity:1"
     id="g48">
    <path
       d="M 18.54,15.967 C 18.54,15.967 48.18,15.967 48.18,15.967 C 48.18,15.967 56.405,0 56.405,0 C 56.405,0 0,0 0,0 C 0,0 0,82.88 0,82.88 C 0,82.88 18.54,82.88 18.54,82.88 C 18.54,82.88 18.54,49.371 18.54,49.371 C 18.54,49.371 41.305,49.371 41.305,49.371 C 41.305,49.371 41.305,33.529 41.305,33.529 C 41.305,33.529 18.54,33.529 18.54,33.529 C 18.54,33.529 18.54,15.967 18.54,15.967 z "
       id="path50"
       style="fill:#00247d;fill-opacity:1" />
  </g>
  <g
     transform="translate(434.35474,162.86167)"
     style="fill:#00247d;fill-rule:nonzero;stroke:none;stroke-width:1pt;stroke-linecap:butt;stroke-linejoin:miter;stroke-dasharray:none;fill-opacity:1"
     id="g52">
    <path
       d="M 48.124,69.384 C 41.781,69.384 34.97,67.842 30.57,65.079 C 23.504,60.631 19.354,52.555 19.354,42.552 C 19.354,36.551 20.991,30.536 24.862,25.638 C 29.208,20.159 36.489,16.944 45.92,16.944 C 51.712,16.944 56.792,17.547 63.77,19.327 C 63.77,15.234 63.77,2.475 63.77,2.475 C 56.854,0.796 51.008,0 43.752,0 C 33.129,0 20.476,3.417 12.182,11.648 C 4.199,19.556 0,30.768 0,42.668 C 0,56.376 5.3,68.457 13.981,75.973 C 22.533,83.373 35.194,85.875 45.737,85.875 C 53.041,85.875 61.081,84.689 65.695,83.171 C 65.695,83.171 65.695,73.877 65.695,67.065 C 60.47,68.457 54.758,69.384 48.124,69.384 z "
       id="path54"
       style="fill:#00247d;fill-opacity:1" />
  </g>
  <g
     transform="translate(513.05774,164.28767)"
     style="fill:#00247d;fill-rule:nonzero;stroke:none;stroke-width:1pt;stroke-linecap:butt;stroke-linejoin:miter;stroke-dasharray:none;fill-opacity:1"
     id="g56">
    <path
       d="M 18.575,66.908 C 18.575,66.908 18.575,48.643 18.575,48.643 C 18.575,48.643 41.046,48.643 41.046,48.643 C 41.046,48.643 41.046,32.809 41.046,32.809 C 41.046,32.809 18.575,32.809 18.575,32.809 C 18.575,32.809 18.575,15.967 18.575,15.967 C 18.575,15.967 47.613,15.967 47.613,15.967 C 47.613,15.967 53.87,0 53.87,0 C 53.87,0 0,0 0,0 C 0,0 0,82.88 0,82.88 C 0,82.88 50.696,82.88 50.696,82.88 C 50.696,82.88 50.696,66.908 50.696,66.908 C 50.696,66.908 18.575,66.908 18.575,66.908 z "
       id="path58"
       style="fill:#00247d;fill-opacity:1" />
  </g>
  <g
     transform="translate(59.845742,3.674802)"
     style="fill:#00247d;fill-rule:nonzero;stroke:none;stroke-width:1pt;stroke-linecap:butt;stroke-linejoin:miter;stroke-dasharray:none;fill-opacity:1"
     id="g60">
    <path
       d="M 70.762,0 C 109.784,0 141.52,31.3389 141.52,70.3614 C 141.52,109.385 109.784,140.722 70.762,140.722 C 31.7392,140.722 0,109.385 0,70.3614 C 0,31.3389 31.7392,0 70.762,0 z "
       id="path62"
       style="fill:#00247d;fill-opacity:1" />
  </g>
  <g
     transform="translate(83.500042,26.930672)"
     style="fill:#ffffff;fill-rule:nonzero;stroke:none;stroke-width:1pt;stroke-linecap:butt;stroke-linejoin:miter;stroke-dasharray:none"
     id="g64">
    <path
       d="M 47.1077,0 C 73.1227,0 94.2117,21.0918 94.2117,47.1055 C 94.2117,73.123 73.1227,94.215 47.1077,94.215 C 21.0907,94.215 0,73.123 0,47.1055 C 0,21.0918 21.0907,0 47.1077,0 z "
       id="path66" />
  </g>
  <g
     transform="translate(107.05374,50.484372)"
     style="fill:#ce1126;fill-rule:nonzero;stroke:none;stroke-width:1pt;stroke-linecap:butt;stroke-linejoin:miter;stroke-dasharray:none;fill-opacity:1"
     id="g68">
    <path
       d="M 23.554,0 C 36.561,0 47.104,10.541 47.104,23.5518 C 47.104,36.5615 36.561,47.1064 23.554,47.1064 C 10.548,47.1064 0,36.5615 0,23.5518 C 0,10.541 10.548,0 23.554,0 z "
       id="path70"
       style="fill:#ce1126;fill-opacity:1" />
  </g>
</svg>
